<svg width="93" height="24" viewBox="0 0 93 24" fill="none" xmlns="http://www.w3.org/2000/svg">
<rect width="93" height="24" rx="12" fill="#C8E1C7"/>
<path d="M27.6284 8.02075H28.8357L33.1819 14.6973V8.02075H34.1365V16H32.9292L28.583 9.31226V16H27.6284V8.02075ZM38.1435 10.3455C38.413 10.3455 38.6545 10.3792 38.8679 10.4465C39.085 10.5102 39.2647 10.5925 39.4069 10.6936C39.5492 10.7947 39.6708 10.9276 39.7719 11.0923C39.8767 11.2533 39.9554 11.4105 40.0078 11.564C40.0639 11.7137 40.107 11.8953 40.1369 12.1086C40.1669 12.322 40.1856 12.5073 40.1931 12.6646C40.2006 12.8218 40.2043 13.0071 40.2043 13.2205V13.6584H36.3916C36.3916 13.8606 36.4365 14.0627 36.5263 14.2649C36.6199 14.4633 36.7491 14.6467 36.9138 14.8152C37.0822 14.9799 37.3012 15.1147 37.5708 15.2195C37.844 15.3243 38.1454 15.3767 38.4748 15.3767C38.8641 15.3767 39.2853 15.3093 39.7382 15.1746L39.9011 15.8035C39.2984 16.0094 38.7069 16.1123 38.1267 16.1123C37.7186 16.1123 37.3555 16.058 37.0373 15.9495C36.7229 15.8409 36.4683 15.7005 36.2736 15.5283C36.0827 15.3524 35.9255 15.1427 35.802 14.8994C35.6784 14.6561 35.5923 14.4146 35.5437 14.175C35.4987 13.9317 35.4763 13.6753 35.4763 13.4058C35.4763 12.9902 35.5268 12.6103 35.6279 12.2659C35.729 11.9215 35.8656 11.6332 36.0378 11.4011C36.21 11.1653 36.4103 10.9669 36.6386 10.8059C36.8707 10.6449 37.1122 10.5289 37.363 10.4578C37.6175 10.3829 37.8777 10.3455 38.1435 10.3455ZM37.947 11.1428C37.6175 11.1428 37.333 11.2345 37.0935 11.418C36.8576 11.5977 36.6854 11.8223 36.5769 12.0918C36.4683 12.3613 36.414 12.6514 36.414 12.9622H39.3115C39.3115 11.7493 38.8566 11.1428 37.947 11.1428ZM40.6962 10.4521H41.6789L43.1837 15.1072L44.61 10.4521H45.5141L46.9965 15.1016L48.5014 10.4521H49.484L47.4569 16H46.5304L45.0536 11.5022L43.5937 16H42.6671L40.6962 10.4521ZM52.6488 10.3455C52.9183 10.3455 53.1598 10.3792 53.3731 10.4465C53.5903 10.5102 53.77 10.5925 53.9122 10.6936C54.0545 10.7947 54.1761 10.9276 54.2772 11.0923C54.382 11.2533 54.4606 11.4105 54.513 11.564C54.5692 11.7137 54.6122 11.8953 54.6422 12.1086C54.6721 12.322 54.6909 12.5073 54.6983 12.6646C54.7058 12.8218 54.7096 13.0071 54.7096 13.2205V13.6584H50.8968C50.8968 13.8606 50.9417 14.0627 51.0316 14.2649C51.1252 14.4633 51.2543 14.6467 51.419 14.8152C51.5875 14.9799 51.8065 15.1147 52.076 15.2195C52.3493 15.3243 52.6507 15.3767 52.9801 15.3767C53.3694 15.3767 53.7905 15.3093 54.2435 15.1746L54.4063 15.8035C53.8036 16.0094 53.2122 16.1123 52.6319 16.1123C52.2239 16.1123 51.8608 16.058 51.5426 15.9495C51.2281 15.8409 50.9736 15.7005 50.7789 15.5283C50.588 15.3524 50.4308 15.1427 50.3072 14.8994C50.1837 14.6561 50.0976 14.4146 50.0489 14.175C50.004 13.9317 49.9815 13.6753 49.9815 13.4058C49.9815 12.9902 50.0321 12.6103 50.1332 12.2659C50.2342 11.9215 50.3709 11.6332 50.5431 11.4011C50.7153 11.1653 50.9155 10.9669 51.1439 10.8059C51.376 10.6449 51.6174 10.5289 51.8683 10.4578C52.1228 10.3829 52.383 10.3455 52.6488 10.3455ZM52.4522 11.1428C52.1228 11.1428 51.8383 11.2345 51.5987 11.418C51.3629 11.5977 51.1907 11.8223 51.0821 12.0918C50.9736 12.3613 50.9193 12.6514 50.9193 12.9622H53.8167C53.8167 11.7493 53.3619 11.1428 52.4522 11.1428ZM55.9876 7.51538H56.9085V16H55.9876V7.51538ZM58.5796 7.51538H59.5005V16H58.5796V7.51538ZM63.4458 10.3455C63.7153 10.3455 63.9567 10.3792 64.1701 10.4465C64.3872 10.5102 64.5669 10.5925 64.7092 10.6936C64.8514 10.7947 64.9731 10.9276 65.0742 11.0923C65.179 11.2533 65.2576 11.4105 65.31 11.564C65.3662 11.7137 65.4092 11.8953 65.4392 12.1086C65.4691 12.322 65.4878 12.5073 65.4953 12.6646C65.5028 12.8218 65.5065 13.0071 65.5065 13.2205V13.6584H61.6938C61.6938 13.8606 61.7387 14.0627 61.8286 14.2649C61.9222 14.4633 62.0513 14.6467 62.216 14.8152C62.3845 14.9799 62.6035 15.1147 62.873 15.2195C63.1463 15.3243 63.4476 15.3767 63.7771 15.3767C64.1664 15.3767 64.5875 15.3093 65.0405 15.1746L65.2033 15.8035C64.6006 16.0094 64.0091 16.1123 63.4289 16.1123C63.0209 16.1123 62.6577 16.058 62.3396 15.9495C62.0251 15.8409 61.7705 15.7005 61.5759 15.5283C61.385 15.3524 61.2277 15.1427 61.1042 14.8994C60.9807 14.6561 60.8946 14.4146 60.8459 14.175C60.801 13.9317 60.7785 13.6753 60.7785 13.4058C60.7785 12.9902 60.8291 12.6103 60.9301 12.2659C61.0312 11.9215 61.1678 11.6332 61.34 11.4011C61.5122 11.1653 61.7125 10.9669 61.9409 10.8059C62.173 10.6449 62.4144 10.5289 62.6652 10.4578C62.9198 10.3829 63.18 10.3455 63.4458 10.3455ZM63.2492 11.1428C62.9198 11.1428 62.6353 11.2345 62.3957 11.418C62.1599 11.5977 61.9877 11.8223 61.8791 12.0918C61.7705 12.3613 61.7163 12.6514 61.7163 12.9622H64.6137C64.6137 11.7493 64.1589 11.1428 63.2492 11.1428ZM69.8595 8.02075H70.8141V15.1633H74.3966V16H69.8595V8.02075ZM74.9502 8.02075H76.0396V9.08203H74.9502V8.02075ZM75.0345 10.4521H75.9554V16H75.0345V10.4521ZM80.3499 15.9045C79.807 16.0431 79.384 16.1123 79.0808 16.1123C78.7776 16.1123 78.5212 16.0636 78.3115 15.9663C78.1019 15.869 77.9428 15.7305 77.8342 15.5508C77.7257 15.3711 77.6471 15.1783 77.5984 14.9724C77.5535 14.7628 77.531 14.5232 77.531 14.2537V11.1765H76.7842V10.4521H77.531V8.86304H78.4519V10.4521H80.1421V11.1765H78.4519V14.2424C78.4519 15.0098 78.7551 15.3936 79.3616 15.3936C79.4701 15.3936 79.7565 15.3542 80.2207 15.2756L80.3499 15.9045ZM83.5708 10.3455C83.8403 10.3455 84.0817 10.3792 84.2951 10.4465C84.5122 10.5102 84.6919 10.5925 84.8342 10.6936C84.9764 10.7947 85.0981 10.9276 85.1992 11.0923C85.304 11.2533 85.3826 11.4105 85.435 11.564C85.4912 11.7137 85.5342 11.8953 85.5642 12.1086C85.5941 12.322 85.6128 12.5073 85.6203 12.6646C85.6278 12.8218 85.6315 13.0071 85.6315 13.2205V13.6584H81.8188C81.8188 13.8606 81.8637 14.0627 81.9536 14.2649C82.0472 14.4633 82.1763 14.6467 82.341 14.8152C82.5095 14.9799 82.7285 15.1147 82.998 15.2195C83.2713 15.3243 83.5726 15.3767 83.9021 15.3767C84.2914 15.3767 84.7125 15.3093 85.1655 15.1746L85.3283 15.8035C84.7256 16.0094 84.1341 16.1123 83.5539 16.1123C83.1459 16.1123 82.7827 16.058 82.4646 15.9495C82.1501 15.8409 81.8955 15.7005 81.7009 15.5283C81.51 15.3524 81.3527 15.1427 81.2292 14.8994C81.1057 14.6561 81.0196 14.4146 80.9709 14.175C80.926 13.9317 80.9035 13.6753 80.9035 13.4058C80.9035 12.9902 80.9541 12.6103 81.0551 12.2659C81.1562 11.9215 81.2928 11.6332 81.465 11.4011C81.6372 11.1653 81.8375 10.9669 82.0659 10.8059C82.298 10.6449 82.5394 10.5289 82.7902 10.4578C83.0448 10.3829 83.305 10.3455 83.5708 10.3455ZM83.3742 11.1428C83.0448 11.1428 82.7603 11.2345 82.5207 11.418C82.2849 11.5977 82.1127 11.8223 82.0041 12.0918C81.8955 12.3613 81.8413 12.6514 81.8413 12.9622H84.7387C84.7387 11.7493 84.2839 11.1428 83.3742 11.1428Z" fill="#1A1516"/>
<path fill-rule="evenodd" clip-rule="evenodd" d="M11.729 4.27588C9.31201 4.53088 7.18114 6.39263 6.25101 9.05713C5.96439 9.88576 5.96439 9.97513 6.25639 9.33788C6.89989 7.92876 7.77051 6.92776 8.94439 6.23288C9.87939 5.67826 10.7881 5.45513 11.8911 5.50638C12.7836 5.54438 13.4486 5.73588 14.2056 6.15676L14.7305 6.44976L15.4498 6.11813C15.8389 5.93363 16.1635 5.76126 16.1635 5.73588C16.1635 5.71051 15.9634 5.53813 15.7198 5.35988C14.5898 4.54351 13.0918 4.13576 11.729 4.27588Z" fill="#1A1516"/>
<path fill-rule="evenodd" clip-rule="evenodd" d="M17.2173 5.416C16.8779 5.58062 16.5761 5.73287 16.544 5.74562C16.5165 5.75825 16.6675 5.96137 16.8833 6.20212C18.9785 8.4985 19.582 12.2344 18.3483 15.2856C17.4595 17.4869 15.9404 18.9326 13.8238 19.6114C13.495 19.7129 13.8018 19.6875 14.3515 19.561C17.3355 18.876 19.5981 16.1357 20.0991 12.5835C20.2119 11.7969 20.185 10.2871 20.0449 9.53225C19.7651 8.03562 19.1939 6.73537 18.2836 5.51712C18.106 5.28275 17.9336 5.09225 17.896 5.09862C17.8633 5.09862 17.5566 5.24462 17.2173 5.41612V5.416Z" fill="#1A1516"/>
<path fill-rule="evenodd" clip-rule="evenodd" d="M15.5502 6.187C15.1831 6.36425 14.8862 6.52875 14.8862 6.54787C14.8862 6.57325 15.0161 6.69337 15.1724 6.81987C16.1176 7.5855 17.0082 9.022 17.3861 10.4082C17.7749 11.8066 17.7534 13.5532 17.3325 14.9199C16.6519 17.1537 15.1079 18.8184 13.1587 19.4321C12.6294 19.603 12.7807 19.6284 13.4341 19.4892C15.4804 19.0459 17.2295 17.5146 18.1421 15.3755C18.6284 14.2367 18.8281 13.2241 18.8335 11.9267C18.8335 10.25 18.4282 8.76275 17.6025 7.42725C17.2784 6.88975 16.3931 5.84525 16.2792 5.85787C16.2417 5.85787 15.9121 6.00975 15.5502 6.187Z" fill="#1A1516"/>
<path fill-rule="evenodd" clip-rule="evenodd" d="M10.8975 7.5005C10.8975 8.42962 10.9029 8.47362 11.0054 8.47362C11.103 8.47362 11.1137 8.42962 11.1137 8.07175C11.1137 7.84575 11.1406 7.6445 11.1734 7.61962C11.2651 7.55662 11.5034 7.789 11.7036 8.147C11.8389 8.392 11.9204 8.47362 12.0176 8.47362H12.1529L12.0284 8.23487C11.9634 8.10937 11.8442 7.90237 11.7631 7.78275L11.6119 7.55662L11.7417 7.38725C11.9145 7.1485 11.9037 6.935 11.7142 6.709C11.5737 6.54587 11.5195 6.52687 11.2275 6.52687H10.8975V7.5005ZM11.5362 6.8535C11.5737 6.8975 11.6011 6.98537 11.6011 7.0605C11.6011 7.249 11.498 7.34325 11.2924 7.34325C11.1191 7.34325 11.1137 7.337 11.1137 7.0605C11.1137 6.78462 11.1191 6.77837 11.2925 6.77837C11.3896 6.77837 11.498 6.80962 11.5362 6.8535ZM12.7744 6.72612C12.3775 6.896 12.1924 7.20412 12.1924 7.69487C12.1924 8.24862 12.5186 8.62012 13.0684 8.69525C13.3022 8.727 13.3619 8.71437 13.4219 8.62012C13.5415 8.43112 13.5141 8.3935 13.2856 8.4375C12.981 8.49412 12.6001 8.28662 12.4864 8.00337C12.3662 7.71387 12.4209 7.36762 12.6275 7.12887C12.8721 6.84575 13.3237 6.88325 13.6445 7.21675C13.7587 7.34275 13.7587 7.34275 13.7969 7.2105C13.8404 7.0405 13.8022 6.9775 13.5576 6.833C13.2695 6.65675 13.0136 6.6255 12.7744 6.72612ZM9.42437 6.88287C9.41362 6.92775 9.3755 7.30125 9.34325 7.7075C9.31642 8.04491 9.28583 8.38201 9.2515 8.71875C9.22462 8.96337 9.23 8.99562 9.32712 8.99562C9.44037 8.99562 9.50487 8.7895 9.50487 8.44812C9.50487 8.332 9.55912 8.2935 9.84475 8.19687L10.1792 8.081L10.3462 8.313C10.4434 8.44825 10.562 8.54487 10.6324 8.54487C10.7021 8.54487 10.7456 8.519 10.7349 8.48687C10.7236 8.44812 10.4702 8.0615 10.1631 7.61712C9.63962 6.85687 9.47812 6.696 9.42437 6.88287ZM9.99025 7.84287C9.99025 7.86812 9.93112 7.90725 9.86087 7.92625C9.791 7.94575 9.69387 7.98437 9.645 8.00387C9.57525 8.03562 9.55912 7.99712 9.55912 7.82962C9.55912 7.7075 9.57525 7.54 9.59662 7.456C9.62887 7.29487 9.62887 7.29487 9.8125 7.54637C9.90962 7.68162 9.99025 7.817 9.99025 7.84287ZM13.9546 7.96187C13.6265 8.77062 13.605 8.83987 13.6962 8.91562C13.7822 8.98537 13.8096 8.95362 13.9437 8.63137C14.0302 8.42925 14.1109 8.25887 14.1162 8.24612C14.127 8.23337 14.3154 8.32175 14.5415 8.44825L14.956 8.6695L14.7891 9.04825C14.6329 9.42137 14.6329 9.43362 14.7354 9.497C14.832 9.55375 14.8589 9.51612 15.0474 9.07375C15.478 8.05662 15.5699 7.78462 15.4834 7.72162C15.3599 7.63325 15.3437 7.646 15.2196 8.01225C15.1552 8.208 15.0796 8.37887 15.0527 8.3975C14.9936 8.44187 14.251 7.99312 14.251 7.9175C14.251 7.87937 14.3154 7.70262 14.3906 7.52587C14.5039 7.26662 14.5146 7.19725 14.4551 7.15287C14.4175 7.12162 14.3691 7.09625 14.3476 7.09625C14.3261 7.09625 14.1484 7.48775 13.9546 7.96187ZM7.581 7.80225C7.55375 7.89162 7.71187 9.89012 7.75537 9.941C7.76612 9.95412 7.815 9.92825 7.86425 9.8775C7.92925 9.8135 7.94575 9.72412 7.9185 9.49412L7.88575 9.19437L8.19575 8.99612L8.50637 8.79837L8.74562 8.99612C8.94687 9.1685 8.99562 9.18112 9.061 9.11137C9.121 9.03462 9.02837 8.92575 8.42975 8.36425C8.03812 8.00675 7.69537 7.713 7.668 7.713C7.63575 7.713 7.59762 7.7515 7.581 7.80225ZM8.05475 8.36425C8.169 8.47262 8.26662 8.58737 8.26662 8.61325C8.26662 8.69625 7.92912 8.875 7.88575 8.81737C7.84225 8.76662 7.78225 8.15962 7.82025 8.15962C7.8315 8.15962 7.93462 8.249 8.05475 8.36425ZM9.146 10.7881C7.94337 11.8511 7.16162 13.4394 7.09662 14.9712C7.03762 16.294 7.46875 17.2305 8.31537 17.604C8.76312 17.7997 9.42087 17.7559 9.81987 17.5025C10.8442 16.8506 11.0976 15.2431 10.332 14.2431C10.084 13.9204 9.83062 13.731 9.53412 13.6485C9.24262 13.56 8.71975 13.604 8.43412 13.731C8.28325 13.794 8.15912 13.8447 8.15912 13.832C8.15912 13.7432 8.38037 13.2436 8.57412 12.8827C8.84912 12.3891 9.31287 11.832 9.70662 11.5156C9.84662 11.4019 9.97075 11.3066 9.9815 11.2944C9.9975 11.2817 9.5015 10.5094 9.47462 10.5094C9.46925 10.5094 9.31837 10.6362 9.146 10.7881ZM9.36137 14.6485C10.0302 14.9775 10.1055 16.0722 9.50137 16.5976C9.18887 16.876 8.63912 16.8189 8.32075 16.4839C8.04587 16.186 7.93262 15.8384 7.95412 15.3194L7.97025 14.9077L8.26175 14.7305C8.59575 14.5346 9.065 14.4966 9.36137 14.6485ZM12.708 12.688C11.3794 14.5835 11.1796 14.8921 11.1796 15.081V15.2949L12.4649 15.3076L13.7451 15.3266L13.7666 17.5932L14.1772 17.6122L14.582 17.6314L14.5927 16.479L14.609 15.3266L14.9224 15.3076L15.2299 15.2886V14.4199L14.9224 14.4009L14.6089 14.3819L14.5927 12.4424L14.582 10.5092H14.4037C14.2417 10.5092 14.1391 10.6416 12.708 12.688ZM13.7666 13.4057C13.7774 14.1616 13.7666 14.357 13.707 14.3819C13.6641 14.4009 13.3452 14.4072 12.9995 14.4009L12.3676 14.3819L13.0269 13.4247C13.394 12.896 13.707 12.4614 13.7231 12.4614C13.7397 12.4614 13.7559 12.8896 13.7666 13.4057Z" fill="#1A1516"/>
<mask id="mask0_5_44" style="mask-type:luminance" maskUnits="userSpaceOnUse" x="13" y="4" width="9" height="16">
<path d="M13.5 4.125H21.9595V19.9526H13.5V4.125Z" fill="white"/>
</mask>
<g mask="url(#mask0_5_44)">
<path fill-rule="evenodd" clip-rule="evenodd" d="M19.7315 4.13087C19.7315 4.186 19.604 4.22025 19.6006 4.166C19.5996 4.15287 19.5938 4.1635 19.5869 4.19C19.5771 4.23 19.5669 4.23687 19.5176 4.23337C19.4721 4.2305 19.458 4.23725 19.4511 4.26662C19.4463 4.2895 19.4239 4.30862 19.3931 4.31587C19.3656 4.32225 19.335 4.33937 19.3253 4.3535C19.3018 4.38625 19.2353 4.38775 19.2188 4.356C19.2105 4.34037 19.2031 4.34812 19.1968 4.37987C19.1909 4.41062 19.1709 4.43262 19.1396 4.44387C19.1134 4.45312 19.0679 4.47462 19.039 4.49075C18.998 4.51462 18.9829 4.51612 18.9673 4.4975C18.9395 4.46537 18.921 4.46875 18.9326 4.505C18.9464 4.54637 18.9083 4.56987 18.8609 4.54875C18.8043 4.5235 18.792 4.52737 18.792 4.56875C18.792 4.62 18.7369 4.65287 18.6949 4.6265C18.667 4.60937 18.6621 4.61187 18.6621 4.645C18.6621 4.67575 18.6519 4.68362 18.6094 4.68362C18.5761 4.68362 18.5454 4.69775 18.5284 4.72112C18.4971 4.76412 18.436 4.771 18.4053 4.73587C18.3891 4.71675 18.3873 4.71875 18.3965 4.74712C18.4111 4.793 18.3755 4.81937 18.3179 4.80512C18.2846 4.79687 18.2734 4.80175 18.2734 4.82375C18.2734 4.88 18.1559 4.919 18.1381 4.86875C18.1338 4.8555 18.1294 4.86425 18.1289 4.88812C18.1275 4.94087 18.0855 4.96287 18.0444 4.93312C18.0034 4.90337 18.0039 4.90337 18.0106 4.97312C18.0156 5.02337 18.061 5.08887 18.2423 5.30662C18.5366 5.66062 18.8843 6.15775 19.0351 6.4395C19.0484 6.46437 19.0786 6.517 19.102 6.55662C19.1796 6.689 19.2969 6.90662 19.3379 6.99612C19.3599 7.04487 19.3965 7.123 19.4185 7.16987C19.5548 7.458 19.7344 7.90725 19.8243 8.1855C19.838 8.2275 19.8555 8.27875 19.8633 8.29925C19.8931 8.37887 19.9756 8.67875 20.041 8.94487C20.0585 9.01812 20.0801 9.10362 20.0879 9.13487C20.2416 9.73687 20.3241 10.5996 20.31 11.4599C20.2969 12.2739 20.2421 12.7436 20.065 13.5654C20.0375 13.6929 19.8575 14.333 19.8218 14.4306C19.81 14.4619 19.7876 14.5264 19.7715 14.5731C19.7011 14.7769 19.5136 15.2339 19.4331 15.3989C19.4024 15.4614 19.3579 15.5546 19.3344 15.606C19.2544 15.7787 19.061 16.125 18.8784 16.4222C18.3589 17.2671 17.5356 18.1304 16.6983 18.708C16.3868 18.9229 16.1758 19.0444 15.6845 19.292C15.6553 19.3066 15.6173 19.3189 15.5995 19.3189C15.582 19.3189 15.5674 19.3266 15.5674 19.3359C15.5674 19.3637 15.4698 19.3824 15.4493 19.3584C15.4229 19.3276 15.4058 19.333 15.4058 19.3725C15.4058 19.4155 15.3389 19.455 15.3066 19.4312C15.272 19.4052 15.2436 19.4101 15.2436 19.4425C15.2436 19.4863 15.1744 19.5171 15.1333 19.4913C15.085 19.4614 15.0654 19.4659 15.0654 19.5063C15.0654 19.5263 15.0538 19.5474 15.0395 19.5538C14.9985 19.5723 14.9033 19.5675 14.9033 19.5464C14.9033 19.5361 14.8965 19.5274 14.8886 19.5274C14.8804 19.5274 14.8774 19.544 14.8819 19.5635C14.8926 19.6109 14.8419 19.6299 14.75 19.6138C14.689 19.6035 14.6796 19.6065 14.6719 19.6406C14.666 19.6675 14.6489 19.6801 14.6171 19.6816C14.5596 19.6846 14.5689 19.685 14.478 19.6694C14.4083 19.6573 14.4009 19.6596 14.4009 19.6939C14.4009 19.749 14.2246 19.7856 14.1983 19.7364C14.1788 19.6992 14.0953 19.7134 14.104 19.7525C14.1153 19.8037 14.0435 19.8154 13.8145 19.8003C13.6275 19.7876 13.6235 19.7881 13.6235 19.8278C13.6235 19.9073 13.6685 19.9136 14.1006 19.8985L14.5225 19.8872C14.6406 19.9101 14.7574 19.9073 14.7574 19.8819C14.7574 19.8638 14.7793 19.8496 14.8184 19.8427C14.9966 19.8115 15.0298 19.8096 15.04 19.8296C15.0591 19.8658 15.1578 19.8545 15.1665 19.815C15.1783 19.7637 15.3574 19.7295 15.3814 19.7744C15.4009 19.8115 15.4683 19.7964 15.4589 19.7564C15.4493 19.7114 15.5326 19.687 15.6333 19.7056C15.6836 19.7154 15.6973 19.7114 15.6973 19.69C15.6973 19.6529 15.8238 19.6109 15.8481 19.6401C15.8769 19.6739 15.9239 19.6641 15.9239 19.6245C15.9239 19.6035 15.9389 19.584 15.9605 19.5776C16.0171 19.5596 16.086 19.5635 16.086 19.5845C16.086 19.5948 16.0928 19.6035 16.1006 19.6035C16.1089 19.6035 16.1119 19.5864 16.1074 19.5664C16.0971 19.522 16.1568 19.4976 16.2324 19.5151C16.2681 19.5235 16.2803 19.5195 16.2803 19.499C16.2803 19.4649 16.3471 19.4434 16.4019 19.4595C16.4346 19.4688 16.4424 19.4644 16.4424 19.4345C16.4424 19.3906 16.5323 19.3589 16.5611 19.3926C16.5874 19.4244 16.6045 19.418 16.6045 19.377C16.6045 19.331 16.6235 19.3164 16.685 19.3145C16.7109 19.3135 16.7369 19.3002 16.7418 19.2851C16.7485 19.2636 16.7666 19.2598 16.8155 19.269C16.8725 19.2798 16.8799 19.2769 16.8799 19.2431C16.8799 19.2036 16.9414 19.1729 16.9839 19.1919C16.9976 19.1981 17.0098 19.1865 17.0151 19.1626C17.0225 19.1294 17.0326 19.125 17.0815 19.1342C17.1319 19.144 17.1391 19.1406 17.1391 19.1065C17.1391 19.0722 17.146 19.0694 17.1958 19.0801C17.2466 19.0914 17.2525 19.0884 17.2525 19.0518C17.2525 19.0151 17.2588 19.0122 17.3081 19.023C17.3574 19.0337 17.3644 19.0302 17.3691 18.9917C17.3725 18.9624 17.3873 18.9463 17.4145 18.9419C17.437 18.9385 17.4614 18.9229 17.4688 18.9078C17.478 18.8881 17.4966 18.8833 17.5293 18.8921C17.5704 18.9024 17.5768 18.8984 17.5768 18.8623C17.5768 18.8256 17.583 18.8223 17.6309 18.8325C17.6793 18.8433 17.6846 18.8404 17.6831 18.8018C17.6821 18.7666 17.69 18.7592 17.7251 18.7622C17.7554 18.7641 17.7705 18.7544 17.7764 18.729C17.7813 18.7051 17.7984 18.6924 17.8248 18.6924C17.8466 18.6924 17.8686 18.6801 17.8735 18.6661C17.8838 18.6349 17.9746 18.5781 18.0148 18.5781C18.0303 18.5781 18.0464 18.5615 18.0513 18.5406C18.0563 18.5195 18.0733 18.5025 18.0899 18.5025C18.1065 18.5025 18.1289 18.4854 18.1401 18.4644C18.1514 18.4434 18.1704 18.4263 18.1826 18.4263C18.1949 18.4263 18.2144 18.4131 18.2256 18.3965C18.2373 18.3804 18.2603 18.3711 18.2764 18.376C18.2964 18.3823 18.3056 18.3745 18.3056 18.352C18.3056 18.3335 18.3223 18.3086 18.3423 18.2964C18.3623 18.2841 18.4004 18.2574 18.4273 18.2369C18.4541 18.2159 18.4864 18.1934 18.499 18.186C18.5177 18.1738 18.5349 18.1594 18.5503 18.1431C18.6171 18.0727 18.6338 18.0625 18.6636 18.0719C18.688 18.0791 18.6949 18.0713 18.6949 18.0356C18.6949 18.0103 18.7006 17.9897 18.7085 17.9897C18.7208 17.9897 18.7446 17.9693 18.8194 17.8955C18.8318 17.8842 18.8476 17.8773 18.8644 17.876C18.8779 17.876 18.8891 17.8632 18.8891 17.8476C18.8891 17.8315 18.9034 17.8189 18.9214 17.8189C18.9395 17.8189 18.9541 17.8091 18.9541 17.7964C18.9541 17.7661 19.0356 17.667 19.0605 17.667C19.0713 17.667 19.0845 17.6543 19.0893 17.6386C19.0948 17.623 19.1089 17.6104 19.1216 17.6104C19.1343 17.6104 19.1489 17.5976 19.1543 17.5816C19.1593 17.5659 19.1748 17.5533 19.1885 17.5533C19.2023 17.5533 19.2134 17.5405 19.2134 17.5249C19.2134 17.5092 19.2241 17.4966 19.2378 17.4966C19.2515 17.4966 19.2671 17.4834 19.272 17.4679C19.2774 17.4521 19.2989 17.4395 19.3199 17.4395C19.3453 17.4395 19.3549 17.4307 19.3496 17.414C19.3389 17.3804 19.3843 17.3374 19.4155 17.3511C19.4395 17.3619 19.4473 17.3433 19.4409 17.2895C19.4346 17.2378 19.6343 17.0254 19.7016 17.0118C19.7398 17.0044 19.7641 16.9887 19.7641 16.9726C19.7641 16.958 19.7749 16.9458 19.7886 16.9458C19.8051 16.9458 19.8125 16.9262 19.8125 16.8827C19.8125 16.8374 19.8266 16.8032 19.8609 16.7641C19.8871 16.7334 19.9091 16.7021 19.9096 16.6944C19.9096 16.6865 19.9229 16.6645 19.938 16.645C19.9536 16.626 19.9936 16.5747 20.0268 16.5312C20.06 16.4878 20.0981 16.4521 20.1118 16.4521C20.1275 16.4521 20.1368 16.435 20.1368 16.4047C20.1368 16.3789 20.144 16.3574 20.1529 16.3574C20.1616 16.3574 20.1694 16.3466 20.1699 16.3335C20.1709 16.291 20.2411 16.211 20.2905 16.1962C20.3174 16.1885 20.3301 16.1783 20.3189 16.1734C20.2949 16.1626 20.2915 16.1109 20.315 16.1109C20.3238 16.1109 20.331 16.0938 20.331 16.0728C20.331 16.0518 20.3384 16.0346 20.3476 16.0346C20.3569 16.0346 20.3711 16.0131 20.3799 15.9873C20.3891 15.9575 20.4078 15.94 20.4293 15.94C20.4546 15.94 20.4605 15.9313 20.4536 15.9043C20.4509 15.894 20.4508 15.8832 20.4533 15.8729C20.4559 15.8625 20.461 15.853 20.4683 15.8453C20.482 15.832 20.4933 15.8105 20.4933 15.7974C20.4933 15.7836 20.5034 15.7686 20.5156 15.7627C20.5284 15.7574 20.5551 15.7139 20.5753 15.666C20.5991 15.6104 20.623 15.5791 20.6421 15.5791C20.664 15.5791 20.6714 15.5645 20.6714 15.5225C20.6714 15.4908 20.6783 15.4654 20.6865 15.4654C20.6949 15.4654 20.704 15.4462 20.7065 15.4224C20.71 15.396 20.7251 15.3774 20.7465 15.374C20.7725 15.3696 20.7793 15.3584 20.773 15.3306C20.7691 15.3062 20.7744 15.2813 20.788 15.2606C20.8008 15.2426 20.8291 15.1831 20.8505 15.1284C20.8721 15.0738 20.895 15.0288 20.9018 15.0288C20.9088 15.0288 20.9145 15.0161 20.9145 15C20.9145 14.9844 20.9283 14.955 20.9453 14.9355C20.9624 14.915 20.979 14.8789 20.9819 14.8545C20.9859 14.8247 21 14.8081 21.0264 14.8038C21.0538 14.7994 21.0591 14.793 21.0444 14.7823C21.0156 14.7613 21.0371 14.668 21.0703 14.668C21.0889 14.668 21.0938 14.6563 21.0874 14.6284C21.082 14.604 21.0909 14.5752 21.1099 14.5527C21.1274 14.5327 21.1411 14.4961 21.1411 14.4712C21.1411 14.4462 21.1514 14.416 21.1636 14.4043C21.1758 14.3921 21.1904 14.3569 21.1958 14.3261C21.2026 14.2851 21.2144 14.2695 21.2388 14.2695C21.2685 14.2695 21.271 14.2617 21.2618 14.2016C21.2525 14.1435 21.2554 14.1329 21.2843 14.1241C21.312 14.1152 21.3164 14.1035 21.3086 14.0581C21.3023 14.0225 21.3076 13.9913 21.3233 13.9698C21.337 13.9523 21.3525 13.9053 21.3589 13.8663C21.3673 13.812 21.3775 13.795 21.4019 13.795C21.4288 13.795 21.4311 13.7886 21.4175 13.7583C21.3955 13.7109 21.4224 13.624 21.458 13.624C21.4785 13.624 21.4819 13.6119 21.4736 13.5674C21.459 13.4911 21.477 13.4341 21.5151 13.4341C21.5503 13.4341 21.5551 13.4145 21.5284 13.3829C21.5015 13.3511 21.5274 13.2416 21.5645 13.2304C21.5879 13.2231 21.5913 13.2149 21.5781 13.1958C21.5508 13.1573 21.5766 13.0327 21.6148 13.021C21.641 13.0127 21.6445 13.0005 21.6358 12.9458C21.6196 12.8458 21.6396 12.7641 21.6778 12.7759C21.7129 12.7866 21.7221 12.7173 21.69 12.6801C21.6621 12.6475 21.6875 12.521 21.7246 12.5098C21.7509 12.5015 21.7539 12.4873 21.7456 12.4091C21.7334 12.2871 21.751 12.1811 21.7838 12.1811C21.8028 12.1811 21.8063 12.1709 21.7974 12.1386C21.7656 12.0239 21.7969 11.7754 21.8413 11.7891C21.8711 11.7984 21.8725 11.7925 21.8623 11.7006C21.8369 11.4726 21.8555 11.1752 21.8955 11.1752C21.9155 11.1752 21.919 11.0702 21.919 10.4634C21.919 9.85837 21.9155 9.7515 21.896 9.7515C21.856 9.7515 21.8154 9.39062 21.852 9.36375C21.8873 9.33837 21.875 9.1465 21.8389 9.15725C21.7974 9.16987 21.7813 9.07375 21.7954 8.8975C21.8041 8.78275 21.8023 8.76812 21.7754 8.75975C21.7408 8.749 21.7129 8.58062 21.7408 8.54837C21.7685 8.51562 21.7593 8.46087 21.7261 8.46087C21.6885 8.46087 21.6601 8.31987 21.6904 8.28462C21.7203 8.24962 21.7119 8.19525 21.6763 8.19525C21.6373 8.19525 21.6196 8.127 21.6343 8.03375C21.6426 7.98187 21.6396 7.96725 21.6205 7.96725C21.5884 7.96725 21.5528 7.81937 21.5776 7.79C21.604 7.75925 21.5986 7.73975 21.5639 7.73975C21.5269 7.73975 21.5 7.63425 21.5284 7.601C21.5576 7.56687 21.5489 7.53375 21.5098 7.52725C21.4785 7.522 21.4736 7.51025 21.4746 7.44187C21.4756 7.38275 21.4693 7.36037 21.4488 7.35437C21.4175 7.34475 21.395 7.24612 21.418 7.21825C21.4419 7.19 21.4355 7.16987 21.4024 7.16987C21.3701 7.16987 21.352 7.13525 21.352 7.07237C21.3505 7.0476 21.3415 7.02387 21.3261 7.00437C21.3105 6.98637 21.3033 6.95312 21.3071 6.92137C21.3121 6.88287 21.3056 6.86675 21.2841 6.85987C21.2681 6.85487 21.2549 6.83487 21.2544 6.81587C21.2544 6.79687 21.2398 6.75537 21.2221 6.72412C21.2046 6.69287 21.19 6.64887 21.19 6.6265C21.1892 6.60248 21.18 6.5795 21.1641 6.5615C21.1479 6.54587 21.1411 6.5165 21.145 6.48287C21.1494 6.44825 21.1445 6.42975 21.1309 6.42975C21.1006 6.42975 21.0756 6.36675 21.0934 6.334C21.104 6.3135 21.0986 6.30375 21.0718 6.29587C21.0493 6.28962 21.0338 6.2685 21.0303 6.23925C21.0274 6.21337 21.0146 6.1855 21.002 6.17725C20.9893 6.169 20.979 6.141 20.979 6.11575C20.979 6.08987 20.9721 6.06887 20.9629 6.06887C20.9541 6.06887 20.9244 6.01362 20.897 5.94637C20.8701 5.87837 20.8413 5.81887 20.834 5.813C20.8261 5.80762 20.8238 5.78762 20.8281 5.768C20.8335 5.74362 20.8256 5.7295 20.8023 5.72212C20.7793 5.71537 20.7685 5.69675 20.7685 5.66262C20.7685 5.63575 20.7593 5.61325 20.7485 5.61275C20.7168 5.61137 20.6568 5.48775 20.6665 5.44387" fill="#1A1516"/>
</g>
</svg>
