<svg width="93" height="24" viewBox="0 0 93 24" fill="none" xmlns="http://www.w3.org/2000/svg">
<rect width="93" height="24" rx="12" fill="#273127"/>
<path d="M27.6284 8.02075H28.8357L33.1819 14.6973V8.02075H34.1365V16H32.9292L28.583 9.31226V16H27.6284V8.02075ZM38.1435 10.3455C38.413 10.3455 38.6545 10.3792 38.8679 10.4465C39.085 10.5102 39.2647 10.5925 39.4069 10.6936C39.5492 10.7947 39.6708 10.9276 39.7719 11.0923C39.8767 11.2533 39.9554 11.4105 40.0078 11.564C40.0639 11.7137 40.107 11.8953 40.1369 12.1086C40.1669 12.322 40.1856 12.5073 40.1931 12.6646C40.2006 12.8218 40.2043 13.0071 40.2043 13.2205V13.6584H36.3916C36.3916 13.8606 36.4365 14.0627 36.5263 14.2649C36.6199 14.4633 36.7491 14.6467 36.9138 14.8152C37.0822 14.9799 37.3012 15.1147 37.5708 15.2195C37.844 15.3243 38.1454 15.3767 38.4748 15.3767C38.8641 15.3767 39.2853 15.3093 39.7382 15.1746L39.9011 15.8035C39.2984 16.0094 38.7069 16.1123 38.1267 16.1123C37.7186 16.1123 37.3555 16.058 37.0373 15.9495C36.7229 15.8409 36.4683 15.7005 36.2736 15.5283C36.0827 15.3524 35.9255 15.1427 35.802 14.8994C35.6784 14.6561 35.5923 14.4146 35.5437 14.175C35.4987 13.9317 35.4763 13.6753 35.4763 13.4058C35.4763 12.9902 35.5268 12.6103 35.6279 12.2659C35.729 11.9215 35.8656 11.6332 36.0378 11.4011C36.21 11.1653 36.4103 10.9669 36.6386 10.8059C36.8707 10.6449 37.1122 10.5289 37.363 10.4578C37.6175 10.3829 37.8777 10.3455 38.1435 10.3455ZM37.947 11.1428C37.6175 11.1428 37.333 11.2345 37.0935 11.418C36.8576 11.5977 36.6854 11.8223 36.5769 12.0918C36.4683 12.3613 36.414 12.6514 36.414 12.9622H39.3115C39.3115 11.7493 38.8566 11.1428 37.947 11.1428ZM40.6962 10.4521H41.6789L43.1837 15.1072L44.61 10.4521H45.5141L46.9965 15.1016L48.5014 10.4521H49.484L47.4569 16H46.5304L45.0536 11.5022L43.5937 16H42.6671L40.6962 10.4521ZM52.6488 10.3455C52.9183 10.3455 53.1598 10.3792 53.3731 10.4465C53.5903 10.5102 53.77 10.5925 53.9122 10.6936C54.0545 10.7947 54.1761 10.9276 54.2772 11.0923C54.382 11.2533 54.4606 11.4105 54.513 11.564C54.5692 11.7137 54.6122 11.8953 54.6422 12.1086C54.6721 12.322 54.6909 12.5073 54.6983 12.6646C54.7058 12.8218 54.7096 13.0071 54.7096 13.2205V13.6584H50.8968C50.8968 13.8606 50.9417 14.0627 51.0316 14.2649C51.1252 14.4633 51.2543 14.6467 51.419 14.8152C51.5875 14.9799 51.8065 15.1147 52.076 15.2195C52.3493 15.3243 52.6507 15.3767 52.9801 15.3767C53.3694 15.3767 53.7905 15.3093 54.2435 15.1746L54.4063 15.8035C53.8036 16.0094 53.2122 16.1123 52.6319 16.1123C52.2239 16.1123 51.8608 16.058 51.5426 15.9495C51.2281 15.8409 50.9736 15.7005 50.7789 15.5283C50.588 15.3524 50.4308 15.1427 50.3072 14.8994C50.1837 14.6561 50.0976 14.4146 50.0489 14.175C50.004 13.9317 49.9815 13.6753 49.9815 13.4058C49.9815 12.9902 50.0321 12.6103 50.1332 12.2659C50.2342 11.9215 50.3709 11.6332 50.5431 11.4011C50.7153 11.1653 50.9155 10.9669 51.1439 10.8059C51.376 10.6449 51.6174 10.5289 51.8683 10.4578C52.1228 10.3829 52.383 10.3455 52.6488 10.3455ZM52.4522 11.1428C52.1228 11.1428 51.8383 11.2345 51.5987 11.418C51.3629 11.5977 51.1907 11.8223 51.0821 12.0918C50.9736 12.3613 50.9193 12.6514 50.9193 12.9622H53.8167C53.8167 11.7493 53.3619 11.1428 52.4522 11.1428ZM55.9876 7.51538H56.9085V16H55.9876V7.51538ZM58.5796 7.51538H59.5005V16H58.5796V7.51538ZM63.4458 10.3455C63.7153 10.3455 63.9567 10.3792 64.1701 10.4465C64.3872 10.5102 64.5669 10.5925 64.7092 10.6936C64.8514 10.7947 64.9731 10.9276 65.0742 11.0923C65.179 11.2533 65.2576 11.4105 65.31 11.564C65.3662 11.7137 65.4092 11.8953 65.4392 12.1086C65.4691 12.322 65.4878 12.5073 65.4953 12.6646C65.5028 12.8218 65.5065 13.0071 65.5065 13.2205V13.6584H61.6938C61.6938 13.8606 61.7387 14.0627 61.8286 14.2649C61.9222 14.4633 62.0513 14.6467 62.216 14.8152C62.3845 14.9799 62.6035 15.1147 62.873 15.2195C63.1463 15.3243 63.4476 15.3767 63.7771 15.3767C64.1664 15.3767 64.5875 15.3093 65.0405 15.1746L65.2033 15.8035C64.6006 16.0094 64.0091 16.1123 63.4289 16.1123C63.0209 16.1123 62.6577 16.058 62.3396 15.9495C62.0251 15.8409 61.7705 15.7005 61.5759 15.5283C61.385 15.3524 61.2277 15.1427 61.1042 14.8994C60.9807 14.6561 60.8946 14.4146 60.8459 14.175C60.801 13.9317 60.7785 13.6753 60.7785 13.4058C60.7785 12.9902 60.8291 12.6103 60.9301 12.2659C61.0312 11.9215 61.1678 11.6332 61.34 11.4011C61.5122 11.1653 61.7125 10.9669 61.9409 10.8059C62.173 10.6449 62.4144 10.5289 62.6652 10.4578C62.9198 10.3829 63.18 10.3455 63.4458 10.3455ZM63.2492 11.1428C62.9198 11.1428 62.6353 11.2345 62.3957 11.418C62.1599 11.5977 61.9877 11.8223 61.8791 12.0918C61.7705 12.3613 61.7163 12.6514 61.7163 12.9622H64.6137C64.6137 11.7493 64.1589 11.1428 63.2492 11.1428ZM69.8595 8.02075H70.8141V15.1633H74.3966V16H69.8595V8.02075ZM74.9502 8.02075H76.0396V9.08203H74.9502V8.02075ZM75.0345 10.4521H75.9554V16H75.0345V10.4521ZM80.3499 15.9045C79.807 16.0431 79.384 16.1123 79.0808 16.1123C78.7776 16.1123 78.5212 16.0636 78.3115 15.9663C78.1019 15.869 77.9428 15.7305 77.8342 15.5508C77.7257 15.3711 77.6471 15.1783 77.5984 14.9724C77.5535 14.7628 77.531 14.5232 77.531 14.2537V11.1765H76.7842V10.4521H77.531V8.86304H78.4519V10.4521H80.1421V11.1765H78.4519V14.2424C78.4519 15.0098 78.7551 15.3936 79.3616 15.3936C79.4701 15.3936 79.7565 15.3542 80.2207 15.2756L80.3499 15.9045ZM83.5708 10.3455C83.8403 10.3455 84.0817 10.3792 84.2951 10.4465C84.5122 10.5102 84.6919 10.5925 84.8342 10.6936C84.9764 10.7947 85.0981 10.9276 85.1992 11.0923C85.304 11.2533 85.3826 11.4105 85.435 11.564C85.4912 11.7137 85.5342 11.8953 85.5642 12.1086C85.5941 12.322 85.6128 12.5073 85.6203 12.6646C85.6278 12.8218 85.6315 13.0071 85.6315 13.2205V13.6584H81.8188C81.8188 13.8606 81.8637 14.0627 81.9536 14.2649C82.0472 14.4633 82.1763 14.6467 82.341 14.8152C82.5095 14.9799 82.7285 15.1147 82.998 15.2195C83.2713 15.3243 83.5726 15.3767 83.9021 15.3767C84.2914 15.3767 84.7125 15.3093 85.1655 15.1746L85.3283 15.8035C84.7256 16.0094 84.1341 16.1123 83.5539 16.1123C83.1459 16.1123 82.7827 16.058 82.4646 15.9495C82.1501 15.8409 81.8955 15.7005 81.7009 15.5283C81.51 15.3524 81.3527 15.1427 81.2292 14.8994C81.1057 14.6561 81.0196 14.4146 80.9709 14.175C80.926 13.9317 80.9035 13.6753 80.9035 13.4058C80.9035 12.9902 80.9541 12.6103 81.0551 12.2659C81.1562 11.9215 81.2928 11.6332 81.465 11.4011C81.6372 11.1653 81.8375 10.9669 82.0659 10.8059C82.298 10.6449 82.5394 10.5289 82.7902 10.4578C83.0448 10.3829 83.305 10.3455 83.5708 10.3455ZM83.3742 11.1428C83.0448 11.1428 82.7603 11.2345 82.5207 11.418C82.2849 11.5977 82.1127 11.8223 82.0041 12.0918C81.8955 12.3613 81.8413 12.6514 81.8413 12.9622H84.7387C84.7387 11.7493 84.2839 11.1428 83.3742 11.1428Z" fill="#C7FFC7"/>
<path fill-rule="evenodd" clip-rule="evenodd" d="M11.729 4.2759C9.31204 4.5309 7.18117 6.39265 6.25104 9.05715C5.96442 9.88577 5.96442 9.97515 6.25642 9.3379C6.89992 7.92877 7.77054 6.92777 8.94442 6.2329C9.87942 5.67827 10.7882 5.45515 11.8912 5.5064C12.7837 5.5444 13.4487 5.7359 14.2057 6.15677L14.7305 6.44977L15.4498 6.11815C15.8389 5.93365 16.1635 5.76127 16.1635 5.7359C16.1635 5.71052 15.9634 5.53815 15.7198 5.3599C14.5898 4.54352 13.0918 4.13577 11.729 4.2759Z" fill="#C7FFC7"/>
<path fill-rule="evenodd" clip-rule="evenodd" d="M17.2173 5.41598C16.8779 5.58061 16.5762 5.73286 16.544 5.74561C16.5165 5.75823 16.6675 5.96136 16.8833 6.20211C18.9785 8.49848 19.582 12.2344 18.3483 15.2856C17.4595 17.4869 15.9404 18.9326 13.8238 19.6114C13.495 19.7129 13.8018 19.6875 14.3515 19.561C17.3355 18.876 19.5982 16.1357 20.0992 12.5835C20.2119 11.7969 20.185 10.2871 20.0449 9.53223C19.7652 8.03561 19.1939 6.73536 18.2837 5.51711C18.106 5.28273 17.9337 5.09223 17.896 5.09861C17.8633 5.09861 17.5567 5.24461 17.2173 5.41611V5.41598Z" fill="#C7FFC7"/>
<path fill-rule="evenodd" clip-rule="evenodd" d="M15.5503 6.187C15.1831 6.36425 14.8863 6.52875 14.8863 6.54787C14.8863 6.57325 15.0161 6.69337 15.1724 6.81987C16.1176 7.5855 17.0083 9.022 17.3861 10.4082C17.7749 11.8066 17.7534 13.5532 17.3325 14.9199C16.6519 17.1537 15.1079 18.8184 13.1588 19.4321C12.6294 19.603 12.7808 19.6284 13.4341 19.4892C15.4804 19.0459 17.2295 17.5146 18.1421 15.3755C18.6284 14.2367 18.8281 13.2241 18.8335 11.9267C18.8335 10.25 18.4283 8.76275 17.6025 7.42725C17.2784 6.88975 16.3931 5.84525 16.2793 5.85787C16.2418 5.85787 15.9121 6.00975 15.5503 6.187Z" fill="#C7FFC7"/>
<path fill-rule="evenodd" clip-rule="evenodd" d="M10.8975 7.50048C10.8975 8.42961 10.9029 8.47361 11.0054 8.47361C11.103 8.47361 11.1138 8.42961 11.1138 8.07173C11.1138 7.84573 11.1407 7.64448 11.1734 7.61961C11.2652 7.55661 11.5034 7.78898 11.7037 8.14698C11.8389 8.39198 11.9204 8.47361 12.0177 8.47361H12.1529L12.0284 8.23486C11.9634 8.10936 11.8443 7.90236 11.7632 7.78273L11.6119 7.55661L11.7418 7.38723C11.9145 7.14848 11.9038 6.93498 11.7143 6.70898C11.5738 6.54586 11.5195 6.52686 11.2275 6.52686H10.8975V7.50048ZM11.5363 6.85348C11.5738 6.89748 11.6012 6.98536 11.6012 7.06048C11.6012 7.24898 11.498 7.34323 11.2924 7.34323C11.1192 7.34323 11.1138 7.33698 11.1138 7.06048C11.1138 6.78461 11.1192 6.77836 11.2925 6.77836C11.3897 6.77836 11.498 6.80961 11.5363 6.85348ZM12.7744 6.72611C12.3775 6.89598 12.1924 7.20411 12.1924 7.69486C12.1924 8.24861 12.5187 8.62011 13.0684 8.69523C13.3023 8.72698 13.3619 8.71436 13.4219 8.62011C13.5415 8.43111 13.5142 8.39348 13.2857 8.43748C12.981 8.49411 12.6002 8.28661 12.4864 8.00336C12.3663 7.71386 12.4209 7.36761 12.6275 7.12886C12.8722 6.84573 13.3238 6.88323 13.6445 7.21673C13.7588 7.34273 13.7588 7.34273 13.7969 7.21048C13.8404 7.04048 13.8023 6.97748 13.5577 6.83298C13.2695 6.65673 13.0137 6.62548 12.7744 6.72611ZM9.4244 6.88286C9.41365 6.92773 9.37553 7.30123 9.34328 7.70748C9.31645 8.04489 9.28586 8.382 9.25153 8.71873C9.22465 8.96336 9.23003 8.99561 9.32715 8.99561C9.4404 8.99561 9.5049 8.78948 9.5049 8.44811C9.5049 8.33198 9.55915 8.29348 9.84478 8.19686L10.1793 8.08098L10.3463 8.31298C10.4434 8.44823 10.562 8.54486 10.6324 8.54486C10.7022 8.54486 10.7457 8.51898 10.7349 8.48686C10.7237 8.44811 10.4703 8.06148 10.1632 7.61711C9.63965 6.85686 9.47815 6.69598 9.4244 6.88286ZM9.99028 7.84286C9.99028 7.86811 9.93115 7.90723 9.8609 7.92623C9.79103 7.94573 9.6939 7.98436 9.64503 8.00386C9.57528 8.03561 9.55915 7.99711 9.55915 7.82961C9.55915 7.70748 9.57528 7.53998 9.59665 7.45598C9.6289 7.29486 9.6289 7.29486 9.81253 7.54636C9.90965 7.68161 9.99028 7.81698 9.99028 7.84286ZM13.9547 7.96186C13.6265 8.77061 13.605 8.83986 13.6963 8.91561C13.7823 8.98536 13.8097 8.95361 13.9438 8.63136C14.0303 8.42923 14.1109 8.25886 14.1163 8.24611C14.127 8.23336 14.3154 8.32173 14.5415 8.44823L14.956 8.66948L14.7892 9.04823C14.6329 9.42136 14.6329 9.43361 14.7354 9.49698C14.832 9.55373 14.8589 9.51611 15.0474 9.07373C15.478 8.05661 15.5699 7.78461 15.4834 7.72161C15.3599 7.63323 15.3438 7.64598 15.2197 8.01223C15.1553 8.20798 15.0797 8.37886 15.0528 8.39748C14.9937 8.44186 14.251 7.99311 14.251 7.91748C14.251 7.87936 14.3154 7.70261 14.3907 7.52586C14.5039 7.26661 14.5147 7.19723 14.4552 7.15286C14.4175 7.12161 14.3692 7.09623 14.3477 7.09623C14.3262 7.09623 14.1484 7.48773 13.9547 7.96186ZM7.58103 7.80223C7.55378 7.89161 7.7119 9.89011 7.7554 9.94098C7.76615 9.95411 7.81503 9.92823 7.86428 9.87748C7.92928 9.81348 7.94578 9.72411 7.91853 9.49411L7.88578 9.19436L8.19578 8.99611L8.5064 8.79836L8.74565 8.99611C8.9469 9.16848 8.99565 9.18111 9.06103 9.11136C9.12103 9.03461 9.0284 8.92573 8.42978 8.36423C8.03815 8.00673 7.6954 7.71298 7.66803 7.71298C7.63578 7.71298 7.59765 7.75148 7.58103 7.80223ZM8.05478 8.36423C8.16903 8.47261 8.26665 8.58736 8.26665 8.61323C8.26665 8.69623 7.92915 8.87498 7.88578 8.81736C7.84228 8.76661 7.78228 8.15961 7.82028 8.15961C7.83153 8.15961 7.93465 8.24898 8.05478 8.36423ZM9.14603 10.7881C7.9434 11.8511 7.16165 13.4394 7.09665 14.9712C7.03765 16.294 7.46878 17.2305 8.3154 17.604C8.76315 17.7997 9.4209 17.7559 9.8199 17.5025C10.8443 16.8506 11.0977 15.2431 10.332 14.2431C10.084 13.9204 9.83065 13.731 9.53415 13.6485C9.24265 13.56 8.71978 13.604 8.43415 13.731C8.28328 13.794 8.15915 13.8447 8.15915 13.832C8.15915 13.7432 8.3804 13.2436 8.57415 12.8827C8.84915 12.3891 9.3129 11.832 9.70665 11.5156C9.84665 11.4019 9.97078 11.3066 9.98153 11.2944C9.99753 11.2817 9.50153 10.5094 9.47465 10.5094C9.46928 10.5094 9.3184 10.6362 9.14603 10.7881ZM9.3614 14.6485C10.0303 14.9775 10.1055 16.0722 9.5014 16.5976C9.1889 16.876 8.63915 16.8189 8.32078 16.4839C8.0459 16.186 7.93265 15.8384 7.95415 15.3194L7.97028 14.9077L8.26178 14.7305C8.59578 14.5346 9.06503 14.4966 9.3614 14.6485ZM12.708 12.688C11.3794 14.5835 11.1797 14.8921 11.1797 15.081V15.2949L12.4649 15.3076L13.7452 15.3266L13.7667 17.5932L14.1773 17.6122L14.582 17.6314L14.5928 16.479L14.609 15.3266L14.9224 15.3076L15.2299 15.2886V14.4199L14.9224 14.4009L14.6089 14.3819L14.5928 12.4424L14.582 10.5092H14.4038C14.2418 10.5092 14.1392 10.6416 12.708 12.688ZM13.7667 13.4057C13.7774 14.1616 13.7667 14.357 13.707 14.3819C13.6642 14.4009 13.3453 14.4072 12.9995 14.4009L12.3677 14.3819L13.0269 13.4247C13.394 12.896 13.707 12.4614 13.7232 12.4614C13.7398 12.4614 13.7559 12.8896 13.7667 13.4057Z" fill="#C7FFC7"/>
<mask id="mask0_5_79" style="mask-type:luminance" maskUnits="userSpaceOnUse" x="13" y="4" width="9" height="16">
<path d="M13.5 4.125H21.9595V19.9526H13.5V4.125Z" fill="white"/>
</mask>
<g mask="url(#mask0_5_79)">
<path fill-rule="evenodd" clip-rule="evenodd" d="M19.7315 4.13089C19.7315 4.18601 19.604 4.22026 19.6006 4.16601C19.5996 4.15289 19.5937 4.16351 19.5868 4.19001C19.5771 4.23001 19.5668 4.23689 19.5176 4.23339C19.4721 4.23051 19.458 4.23726 19.4511 4.26664C19.4462 4.28951 19.4238 4.30864 19.3931 4.31589C19.3656 4.32226 19.335 4.33939 19.3252 4.35351C19.3017 4.38626 19.2352 4.38776 19.2187 4.35601C19.2105 4.34039 19.2031 4.34814 19.1967 4.37989C19.1908 4.41064 19.1708 4.43264 19.1396 4.44389C19.1133 4.45314 19.0678 4.47464 19.039 4.49076C18.998 4.51464 18.9828 4.51614 18.9672 4.49751C18.9395 4.46539 18.921 4.46876 18.9326 4.50501C18.9463 4.54639 18.9082 4.56989 18.8608 4.54876C18.8042 4.52351 18.792 4.52739 18.792 4.56876C18.792 4.62001 18.7368 4.65289 18.6948 4.62651C18.667 4.60939 18.6621 4.61189 18.6621 4.64501C18.6621 4.67576 18.6518 4.68364 18.6093 4.68364C18.5761 4.68364 18.5453 4.69776 18.5283 4.72114C18.4971 4.76414 18.436 4.77101 18.4052 4.73589C18.3891 4.71676 18.3872 4.71876 18.3965 4.74714C18.4111 4.79301 18.3755 4.81939 18.3178 4.80514C18.2846 4.79689 18.2733 4.80176 18.2733 4.82376C18.2733 4.88001 18.1558 4.91901 18.1381 4.86876C18.1337 4.85551 18.1293 4.86426 18.1288 4.88814C18.1275 4.94089 18.0855 4.96289 18.0443 4.93314C18.0033 4.90339 18.0038 4.90339 18.0106 4.97314C18.0156 5.02339 18.061 5.08889 18.2422 5.30664C18.5366 5.66064 18.8842 6.15776 19.0351 6.43951C19.0483 6.46439 19.0786 6.51701 19.102 6.55664C19.1796 6.68901 19.2968 6.90664 19.3378 6.99614C19.3598 7.04489 19.3965 7.12301 19.4185 7.16989C19.5547 7.45801 19.7343 7.90726 19.8242 8.18551C19.838 8.22751 19.8555 8.27876 19.8632 8.29926C19.8931 8.37889 19.9756 8.67876 20.041 8.94489C20.0585 9.01814 20.0801 9.10364 20.0878 9.13489C20.2416 9.73689 20.3241 10.5996 20.31 11.4599C20.2968 12.2739 20.2421 12.7436 20.065 13.5654C20.0375 13.6929 19.8575 14.333 19.8217 14.4306C19.81 14.4619 19.7876 14.5264 19.7715 14.5731C19.7011 14.7769 19.5136 15.2339 19.4331 15.3989C19.4023 15.4614 19.3578 15.5546 19.3343 15.606C19.2543 15.7788 19.061 16.125 18.8783 16.4223C18.3588 17.2671 17.5356 18.1304 16.6982 18.708C16.3867 18.9229 16.1757 19.0444 15.6845 19.292C15.6552 19.3066 15.6172 19.3189 15.5995 19.3189C15.582 19.3189 15.5673 19.3266 15.5673 19.3359C15.5673 19.3638 15.4697 19.3824 15.4492 19.3584C15.4228 19.3276 15.4057 19.333 15.4057 19.3725C15.4057 19.4155 15.3388 19.455 15.3066 19.4313C15.272 19.4053 15.2436 19.4101 15.2436 19.4425C15.2436 19.4863 15.1743 19.5171 15.1332 19.4913C15.085 19.4614 15.0653 19.4659 15.0653 19.5063C15.0653 19.5263 15.0537 19.5474 15.0395 19.5538C14.9985 19.5723 14.9032 19.5675 14.9032 19.5464C14.9032 19.5361 14.8965 19.5274 14.8886 19.5274C14.8803 19.5274 14.8773 19.544 14.8818 19.5635C14.8926 19.6109 14.8418 19.6299 14.75 19.6138C14.689 19.6035 14.6796 19.6065 14.6718 19.6406C14.666 19.6675 14.6488 19.6801 14.6171 19.6816C14.5596 19.6846 14.5688 19.685 14.478 19.6694C14.4082 19.6573 14.4008 19.6596 14.4008 19.6939C14.4008 19.749 14.2246 19.7856 14.1982 19.7364C14.1787 19.6993 14.0952 19.7134 14.104 19.7525C14.1152 19.8038 14.0435 19.8154 13.8145 19.8003C13.6275 19.7876 13.6235 19.7881 13.6235 19.8278C13.6235 19.9073 13.6685 19.9136 14.1006 19.8985L14.5225 19.8873C14.6406 19.9101 14.7573 19.9073 14.7573 19.8819C14.7573 19.8638 14.7792 19.8496 14.8183 19.8428C14.9966 19.8115 15.0297 19.8096 15.04 19.8296C15.0591 19.8658 15.1577 19.8545 15.1665 19.815C15.1782 19.7638 15.3573 19.7295 15.3813 19.7744C15.4008 19.8115 15.4682 19.7964 15.4588 19.7564C15.4492 19.7114 15.5326 19.687 15.6332 19.7056C15.6836 19.7154 15.6972 19.7114 15.6972 19.69C15.6972 19.6529 15.8237 19.6109 15.8481 19.6401C15.8768 19.6739 15.9238 19.6641 15.9238 19.6245C15.9238 19.6035 15.9388 19.584 15.9605 19.5776C16.0171 19.5596 16.086 19.5635 16.086 19.5845C16.086 19.5948 16.0927 19.6035 16.1006 19.6035C16.1088 19.6035 16.1118 19.5864 16.1073 19.5664C16.0971 19.522 16.1567 19.4976 16.2323 19.5151C16.2681 19.5235 16.2802 19.5195 16.2802 19.499C16.2802 19.4649 16.3471 19.4434 16.4018 19.4595C16.4346 19.4688 16.4423 19.4644 16.4423 19.4345C16.4423 19.3906 16.5322 19.3589 16.5611 19.3926C16.5873 19.4244 16.6045 19.418 16.6045 19.377C16.6045 19.331 16.6235 19.3164 16.685 19.3145C16.7108 19.3135 16.7368 19.3003 16.7417 19.2851C16.7485 19.2636 16.7666 19.2598 16.8155 19.269C16.8725 19.2798 16.8798 19.2769 16.8798 19.2431C16.8798 19.2036 16.9413 19.1729 16.9838 19.1919C16.9976 19.1981 17.0097 19.1865 17.0151 19.1626C17.0225 19.1294 17.0326 19.125 17.0815 19.1343C17.1318 19.144 17.1391 19.1406 17.1391 19.1065C17.1391 19.0723 17.146 19.0694 17.1957 19.0801C17.2466 19.0914 17.2525 19.0884 17.2525 19.0518C17.2525 19.0151 17.2587 19.0123 17.3081 19.023C17.3573 19.0338 17.3643 19.0303 17.3691 18.9918C17.3725 18.9624 17.3872 18.9463 17.4145 18.9419C17.437 18.9385 17.4613 18.9229 17.4687 18.9078C17.478 18.8881 17.4966 18.8833 17.5292 18.8921C17.5703 18.9024 17.5767 18.8984 17.5767 18.8623C17.5767 18.8256 17.583 18.8223 17.6308 18.8325C17.6792 18.8433 17.6846 18.8404 17.6831 18.8018C17.6821 18.7666 17.69 18.7593 17.7251 18.7623C17.7553 18.7641 17.7705 18.7544 17.7763 18.729C17.7812 18.7051 17.7983 18.6924 17.8247 18.6924C17.8466 18.6924 17.8686 18.6801 17.8735 18.6661C17.8837 18.6349 17.9746 18.5781 18.0147 18.5781C18.0302 18.5781 18.0463 18.5615 18.0512 18.5406C18.0562 18.5195 18.0732 18.5025 18.0898 18.5025C18.1065 18.5025 18.1288 18.4854 18.1401 18.4644C18.1513 18.4434 18.1703 18.4263 18.1826 18.4263C18.1948 18.4263 18.2143 18.4131 18.2256 18.3965C18.2372 18.3804 18.2602 18.3711 18.2763 18.376C18.2963 18.3823 18.3056 18.3745 18.3056 18.352C18.3056 18.3335 18.3222 18.3086 18.3422 18.2964C18.3622 18.2841 18.4003 18.2574 18.4272 18.2369C18.4541 18.2159 18.4863 18.1934 18.499 18.186C18.5177 18.1738 18.5349 18.1594 18.5502 18.1431C18.6171 18.0728 18.6337 18.0625 18.6636 18.0719C18.688 18.0791 18.6948 18.0713 18.6948 18.0356C18.6948 18.0103 18.7006 17.9898 18.7085 17.9898C18.7207 17.9898 18.7446 17.9693 18.8193 17.8955C18.8318 17.8842 18.8476 17.8774 18.8643 17.876C18.8778 17.876 18.8891 17.8633 18.8891 17.8476C18.8891 17.8315 18.9033 17.8189 18.9213 17.8189C18.9395 17.8189 18.9541 17.8091 18.9541 17.7964C18.9541 17.7661 19.0356 17.667 19.0605 17.667C19.0712 17.667 19.0845 17.6543 19.0892 17.6386C19.0947 17.623 19.1088 17.6104 19.1216 17.6104C19.1342 17.6104 19.1488 17.5976 19.1542 17.5816C19.1592 17.5659 19.1747 17.5533 19.1885 17.5533C19.2022 17.5533 19.2133 17.5405 19.2133 17.5249C19.2133 17.5093 19.2241 17.4966 19.2377 17.4966C19.2515 17.4966 19.2671 17.4834 19.272 17.4679C19.2773 17.4521 19.2988 17.4395 19.3198 17.4395C19.3452 17.4395 19.3548 17.4308 19.3496 17.414C19.3388 17.3804 19.3842 17.3374 19.4155 17.3511C19.4395 17.3619 19.4472 17.3433 19.4408 17.2895C19.4346 17.2378 19.6342 17.0254 19.7016 17.0118C19.7397 17.0044 19.7641 16.9888 19.7641 16.9726C19.7641 16.958 19.7748 16.9458 19.7886 16.9458C19.8051 16.9458 19.8125 16.9263 19.8125 16.8828C19.8125 16.8374 19.8266 16.8033 19.8608 16.7641C19.8871 16.7334 19.9091 16.7021 19.9096 16.6944C19.9096 16.6865 19.9228 16.6645 19.938 16.645C19.9536 16.626 19.9936 16.5748 20.0267 16.5313C20.06 16.4878 20.0981 16.4521 20.1117 16.4521C20.1275 16.4521 20.1367 16.435 20.1367 16.4048C20.1367 16.3789 20.144 16.3574 20.1528 16.3574C20.1616 16.3574 20.1693 16.3466 20.1698 16.3335C20.1708 16.291 20.2411 16.211 20.2905 16.1963C20.3173 16.1885 20.3301 16.1783 20.3188 16.1734C20.2948 16.1626 20.2915 16.1109 20.315 16.1109C20.3237 16.1109 20.331 16.0938 20.331 16.0728C20.331 16.0518 20.3383 16.0346 20.3476 16.0346C20.3568 16.0346 20.3711 16.0131 20.3798 15.9873C20.3891 15.9575 20.4077 15.94 20.4292 15.94C20.4546 15.94 20.4605 15.9313 20.4536 15.9043C20.4509 15.894 20.4508 15.8832 20.4533 15.8729C20.4559 15.8626 20.461 15.8531 20.4682 15.8453C20.482 15.832 20.4932 15.8105 20.4932 15.7974C20.4932 15.7836 20.5033 15.7686 20.5156 15.7628C20.5283 15.7574 20.5551 15.7139 20.5752 15.666C20.5991 15.6104 20.623 15.5791 20.6421 15.5791C20.664 15.5791 20.6713 15.5645 20.6713 15.5225C20.6713 15.4908 20.6782 15.4654 20.6865 15.4654C20.6948 15.4654 20.704 15.4463 20.7065 15.4224C20.71 15.396 20.7251 15.3774 20.7465 15.374C20.7725 15.3696 20.7792 15.3584 20.773 15.3306C20.7691 15.3063 20.7744 15.2813 20.788 15.2606C20.8007 15.2426 20.8291 15.1831 20.8505 15.1284C20.8721 15.0738 20.895 15.0288 20.9017 15.0288C20.9087 15.0288 20.9145 15.0161 20.9145 15C20.9145 14.9844 20.9282 14.955 20.9452 14.9355C20.9623 14.915 20.979 14.8789 20.9818 14.8545C20.9858 14.8248 21 14.8081 21.0263 14.8038C21.0537 14.7994 21.0591 14.793 21.0443 14.7823C21.0156 14.7613 21.0371 14.668 21.0702 14.668C21.0888 14.668 21.0937 14.6563 21.0873 14.6284C21.082 14.604 21.0908 14.5753 21.1098 14.5528C21.1273 14.5328 21.1411 14.4961 21.1411 14.4713C21.1411 14.4463 21.1513 14.416 21.1636 14.4043C21.1757 14.3921 21.1903 14.3569 21.1957 14.3261C21.2026 14.2851 21.2143 14.2695 21.2387 14.2695C21.2685 14.2695 21.271 14.2618 21.2617 14.2016C21.2525 14.1435 21.2553 14.1329 21.2842 14.1241C21.312 14.1153 21.3163 14.1035 21.3086 14.0581C21.3022 14.0225 21.3076 13.9913 21.3232 13.9698C21.337 13.9523 21.3525 13.9053 21.3588 13.8663C21.3672 13.812 21.3775 13.795 21.4018 13.795C21.4287 13.795 21.4311 13.7886 21.4175 13.7583C21.3955 13.7109 21.4223 13.624 21.458 13.624C21.4785 13.624 21.4818 13.6119 21.4736 13.5674C21.459 13.4911 21.477 13.4341 21.5151 13.4341C21.5502 13.4341 21.5551 13.4145 21.5283 13.3829C21.5015 13.3511 21.5273 13.2416 21.5645 13.2304C21.5878 13.2231 21.5912 13.2149 21.5781 13.1958C21.5507 13.1573 21.5766 13.0328 21.6147 13.021C21.641 13.0128 21.6445 13.0005 21.6357 12.9458C21.6196 12.8458 21.6396 12.7641 21.6777 12.7759C21.7128 12.7866 21.7221 12.7173 21.69 12.6801C21.6621 12.6475 21.6875 12.521 21.7246 12.5098C21.7508 12.5015 21.7538 12.4873 21.7456 12.4091C21.7333 12.2871 21.751 12.1811 21.7837 12.1811C21.8027 12.1811 21.8062 12.1709 21.7973 12.1386C21.7656 12.0239 21.7968 11.7754 21.8412 11.7891C21.8711 11.7984 21.8725 11.7925 21.8622 11.7006C21.8368 11.4726 21.8555 11.1753 21.8955 11.1753C21.9155 11.1753 21.919 11.0703 21.919 10.4634C21.919 9.85839 21.9155 9.75151 21.896 9.75151C21.856 9.75151 21.8153 9.39064 21.852 9.36376C21.8872 9.33839 21.875 9.14651 21.8388 9.15726C21.7973 9.16989 21.7812 9.07376 21.7953 8.89751C21.8041 8.78276 21.8022 8.76814 21.7753 8.75976C21.7407 8.74901 21.7128 8.58064 21.7407 8.54839C21.7685 8.51564 21.7592 8.46089 21.7261 8.46089C21.6885 8.46089 21.6601 8.31989 21.6903 8.28464C21.7202 8.24964 21.7118 8.19526 21.6762 8.19526C21.6372 8.19526 21.6196 8.12701 21.6342 8.03376C21.6426 7.98189 21.6396 7.96726 21.6205 7.96726C21.5883 7.96726 21.5527 7.81939 21.5776 7.79001C21.604 7.75926 21.5986 7.73976 21.5638 7.73976C21.5268 7.73976 21.5 7.63426 21.5283 7.60101C21.5576 7.56689 21.5488 7.53376 21.5097 7.52726C21.4785 7.52201 21.4736 7.51026 21.4746 7.44189C21.4756 7.38276 21.4692 7.36039 21.4487 7.35439C21.4175 7.34476 21.395 7.24614 21.418 7.21826C21.4418 7.19001 21.4355 7.16989 21.4023 7.16989C21.3701 7.16989 21.352 7.13526 21.352 7.07239C21.3505 7.04761 21.3415 7.02389 21.3261 7.00439C21.3105 6.98639 21.3032 6.95314 21.3071 6.92139C21.3121 6.88289 21.3056 6.86676 21.2841 6.85989C21.2681 6.85489 21.2548 6.83489 21.2543 6.81589C21.2543 6.79689 21.2397 6.75539 21.2221 6.72414C21.2046 6.69289 21.19 6.64889 21.19 6.62651C21.1892 6.6025 21.18 6.57952 21.1641 6.56151C21.1478 6.54589 21.1411 6.51651 21.145 6.48289C21.1493 6.44826 21.1445 6.42976 21.1308 6.42976C21.1006 6.42976 21.0756 6.36676 21.0933 6.33401C21.104 6.31351 21.0986 6.30376 21.0717 6.29589C21.0492 6.28964 21.0337 6.26851 21.0302 6.23926C21.0273 6.21339 21.0146 6.18551 21.002 6.17726C20.9892 6.16901 20.979 6.14101 20.979 6.11576C20.979 6.08989 20.9721 6.06889 20.9628 6.06889C20.9541 6.06889 20.9243 6.01364 20.897 5.94639C20.8701 5.87839 20.8412 5.81889 20.834 5.81301C20.8261 5.80764 20.8237 5.78764 20.8281 5.76801C20.8335 5.74364 20.8256 5.72951 20.8022 5.72214C20.7792 5.71539 20.7685 5.69676 20.7685 5.66264C20.7685 5.63576 20.7592 5.61326 20.7485 5.61276C20.7167 5.61139 20.6567 5.48776 20.6665 5.44389" fill="#C7FFC7"/>
</g>
</svg>
