<svg width="56" height="24" viewBox="0 0 56 24" fill="none" xmlns="http://www.w3.org/2000/svg">
<rect width="56" height="24" rx="12" fill="#55523D"/>
<path d="M28.583 8.75073V11.4292C28.6541 11.4255 28.7777 11.4236 28.9536 11.4236C29.1296 11.4198 29.2662 11.418 29.3635 11.418C29.4609 11.4142 29.5975 11.4067 29.7734 11.3955C29.9494 11.3805 30.0898 11.3656 30.1946 11.3506C30.3031 11.3319 30.4323 11.3057 30.582 11.272C30.7355 11.2345 30.859 11.1934 30.9526 11.1484C31.05 11.0998 31.151 11.0399 31.2559 10.9688C31.3644 10.8939 31.4486 10.8115 31.5085 10.7217C31.5684 10.6318 31.6171 10.5251 31.6545 10.4016C31.6957 10.2743 31.7163 10.1358 31.7163 9.98608C31.7163 9.87378 31.7051 9.76709 31.6826 9.66602C31.6602 9.56494 31.6134 9.45638 31.5422 9.34033C31.4711 9.22428 31.3794 9.12508 31.2671 9.04272C31.1548 8.96037 30.9994 8.89111 30.801 8.83496C30.6064 8.77881 30.3799 8.75073 30.1216 8.75073H28.583ZM28.583 12.1704V15.1577H30.071C30.2058 15.1577 30.3181 15.1577 30.408 15.1577C30.5015 15.154 30.6344 15.1427 30.8066 15.124C30.9788 15.1016 31.1248 15.0735 31.2446 15.0398C31.3682 15.0024 31.5048 14.9481 31.6545 14.877C31.8043 14.8021 31.9241 14.7141 32.0139 14.613C32.1075 14.512 32.1861 14.3828 32.2498 14.2256C32.3134 14.0646 32.3452 13.8831 32.3452 13.6809C32.3452 13.183 32.1524 12.7937 31.7668 12.5129C31.3813 12.2322 30.8628 12.0918 30.2114 12.0918C30.1403 12.0918 29.5975 12.118 28.583 12.1704ZM27.6284 8.02075H30.4417C30.7149 8.02075 30.9639 8.0507 31.1885 8.1106C31.4168 8.16675 31.604 8.23975 31.75 8.32959C31.8997 8.41943 32.0308 8.52612 32.1431 8.64966C32.2591 8.77319 32.3471 8.89299 32.407 9.00903C32.4669 9.12508 32.5155 9.24862 32.553 9.37964C32.5904 9.51066 32.6129 9.61922 32.6204 9.70532C32.6316 9.78768 32.6372 9.86629 32.6372 9.94116C32.6372 10.2668 32.5268 10.5925 32.3059 10.9182C32.085 11.2402 31.8511 11.4479 31.604 11.5415C32.0981 11.6313 32.5024 11.8709 32.8169 12.2603C33.1351 12.6458 33.2942 13.0857 33.2942 13.5798C33.2942 13.6959 33.283 13.8175 33.2605 13.9448C33.2418 14.0721 33.2025 14.2162 33.1426 14.3772C33.0827 14.5382 33.0059 14.6917 32.9124 14.8376C32.8188 14.9836 32.6915 15.1296 32.5305 15.2756C32.3695 15.4179 32.1842 15.5414 31.9746 15.6462C31.7687 15.7511 31.5142 15.8372 31.2109 15.9045C30.9115 15.9682 30.582 16 30.2227 16H27.6284V8.02075ZM36.8183 10.3455C37.0878 10.3455 37.3293 10.3792 37.5427 10.4465C37.7598 10.5102 37.9395 10.5925 38.0817 10.6936C38.224 10.7947 38.3457 10.9276 38.4467 11.0923C38.5515 11.2533 38.6302 11.4105 38.6826 11.564C38.7387 11.7137 38.7818 11.8953 38.8117 12.1086C38.8417 12.322 38.8604 12.5073 38.8679 12.6646C38.8754 12.8218 38.8791 13.0071 38.8791 13.2205V13.6584H35.0664C35.0664 13.8606 35.1113 14.0627 35.2011 14.2649C35.2947 14.4633 35.4239 14.6467 35.5886 14.8152C35.757 14.9799 35.976 15.1147 36.2456 15.2195C36.5188 15.3243 36.8202 15.3767 37.1496 15.3767C37.5389 15.3767 37.9601 15.3093 38.413 15.1746L38.5759 15.8035C37.9732 16.0094 37.3817 16.1123 36.8015 16.1123C36.3934 16.1123 36.0303 16.058 35.7121 15.9495C35.3977 15.8409 35.1431 15.7005 34.9484 15.5283C34.7575 15.3524 34.6003 15.1427 34.4768 14.8994C34.3532 14.6561 34.2671 14.4146 34.2185 14.175C34.1735 13.9317 34.1511 13.6753 34.1511 13.4058C34.1511 12.9902 34.2016 12.6103 34.3027 12.2659C34.4038 11.9215 34.5404 11.6332 34.7126 11.4011C34.8848 11.1653 35.0851 10.9669 35.3134 10.8059C35.5455 10.6449 35.787 10.5289 36.0378 10.4578C36.2924 10.3829 36.5525 10.3455 36.8183 10.3455ZM36.6218 11.1428C36.2924 11.1428 36.0078 11.2345 35.7683 11.418C35.5324 11.5977 35.3602 11.8223 35.2517 12.0918C35.1431 12.3613 35.0888 12.6514 35.0888 12.9622H37.9863C37.9863 11.7493 37.5314 11.1428 36.6218 11.1428ZM42.9928 15.9045C42.45 16.0431 42.027 16.1123 41.7238 16.1123C41.4206 16.1123 41.1641 16.0636 40.9545 15.9663C40.7449 15.869 40.5858 15.7305 40.4772 15.5508C40.3686 15.3711 40.29 15.1783 40.2414 14.9724C40.1964 14.7628 40.174 14.5232 40.174 14.2537V11.1765H39.4271V10.4521H40.174V8.86304H41.0949V10.4521H42.7851V11.1765H41.0949V14.2424C41.0949 15.0098 41.3981 15.3936 42.0045 15.3936C42.1131 15.3936 42.3995 15.3542 42.8637 15.2756L42.9928 15.9045ZM45.6634 10.3455C46.0752 10.3455 46.4234 10.3941 46.7079 10.4915C46.9961 10.585 47.217 10.7236 47.3705 10.907C47.5277 11.0904 47.64 11.2944 47.7074 11.519C47.7748 11.7437 47.8084 12.002 47.8084 12.2939V16H47.1571L46.9437 15.4946C46.4907 15.9064 45.9704 16.1123 45.3827 16.1123C44.8586 16.1123 44.415 15.9551 44.0519 15.6406C43.6887 15.3224 43.5072 14.9518 43.5072 14.5288C43.5072 14.3042 43.5484 14.1021 43.6307 13.9224C43.7131 13.7427 43.831 13.5929 43.9845 13.4731C44.1417 13.3534 44.3195 13.2523 44.5179 13.1699C44.7163 13.0838 44.9465 13.0183 45.2086 12.9734C45.4744 12.9285 45.7402 12.8966 46.006 12.8779C46.2717 12.8592 46.5637 12.8499 46.8819 12.8499V12.4119C46.8819 12.2846 46.8763 12.1742 46.8651 12.0806C46.8576 11.987 46.8277 11.8747 46.7752 11.7437C46.7228 11.6126 46.6517 11.5059 46.5619 11.4236C46.472 11.3375 46.3373 11.2645 46.1576 11.2046C45.9779 11.141 45.7645 11.1091 45.5174 11.1091C45.1356 11.1091 44.6415 11.1934 44.035 11.3618L43.8609 10.688C44.4749 10.4596 45.0757 10.3455 45.6634 10.3455ZM46.8819 13.5461H46.5394C46.326 13.5461 46.1407 13.5499 45.9835 13.5574C45.8263 13.5649 45.641 13.5873 45.4276 13.6248C45.218 13.6584 45.0458 13.7071 44.911 13.7708C44.7762 13.8344 44.6602 13.928 44.5628 14.0515C44.4693 14.1713 44.4225 14.3154 44.4225 14.4839C44.4225 14.7197 44.5404 14.9294 44.7762 15.1128C45.0158 15.2962 45.3003 15.3879 45.6297 15.3879C46.1126 15.3879 46.53 15.1989 46.8819 14.8208V13.5461Z" fill="#F8E45C"/>
<path d="M14 5C10.1445 5 7 8.14453 7 12C7 15.8555 10.1445 19 14 19C17.8555 19 21 15.8555 21 12C21 8.14453 17.8555 5 14 5ZM14 6.69873C16.9395 6.69873 19.3013 9.06055 19.3013 12C19.3013 14.9395 16.9395 17.3013 14 17.3013C11.0605 17.3013 8.69873 14.9395 8.69873 12C8.69873 9.06055 11.0605 6.69873 14 6.69873Z" fill="#F8E45C"/>
<path d="M18.375 12C18.375 14.4165 16.4165 16.375 14 16.375V12H18.375Z" fill="#F8E45C"/>
<path d="M9.625 12C9.625 9.5835 11.5835 7.625 14 7.625V12H9.625Z" fill="#F8E45C"/>
</svg>
