<svg width="68" height="24" viewBox="0 0 68 24" fill="none" xmlns="http://www.w3.org/2000/svg">
<rect width="68" height="24" rx="12" fill="#E0E0E0"/>
<path d="M28.583 8.75073V11.4292C28.6541 11.4255 28.7777 11.4236 28.9536 11.4236C29.1296 11.4198 29.2662 11.418 29.3635 11.418C29.4609 11.4142 29.5975 11.4067 29.7734 11.3955C29.9494 11.3805 30.0898 11.3656 30.1946 11.3506C30.3031 11.3319 30.4323 11.3057 30.582 11.272C30.7355 11.2345 30.859 11.1934 30.9526 11.1484C31.05 11.0998 31.151 11.0399 31.2559 10.9688C31.3644 10.8939 31.4486 10.8115 31.5085 10.7217C31.5684 10.6318 31.6171 10.5251 31.6545 10.4016C31.6957 10.2743 31.7163 10.1358 31.7163 9.98608C31.7163 9.87378 31.7051 9.76709 31.6826 9.66602C31.6602 9.56494 31.6134 9.45638 31.5422 9.34033C31.4711 9.22428 31.3794 9.12508 31.2671 9.04272C31.1548 8.96037 30.9994 8.89111 30.801 8.83496C30.6064 8.77881 30.3799 8.75073 30.1216 8.75073H28.583ZM28.583 12.1704V15.1577H30.071C30.2058 15.1577 30.3181 15.1577 30.408 15.1577C30.5015 15.154 30.6344 15.1427 30.8066 15.124C30.9788 15.1016 31.1248 15.0735 31.2446 15.0398C31.3682 15.0024 31.5048 14.9481 31.6545 14.877C31.8043 14.8021 31.9241 14.7141 32.0139 14.613C32.1075 14.512 32.1861 14.3828 32.2498 14.2256C32.3134 14.0646 32.3452 13.8831 32.3452 13.6809C32.3452 13.183 32.1524 12.7937 31.7668 12.5129C31.3813 12.2322 30.8628 12.0918 30.2114 12.0918C30.1403 12.0918 29.5975 12.118 28.583 12.1704ZM27.6284 8.02075H30.4417C30.7149 8.02075 30.9639 8.0507 31.1885 8.1106C31.4168 8.16675 31.604 8.23975 31.75 8.32959C31.8997 8.41943 32.0308 8.52612 32.1431 8.64966C32.2591 8.77319 32.3471 8.89299 32.407 9.00903C32.4669 9.12508 32.5155 9.24862 32.553 9.37964C32.5904 9.51066 32.6129 9.61922 32.6204 9.70532C32.6316 9.78768 32.6372 9.86629 32.6372 9.94116C32.6372 10.2668 32.5268 10.5925 32.3059 10.9182C32.085 11.2402 31.8511 11.4479 31.604 11.5415C32.0981 11.6313 32.5024 11.8709 32.8169 12.2603C33.1351 12.6458 33.2942 13.0857 33.2942 13.5798C33.2942 13.6959 33.283 13.8175 33.2605 13.9448C33.2418 14.0721 33.2025 14.2162 33.1426 14.3772C33.0827 14.5382 33.0059 14.6917 32.9124 14.8376C32.8188 14.9836 32.6915 15.1296 32.5305 15.2756C32.3695 15.4179 32.1842 15.5414 31.9746 15.6462C31.7687 15.7511 31.5142 15.8372 31.2109 15.9045C30.9115 15.9682 30.582 16 30.2227 16H27.6284V8.02075ZM38.0986 10.4521H39.0195V16H38.3737L38.1772 15.5339C37.4697 15.9195 36.8164 16.1123 36.2175 16.1123C35.9143 16.1123 35.6503 16.0655 35.4257 15.9719C35.2011 15.8746 35.0271 15.7548 34.9035 15.6125C34.78 15.4703 34.6808 15.2906 34.6059 15.0735C34.531 14.8526 34.4824 14.643 34.4599 14.4446C34.4412 14.2462 34.4318 14.0197 34.4318 13.7651V10.4521H35.3527V13.8325C35.3527 14.8021 35.7739 15.2869 36.6162 15.2869C37.0504 15.2869 37.5445 15.1427 38.0986 14.8545V10.4521ZM40.3874 8.02075H41.4767V9.08203H40.3874V8.02075ZM40.4716 10.4521H41.3925V16H40.4716V10.4521ZM42.9513 7.51538H43.8722V16H42.9513V7.51538ZM45.1502 13.3215C45.1502 12.8424 45.2176 12.4119 45.3523 12.03C45.4871 11.6482 45.6724 11.3356 45.9083 11.0923C46.1441 10.849 46.4192 10.6637 46.7337 10.5364C47.0519 10.4054 47.3944 10.3398 47.7613 10.3398C48.203 10.3398 48.6504 10.439 49.1033 10.6375V7.51538H50.0242V16H49.3841L49.2325 15.6519C48.7121 15.9588 48.1693 16.1123 47.6041 16.1123C47.372 16.1123 47.1455 16.0842 46.9246 16.0281C46.7037 15.9719 46.4848 15.8746 46.2676 15.7361C46.0505 15.5976 45.8596 15.4254 45.6949 15.2195C45.5339 15.0098 45.4029 14.7422 45.3018 14.4165C45.2007 14.0908 45.1502 13.7258 45.1502 13.3215ZM47.9073 15.3542C48.3153 15.3542 48.714 15.2494 49.1033 15.0398V11.3337C48.7028 11.1541 48.3003 11.0642 47.896 11.0642C47.7238 11.0642 47.5573 11.0829 47.3963 11.1204C47.2353 11.1578 47.0706 11.2252 46.9021 11.3225C46.7337 11.4198 46.5877 11.5452 46.4642 11.6987C46.3444 11.8522 46.2452 12.0562 46.1666 12.3108C46.0879 12.5616 46.0486 12.8499 46.0486 13.1755C46.0486 13.5125 46.0898 13.8138 46.1722 14.0796C46.2545 14.3416 46.3593 14.5513 46.4866 14.7085C46.6139 14.8657 46.7636 14.9949 46.9358 15.0959C47.108 15.197 47.2728 15.2663 47.43 15.3037C47.5872 15.3374 47.7463 15.3542 47.9073 15.3542ZM53.9133 10.3455C54.1829 10.3455 54.4243 10.3792 54.6377 10.4465C54.8548 10.5102 55.0345 10.5925 55.1768 10.6936C55.319 10.7947 55.4407 10.9276 55.5417 11.0923C55.6466 11.2533 55.7252 11.4105 55.7776 11.564C55.8337 11.7137 55.8768 11.8953 55.9067 12.1086C55.9367 12.322 55.9554 12.5073 55.9629 12.6646C55.9704 12.8218 55.9741 13.0071 55.9741 13.2205V13.6584H52.1614C52.1614 13.8606 52.2063 14.0627 52.2961 14.2649C52.3897 14.4633 52.5189 14.6467 52.6836 14.8152C52.8521 14.9799 53.071 15.1147 53.3406 15.2195C53.6139 15.3243 53.9152 15.3767 54.2446 15.3767C54.634 15.3767 55.0551 15.3093 55.5081 15.1746L55.6709 15.8035C55.0682 16.0094 54.4767 16.1123 53.8965 16.1123C53.4884 16.1123 53.1253 16.058 52.8071 15.9495C52.4927 15.8409 52.2381 15.7005 52.0435 15.5283C51.8525 15.3524 51.6953 15.1427 51.5718 14.8994C51.4482 14.6561 51.3621 14.4146 51.3135 14.175C51.2686 13.9317 51.2461 13.6753 51.2461 13.4058C51.2461 12.9902 51.2966 12.6103 51.3977 12.2659C51.4988 11.9215 51.6354 11.6332 51.8076 11.4011C51.9798 11.1653 52.1801 10.9669 52.4084 10.8059C52.6405 10.6449 52.882 10.5289 53.1328 10.4578C53.3874 10.3829 53.6475 10.3455 53.9133 10.3455ZM53.7168 11.1428C53.3874 11.1428 53.1029 11.2345 52.8633 11.418C52.6274 11.5977 52.4552 11.8223 52.3467 12.0918C52.2381 12.3613 52.1838 12.6514 52.1838 12.9622H55.0813C55.0813 11.7493 54.6265 11.1428 53.7168 11.1428ZM57.9597 10.8677C58.4276 10.5195 58.9442 10.3455 59.5095 10.3455C59.8988 10.3455 60.2526 10.4185 60.5708 10.5645L60.29 11.3C59.998 11.1877 59.6948 11.1316 59.3803 11.1316C58.9124 11.1316 58.4725 11.2607 58.0607 11.519V16H57.1398V10.4521H57.7856L57.9597 10.8677Z" fill="#2D2D2D"/>
<path d="M16.4668 6.71174C16.9584 7.16205 17.5428 7.77392 18.3849 8.61954C18.6324 8.86704 18.7287 9.2761 18.5396 9.7161C18.4537 9.9361 18.5052 10.1836 18.6737 10.3486C18.904 10.572 19.2718 10.572 19.5056 10.3486C19.7359 10.1183 20.2034 10.273 20.3168 10.3864L20.7396 10.8092V10.8058C21.0868 11.1495 21.0868 11.7098 20.7396 12.0536L18.6599 14.1367C18.3162 14.4804 17.7559 14.4804 17.4121 14.1367L17.0065 13.6761C16.7762 13.4458 16.7762 13.0745 17.0065 12.8442C17.2368 12.6139 17.2368 12.2426 17.0065 12.0123C16.7762 11.7889 16.3499 11.7511 16.1162 11.9745L15.085 12.9473L12.9365 10.7955C12.9365 10.7955 13.6756 10.0667 13.8921 9.85703C14.4353 9.30704 13.9471 8.84298 13.7065 8.60923C13.1222 8.02829 11.9122 7.79798 11.0872 7.83236C10.8294 7.84267 10.5956 7.68455 10.5062 7.44392C10.4203 7.19986 10.5028 6.9283 10.7125 6.77361C13.1359 5.75268 15.5112 5.75268 16.4668 6.71174ZM14.3115 13.7826L9.65717 18.4267C9.33061 18.7567 9.06593 18.9767 8.75999 18.9767C7.80093 18.9526 7.02406 18.1757 7 17.2167C7 16.7492 7.11344 16.5773 7.44343 16.2507L12.1047 11.6102L14.3115 13.7826Z" fill="#2D2D2D"/>
</svg>
