<svg width="300" height="100" viewBox="0 0 300 100" fill="none" xmlns="http://www.w3.org/2000/svg">
<g clip-path="url(#clip0_2007_11)">
<path d="M282.343 0.943115H16.943C8.10644 0.943115 0.942993 8.10656 0.942993 16.9431V82.8201C0.942993 91.6567 8.10644 98.8201 16.943 98.8201H282.343C291.18 98.8201 298.343 91.6567 298.343 82.8201V16.9431C298.343 8.10656 291.18 0.943115 282.343 0.943115Z" fill="white" stroke="black" stroke-width="1.88527"/>
<path d="M86.8257 30.8898C82.9418 29.0726 78.7889 27.752 74.4472 27C73.914 27.964 73.2911 29.2607 72.8616 30.2921C68.2462 29.598 63.6734 29.598 59.1429 30.2921C58.7135 29.2607 58.0764 27.964 57.5384 27C53.192 27.752 49.0344 29.0775 45.1505 30.8995C37.3166 42.7375 35.193 54.2814 36.2548 65.6615C41.4506 69.5416 46.486 71.8987 51.4364 73.4411C52.6587 71.7589 53.7488 69.9706 54.6879 68.086C52.8994 67.4064 51.1863 66.5677 49.5677 65.5941C49.9971 65.2759 50.4171 64.9433 50.823 64.6011C60.6955 69.2187 71.4222 69.2187 81.1768 64.6011C81.5874 64.9433 82.0074 65.2759 82.4321 65.5941C80.8087 66.5725 79.091 67.4112 77.3024 68.0909C78.2415 69.9706 79.3269 71.7637 80.5539 73.4458C85.5091 71.9034 90.5491 69.5465 95.745 65.6615C96.9909 52.4691 93.6167 41.0312 86.8257 30.8898ZM56.0329 58.6629C53.0693 58.6629 50.6389 55.8961 50.6389 52.5269C50.6389 49.1577 53.0174 46.3862 56.0329 46.3862C59.0486 46.3862 61.4789 49.1529 61.427 52.5269C61.4317 55.8961 59.0486 58.6629 56.0329 58.6629ZM75.9669 58.6629C73.0032 58.6629 70.5728 55.8961 70.5728 52.5269C70.5728 49.1577 72.9512 46.3862 75.9669 46.3862C78.9824 46.3862 81.4128 49.1529 81.3609 52.5269C81.3609 55.8961 78.9824 58.6629 75.9669 58.6629Z" fill="black"/>
<path d="M120.261 25.6364H122.727V40.1932C122.727 41.4924 122.489 42.5961 122.011 43.5043C121.534 44.4124 120.861 45.1018 119.993 45.5724C119.125 46.0431 118.1 46.2784 116.92 46.2784C115.807 46.2784 114.816 46.0762 113.947 45.6719C113.079 45.2609 112.396 44.6776 111.899 43.9219C111.402 43.1662 111.153 42.268 111.153 41.2273H113.58C113.58 41.804 113.722 42.3078 114.007 42.7386C114.299 43.1629 114.696 43.4943 115.2 43.733C115.704 43.9716 116.277 44.0909 116.92 44.0909C117.63 44.0909 118.233 43.9418 118.73 43.6435C119.227 43.3452 119.605 42.9077 119.864 42.331C120.129 41.7476 120.261 41.035 120.261 40.1932V25.6364ZM136.355 46.3182C134.977 46.3182 133.767 45.9901 132.726 45.3338C131.692 44.6776 130.883 43.7595 130.3 42.5795C129.723 41.3996 129.435 40.0208 129.435 38.4432C129.435 36.8523 129.723 35.4635 130.3 34.277C130.883 33.0904 131.692 32.169 132.726 31.5128C133.767 30.8565 134.977 30.5284 136.355 30.5284C137.734 30.5284 138.941 30.8565 139.975 31.5128C141.015 32.169 141.824 33.0904 142.401 34.277C142.984 35.4635 143.276 36.8523 143.276 38.4432C143.276 40.0208 142.984 41.3996 142.401 42.5795C141.824 43.7595 141.015 44.6776 139.975 45.3338C138.941 45.9901 137.734 46.3182 136.355 46.3182ZM136.355 44.2102C137.403 44.2102 138.264 43.9418 138.941 43.4048C139.617 42.8679 140.117 42.1619 140.442 41.2869C140.767 40.4119 140.929 39.464 140.929 38.4432C140.929 37.4223 140.767 36.4711 140.442 35.5895C140.117 34.7079 139.617 33.9953 138.941 33.4517C138.264 32.9081 137.403 32.6364 136.355 32.6364C135.308 32.6364 134.446 32.9081 133.77 33.4517C133.094 33.9953 132.594 34.7079 132.269 35.5895C131.944 36.4711 131.782 37.4223 131.782 38.4432C131.782 39.464 131.944 40.4119 132.269 41.2869C132.594 42.1619 133.094 42.8679 133.77 43.4048C134.446 43.9418 135.308 44.2102 136.355 44.2102ZM149.658 46V30.7273H152.004V46H149.658ZM150.851 28.1818C150.394 28.1818 149.999 28.026 149.668 27.7145C149.343 27.4029 149.181 27.0284 149.181 26.5909C149.181 26.1534 149.343 25.7789 149.668 25.4673C149.999 25.1558 150.394 25 150.851 25C151.308 25 151.7 25.1558 152.024 25.4673C152.356 25.7789 152.522 26.1534 152.522 26.5909C152.522 27.0284 152.356 27.4029 152.024 27.7145C151.7 28.026 151.308 28.1818 150.851 28.1818ZM161.449 36.8125V46H159.102V30.7273H161.369V33.1136H161.568C161.926 32.3381 162.47 31.715 163.199 31.2443C163.928 30.767 164.869 30.5284 166.023 30.5284C167.057 30.5284 167.962 30.7405 168.737 31.1648C169.513 31.5824 170.116 32.2188 170.547 33.0739C170.978 33.9223 171.193 34.9962 171.193 36.2955V46H168.847V36.4545C168.847 35.2547 168.535 34.3201 167.912 33.6506C167.289 32.9744 166.434 32.6364 165.347 32.6364C164.598 32.6364 163.928 32.7988 163.338 33.1236C162.755 33.4484 162.294 33.9223 161.956 34.5455C161.618 35.1686 161.449 35.9242 161.449 36.8125ZM195.161 46.3182C193.782 46.3182 192.572 45.9901 191.532 45.3338C190.498 44.6776 189.689 43.7595 189.105 42.5795C188.529 41.3996 188.24 40.0208 188.24 38.4432C188.24 36.8523 188.529 35.4635 189.105 34.277C189.689 33.0904 190.498 32.169 191.532 31.5128C192.572 30.8565 193.782 30.5284 195.161 30.5284C196.54 30.5284 197.746 30.8565 198.78 31.5128C199.821 32.169 200.63 33.0904 201.206 34.277C201.79 35.4635 202.081 36.8523 202.081 38.4432C202.081 40.0208 201.79 41.3996 201.206 42.5795C200.63 43.7595 199.821 44.6776 198.78 45.3338C197.746 45.9901 196.54 46.3182 195.161 46.3182ZM195.161 44.2102C196.208 44.2102 197.07 43.9418 197.746 43.4048C198.422 42.8679 198.923 42.1619 199.248 41.2869C199.572 40.4119 199.735 39.464 199.735 38.4432C199.735 37.4223 199.572 36.4711 199.248 35.5895C198.923 34.7079 198.422 33.9953 197.746 33.4517C197.07 32.9081 196.208 32.6364 195.161 32.6364C194.114 32.6364 193.252 32.9081 192.576 33.4517C191.9 33.9953 191.399 34.7079 191.074 35.5895C190.749 36.4711 190.587 37.4223 190.587 38.4432C190.587 39.464 190.749 40.4119 191.074 41.2869C191.399 42.1619 191.9 42.8679 192.576 43.4048C193.252 43.9418 194.114 44.2102 195.161 44.2102ZM218.088 39.7557V30.7273H220.435V46H218.088V43.4148H217.929C217.571 44.1903 217.014 44.8499 216.259 45.3935C215.503 45.9304 214.549 46.1989 213.395 46.1989C212.441 46.1989 211.592 45.9901 210.85 45.5724C210.107 45.1482 209.524 44.5118 209.1 43.6634C208.675 42.8082 208.463 41.7311 208.463 40.4318V30.7273H210.81V40.2727C210.81 41.3864 211.121 42.2746 211.745 42.9375C212.374 43.6004 213.176 43.9318 214.151 43.9318C214.734 43.9318 215.327 43.7827 215.931 43.4844C216.541 43.1861 217.051 42.7287 217.462 42.1122C217.88 41.4957 218.088 40.7102 218.088 39.7557ZM227.533 46V30.7273H229.8V33.0341H229.959C230.237 32.2784 230.741 31.6652 231.47 31.1946C232.2 30.724 233.022 30.4886 233.936 30.4886C234.109 30.4886 234.324 30.4919 234.583 30.4986C234.841 30.5052 235.037 30.5152 235.169 30.5284V32.9148C235.09 32.8949 234.907 32.8651 234.622 32.8253C234.344 32.7789 234.049 32.7557 233.737 32.7557C232.995 32.7557 232.332 32.9115 231.749 33.223C231.172 33.5279 230.715 33.9522 230.377 34.4957C230.045 35.0327 229.879 35.6458 229.879 36.3352V46H227.533ZM120.273 75H112.023V51.7273H120.341C122.682 51.7273 124.697 52.1932 126.386 53.125C128.076 54.0492 129.375 55.3788 130.284 57.1136C131.201 58.8485 131.659 60.9242 131.659 63.3409C131.659 65.7652 131.201 67.8485 130.284 69.5909C129.375 71.3333 128.068 72.6705 126.364 73.6023C124.667 74.5341 122.636 75 120.273 75ZM116.943 70.7841H120.068C121.523 70.7841 122.746 70.5265 123.739 70.0114C124.739 69.4886 125.489 68.6818 125.989 67.5909C126.496 66.4924 126.75 65.0758 126.75 63.3409C126.75 61.6212 126.496 60.2159 125.989 59.125C125.489 58.0341 124.742 57.2311 123.75 56.7159C122.758 56.2008 121.534 55.9432 120.08 55.9432H116.943V70.7841ZM138.413 75V57.5455H143.254V75H138.413ZM140.845 55.2955C140.125 55.2955 139.508 55.0568 138.993 54.5795C138.485 54.0947 138.231 53.5152 138.231 52.8409C138.231 52.1742 138.485 51.6023 138.993 51.125C139.508 50.6402 140.125 50.3977 140.845 50.3977C141.565 50.3977 142.178 50.6402 142.686 51.125C143.201 51.6023 143.459 52.1742 143.459 52.8409C143.459 53.5152 143.201 54.0947 142.686 54.5795C142.178 55.0568 141.565 55.2955 140.845 55.2955ZM164.855 62.5227L160.423 62.7955C160.347 62.4167 160.184 62.0758 159.934 61.7727C159.684 61.4621 159.355 61.2159 158.945 61.0341C158.544 60.8447 158.063 60.75 157.502 60.75C156.752 60.75 156.12 60.9091 155.605 61.2273C155.089 61.5379 154.832 61.9545 154.832 62.4773C154.832 62.8939 154.998 63.2462 155.332 63.5341C155.665 63.822 156.237 64.053 157.048 64.2273L160.207 64.8636C161.904 65.2121 163.169 65.7727 164.002 66.5455C164.836 67.3182 165.252 68.3333 165.252 69.5909C165.252 70.7348 164.915 71.7386 164.241 72.6023C163.574 73.4659 162.658 74.1402 161.491 74.625C160.332 75.1023 158.995 75.3409 157.48 75.3409C155.169 75.3409 153.328 74.8598 151.957 73.8977C150.593 72.928 149.794 71.6098 149.559 69.9432L154.32 69.6932C154.464 70.3977 154.813 70.9356 155.366 71.3068C155.919 71.6705 156.627 71.8523 157.491 71.8523C158.339 71.8523 159.021 71.6894 159.536 71.3636C160.059 71.0303 160.324 70.6023 160.332 70.0795C160.324 69.6402 160.139 69.2803 159.775 69C159.411 68.7121 158.851 68.4924 158.093 68.3409L155.07 67.7386C153.366 67.3977 152.097 66.8068 151.264 65.9659C150.438 65.125 150.025 64.053 150.025 62.75C150.025 61.6288 150.328 60.6629 150.934 59.8523C151.548 59.0417 152.408 58.4167 153.514 57.9773C154.627 57.5379 155.93 57.3182 157.423 57.3182C159.627 57.3182 161.362 57.7841 162.627 58.7159C163.9 59.6477 164.642 60.9167 164.855 62.5227ZM179.387 75.3409C177.599 75.3409 176.061 74.9621 174.773 74.2045C173.493 73.4394 172.508 72.3788 171.819 71.0227C171.137 69.6667 170.796 68.1061 170.796 66.3409C170.796 64.553 171.141 62.9848 171.83 61.6364C172.527 60.2803 173.516 59.2235 174.796 58.4659C176.076 57.7008 177.599 57.3182 179.364 57.3182C180.887 57.3182 182.22 57.5947 183.364 58.1477C184.508 58.7008 185.413 59.4773 186.08 60.4773C186.747 61.4773 187.114 62.6515 187.182 64H182.614C182.485 63.1288 182.145 62.428 181.591 61.8977C181.046 61.3598 180.33 61.0909 179.444 61.0909C178.694 61.0909 178.038 61.2955 177.478 61.7045C176.925 62.1061 176.493 62.6932 176.182 63.4659C175.872 64.2386 175.716 65.1742 175.716 66.2727C175.716 67.3864 175.868 68.3333 176.171 69.1136C176.482 69.8939 176.917 70.4886 177.478 70.8977C178.038 71.3068 178.694 71.5114 179.444 71.5114C179.997 71.5114 180.493 71.3977 180.932 71.1705C181.379 70.9432 181.747 70.6136 182.035 70.1818C182.33 69.7424 182.523 69.2159 182.614 68.6023H187.182C187.107 69.9356 186.743 71.1098 186.091 72.125C185.448 73.1326 184.557 73.9205 183.421 74.4886C182.285 75.0568 180.94 75.3409 179.387 75.3409ZM201.368 75.3409C199.603 75.3409 198.077 74.9659 196.789 74.2159C195.508 73.4583 194.52 72.4053 193.823 71.0568C193.126 69.7008 192.777 68.1288 192.777 66.3409C192.777 64.5379 193.126 62.9621 193.823 61.6136C194.52 60.2576 195.508 59.2045 196.789 58.4545C198.077 57.697 199.603 57.3182 201.368 57.3182C203.133 57.3182 204.656 57.697 205.936 58.4545C207.224 59.2045 208.217 60.2576 208.914 61.6136C209.611 62.9621 209.959 64.5379 209.959 66.3409C209.959 68.1288 209.611 69.7008 208.914 71.0568C208.217 72.4053 207.224 73.4583 205.936 74.2159C204.656 74.9659 203.133 75.3409 201.368 75.3409ZM201.391 71.5909C202.194 71.5909 202.864 71.3636 203.402 70.9091C203.94 70.447 204.345 69.8182 204.618 69.0227C204.898 68.2273 205.039 67.322 205.039 66.3068C205.039 65.2917 204.898 64.3864 204.618 63.5909C204.345 62.7955 203.94 62.1667 203.402 61.7045C202.864 61.2424 202.194 61.0114 201.391 61.0114C200.58 61.0114 199.898 61.2424 199.345 61.7045C198.8 62.1667 198.387 62.7955 198.107 63.5909C197.834 64.3864 197.698 65.2917 197.698 66.3068C197.698 67.322 197.834 68.2273 198.107 69.0227C198.387 69.8182 198.8 70.447 199.345 70.9091C199.898 71.3636 200.58 71.5909 201.391 71.5909ZM216.307 75V57.5455H221V60.5909H221.182C221.5 59.5076 222.034 58.6894 222.784 58.1364C223.534 57.5758 224.398 57.2955 225.375 57.2955C225.617 57.2955 225.879 57.3106 226.159 57.3409C226.439 57.3712 226.686 57.4129 226.898 57.4659V61.7614C226.67 61.6932 226.356 61.6326 225.955 61.5795C225.553 61.5265 225.186 61.5 224.852 61.5C224.14 61.5 223.504 61.6553 222.943 61.9659C222.39 62.2689 221.951 62.6932 221.625 63.2386C221.307 63.7841 221.148 64.4129 221.148 65.125V75H216.307ZM238.22 75.2841C236.894 75.2841 235.693 74.9432 234.618 74.2614C233.549 73.572 232.701 72.5606 232.072 71.2273C231.451 69.8864 231.14 68.2424 231.14 66.2955C231.14 64.2955 231.462 62.6326 232.106 61.3068C232.75 59.9735 233.606 58.9773 234.674 58.3182C235.75 57.6515 236.928 57.3182 238.209 57.3182C239.186 57.3182 240 57.4848 240.652 57.8182C241.311 58.1439 241.841 58.553 242.243 59.0455C242.652 59.5303 242.962 60.0076 243.174 60.4773H243.322V51.7273H248.152V75H243.379V72.2045H243.174C242.947 72.6894 242.625 73.1705 242.209 73.6477C241.799 74.1174 241.265 74.5076 240.606 74.8182C239.955 75.1288 239.159 75.2841 238.22 75.2841ZM239.754 71.4318C240.534 71.4318 241.193 71.2197 241.731 70.7955C242.277 70.3636 242.693 69.7614 242.981 68.9886C243.277 68.2159 243.424 67.3106 243.424 66.2727C243.424 65.2348 243.28 64.3333 242.993 63.5682C242.705 62.803 242.288 62.2121 241.743 61.7955C241.197 61.3788 240.534 61.1705 239.754 61.1705C238.959 61.1705 238.288 61.3864 237.743 61.8182C237.197 62.25 236.784 62.8485 236.504 63.6136C236.224 64.3788 236.084 65.2652 236.084 66.2727C236.084 67.2879 236.224 68.1856 236.504 68.9659C236.792 69.7386 237.205 70.3447 237.743 70.7841C238.288 71.2159 238.959 71.4318 239.754 71.4318Z" fill="black"/>
</g>
<defs>
<clipPath id="clip0_2007_11">
<rect width="300" height="100" fill="white"/>
</clipPath>
</defs>
</svg>
