<svg width="300" height="264" viewBox="0 0 300 264" fill="none" xmlns="http://www.w3.org/2000/svg">
<path d="M248.515 148.015C248.382 147.688 248.217 147.349 248.022 147C245.053 141.687 235.299 134.106 231.095 134.106C228.773 134.106 224.128 136.589 220.478 139.901C213.178 146.525 211.851 146.856 208.201 142.716C205.879 140.232 205.381 135.761 205.381 116.222V92.7085H182.486C164.569 92.7085 158.928 92.2118 155.942 90.0593C150.965 86.7475 151.297 83.4357 157.103 78.4682C161.1 75.1439 163.082 71.4241 163.08 67.5C163.078 64.1594 161.638 60.6707 158.778 57.1518C157.467 55.5388 155.857 53.9195 153.951 52.3052C149.472 48.6623 147.149 48 138.19 48C129.232 48 126.909 48.6623 122.264 52.4708C120.744 53.8094 119.031 55.725 117.567 57.6734C116.315 59.3406 115.244 61.0318 114.632 62.4062C113.78 64.649 113.326 66.1332 113.303 67.5C113.278 69.0596 113.815 70.4662 114.964 72.6725C116.291 75.322 119.443 78.9649 121.932 80.9518L126.577 84.4292L121.932 88.5689C117.453 92.543 116.457 92.7085 94.0603 92.7085H71V116.388C71 142.219 72.1614 146.028 80.7883 149.174C84.604 150.664 85.5995 150.333 89.2493 146.028C96.2172 137.914 100.033 136.755 106.503 140.563C113.305 144.869 115.794 150.168 115.794 160.765C115.794 168.216 115.13 169.872 110.153 174.84C102.687 182.291 97.7104 182.126 91.0743 174.674C84.9357 167.554 80.7883 167.389 75.3136 174.012C71.1659 178.98 71 179.642 71 202.99V227L96.0513 226.503L121.102 226.007L125.084 221.37C127.564 218.508 128.814 216.477 128.747 214.5C128.671 212.246 126.883 210.063 123.259 206.798C122.655 206.235 122.098 205.682 121.589 205.137C115.815 198.95 116.205 193.83 122.761 187.59C128.07 182.457 132.881 181.298 144.329 181.96C150.135 182.126 158.928 191.068 158.928 196.697C158.928 198.843 157.675 201.566 155.316 204.5C154.58 205.415 153.736 206.35 152.79 207.295C149.049 211.132 147.586 212.761 147.586 214.5C147.585 215.538 148.106 216.615 148.974 218.224C153.287 225.675 157.767 226.834 182.652 226.834H205.381V203.487C205.381 190.736 206.044 178.98 207.04 177.324C210.026 171.694 213.676 171.859 219.317 177.986C223.464 182.291 226.285 183.782 230.266 183.782C236.57 183.782 244.368 178.649 247.686 172.191C249.134 169.389 249.941 164.122 249.997 159C250.001 158.618 250.001 158.237 249.997 157.857C249.954 154.003 249.476 150.343 248.515 148.015Z" fill="url(#paint0_linear_2001_11)"/>
<path d="M248.515 148.015C248.382 147.688 248.217 147.349 248.022 147C245.053 141.687 235.299 134.106 231.095 134.106C228.773 134.106 224.128 136.589 220.478 139.901C213.178 146.525 211.851 146.856 208.201 142.716C205.879 140.232 205.381 135.761 205.381 116.222V92.7085H182.486C164.569 92.7085 158.928 92.2118 155.942 90.0593C150.965 86.7475 151.297 83.4357 157.103 78.4682C161.1 75.1439 163.082 71.4241 163.08 67.5C163.078 64.1594 161.638 60.6707 158.778 57.1518C157.467 55.5388 155.857 53.9195 153.951 52.3052C149.472 48.6623 147.149 48 138.19 48C129.232 48 126.909 48.6623 122.264 52.4708C120.744 53.8094 119.031 55.725 117.567 57.6734C116.315 59.3406 115.244 61.0318 114.632 62.4062C113.78 64.649 113.326 66.1332 113.303 67.5C113.278 69.0596 113.815 70.4662 114.964 72.6725C116.291 75.322 119.443 78.9649 121.932 80.9518L126.577 84.4292L121.932 88.5689C117.453 92.543 116.457 92.7085 94.0603 92.7085H71V116.388C71 142.219 72.1614 146.028 80.7883 149.174C84.604 150.664 85.5995 150.333 89.2493 146.028C96.2172 137.914 100.033 136.755 106.503 140.563C113.305 144.869 115.794 150.168 115.794 160.765C115.794 168.216 115.13 169.872 110.153 174.84C102.687 182.291 97.7104 182.126 91.0743 174.674C84.9357 167.554 80.7883 167.389 75.3136 174.012C71.1659 178.98 71 179.642 71 202.99V227L96.0513 226.503L121.102 226.007L125.084 221.37C127.564 218.508 128.814 216.477 128.747 214.5C128.671 212.246 126.883 210.063 123.259 206.798C122.655 206.235 122.098 205.682 121.589 205.137C115.815 198.95 116.205 193.83 122.761 187.59C128.07 182.457 132.881 181.298 144.329 181.96C150.135 182.126 158.928 191.068 158.928 196.697C158.928 198.843 157.675 201.566 155.316 204.5C154.58 205.415 153.736 206.35 152.79 207.295C149.049 211.132 147.586 212.761 147.586 214.5C147.585 215.538 148.106 216.615 148.974 218.224C153.287 225.675 157.767 226.834 182.652 226.834H205.381V203.487C205.381 190.736 206.044 178.98 207.04 177.324C210.026 171.694 213.676 171.859 219.317 177.986C223.464 182.291 226.285 183.782 230.266 183.782C236.57 183.782 244.368 178.649 247.686 172.191C249.134 169.389 249.941 164.122 249.997 159C250.001 158.618 250.001 158.237 249.997 157.857C249.954 154.003 249.476 150.343 248.515 148.015Z" fill="black" fill-opacity="0.2"/>
<path d="M121.589 205.137C122.098 205.682 122.655 206.235 123.259 206.798C126.883 210.063 128.671 212.246 128.747 214.5V204.5H121.102L121.589 205.137Z" fill="url(#paint1_linear_2001_11)"/>
<path d="M121.589 205.137C122.098 205.682 122.655 206.235 123.259 206.798C126.883 210.063 128.671 212.246 128.747 214.5V204.5H121.102L121.589 205.137Z" fill="black" fill-opacity="0.2"/>
<path d="M147.586 214.5C147.586 212.761 149.049 211.132 152.79 207.295C153.736 206.35 154.58 205.415 155.316 204.5H147.586V214.5Z" fill="url(#paint2_linear_2001_11)"/>
<path d="M147.586 214.5C147.586 212.761 149.049 211.132 152.79 207.295C153.736 206.35 154.58 205.415 155.316 204.5H147.586V214.5Z" fill="black" fill-opacity="0.2"/>
<path d="M248.515 148.015C249.476 150.343 249.954 154.003 249.997 157.857V147H248.022C248.217 147.349 248.382 147.688 248.515 148.015Z" fill="url(#paint3_linear_2001_11)"/>
<path d="M248.515 148.015C249.476 150.343 249.954 154.003 249.997 157.857V147H248.022C248.217 147.349 248.382 147.688 248.515 148.015Z" fill="black" fill-opacity="0.2"/>
<path d="M163.08 67.5V57.1518H158.778C161.638 60.6707 163.078 64.1594 163.08 67.5Z" fill="url(#paint4_linear_2001_11)"/>
<path d="M163.08 67.5V57.1518H158.778C161.638 60.6707 163.078 64.1594 163.08 67.5Z" fill="black" fill-opacity="0.2"/>
<path d="M113.303 67.5C113.326 66.1332 113.78 64.649 114.632 62.4062C115.244 61.0318 116.315 59.3406 117.567 57.6734L113.303 57.5L113.303 67.5Z" fill="url(#paint5_linear_2001_11)"/>
<path d="M113.303 67.5C113.326 66.1332 113.78 64.649 114.632 62.4062C115.244 61.0318 116.315 59.3406 117.567 57.6734L113.303 57.5L113.303 67.5Z" fill="black" fill-opacity="0.2"/>
<path d="M248.515 138.015C246.358 132.716 235.575 124.106 231.095 124.106C228.773 124.106 224.128 126.589 220.478 129.901C213.178 136.525 211.851 136.856 208.201 132.716C205.879 130.232 205.381 125.761 205.381 106.222V82.7085H182.486C164.569 82.7085 158.928 82.2118 155.942 80.0593C150.965 76.7475 151.297 73.4357 157.103 68.4682C166.062 61.0167 164.901 51.578 153.951 42.3052C149.472 38.6623 147.149 38 138.19 38C129.232 38 126.909 38.6623 122.264 42.4708C119.443 44.9547 115.959 49.4256 114.632 52.4062C112.807 57.2082 112.807 58.5328 114.964 62.6725C116.291 65.322 119.443 68.9649 121.932 70.9518L126.577 74.4292L121.932 78.5689C117.453 82.543 116.457 82.7085 94.0603 82.7085H71V106.388C71 132.219 72.1614 136.028 80.7883 139.174C84.604 140.664 85.5995 140.333 89.2493 136.028C96.2172 127.914 100.033 126.755 106.503 130.563C113.305 134.869 115.794 140.168 115.794 150.765C115.794 158.216 115.13 159.872 110.153 164.84C102.687 172.291 97.7104 172.126 91.0743 164.674C84.9357 157.554 80.7883 157.389 75.3136 164.012C71.1659 168.98 71 169.642 71 192.99V217L96.0513 216.503L121.102 216.007L125.084 211.37C130.393 205.243 130.061 202.925 123.259 196.798C115.794 189.844 115.628 184.379 122.761 177.59C128.07 172.457 132.881 171.298 144.329 171.96C150.135 172.126 158.928 181.068 158.928 186.697C158.928 189.512 156.771 193.321 152.79 197.295C146.817 203.422 146.651 203.919 148.974 208.224C153.287 215.675 157.767 216.834 182.652 216.834H205.381V193.487C205.381 180.736 206.044 168.98 207.04 167.324C210.026 161.694 213.676 161.859 219.317 167.986C223.464 172.291 226.285 173.782 230.266 173.782C236.57 173.782 244.368 168.649 247.686 162.191C250.34 157.057 250.838 143.645 248.515 138.015Z" fill="url(#paint6_linear_2001_11)"/>
<defs>
<linearGradient id="paint0_linear_2001_11" x1="71" y1="48" x2="250" y2="227" gradientUnits="userSpaceOnUse">
<stop stop-color="#279D66"/>
<stop offset="1" stop-color="#3D98FF"/>
</linearGradient>
<linearGradient id="paint1_linear_2001_11" x1="71" y1="48" x2="250" y2="227" gradientUnits="userSpaceOnUse">
<stop stop-color="#279D66"/>
<stop offset="1" stop-color="#3D98FF"/>
</linearGradient>
<linearGradient id="paint2_linear_2001_11" x1="71" y1="48" x2="250" y2="227" gradientUnits="userSpaceOnUse">
<stop stop-color="#279D66"/>
<stop offset="1" stop-color="#3D98FF"/>
</linearGradient>
<linearGradient id="paint3_linear_2001_11" x1="71" y1="48" x2="250" y2="227" gradientUnits="userSpaceOnUse">
<stop stop-color="#279D66"/>
<stop offset="1" stop-color="#3D98FF"/>
</linearGradient>
<linearGradient id="paint4_linear_2001_11" x1="71" y1="48" x2="250" y2="227" gradientUnits="userSpaceOnUse">
<stop stop-color="#279D66"/>
<stop offset="1" stop-color="#3D98FF"/>
</linearGradient>
<linearGradient id="paint5_linear_2001_11" x1="71" y1="48" x2="250" y2="227" gradientUnits="userSpaceOnUse">
<stop stop-color="#279D66"/>
<stop offset="1" stop-color="#3D98FF"/>
</linearGradient>
<linearGradient id="paint6_linear_2001_11" x1="71" y1="38" x2="250" y2="217" gradientUnits="userSpaceOnUse">
<stop stop-color="#279D66"/>
<stop offset="1" stop-color="#3D98FF"/>
</linearGradient>
</defs>
</svg>
