<svg width="84" height="24" viewBox="0 0 84 24" fill="none" xmlns="http://www.w3.org/2000/svg">
<rect width="84" height="24" rx="12" fill="#3E4853"/>
<path d="M28.583 8.86304V11.4685H31.9128V12.3108H28.583V16H27.6284V8.02075H32.2498V8.86304H28.583ZM34.0612 8.02075H35.0158V15.1633H38.5983V16H34.0612V8.02075ZM41.7912 8.02075H42.8749L45.7106 16H44.7448L43.9362 13.6809H40.6457L39.8371 16H38.9555L41.7912 8.02075ZM42.2909 8.95288L40.932 12.8442H43.6442L42.2909 8.95288ZM45.8993 8.02075H52.1883V8.86304H49.5211V16H48.5665V8.86304H45.8993V8.02075ZM58.492 8.02075H59.4466V16H58.492V12.3052H54.2244V16H53.2698V8.02075H54.2244V11.4629H58.492V8.02075ZM61.6792 8.02075H62.6338V13.1924C62.6338 13.5106 62.66 13.7839 62.7124 14.0122C62.7686 14.2406 62.8846 14.4539 63.0605 14.6523C63.4349 15.0754 63.9871 15.2869 64.717 15.2869C65.2449 15.2869 65.6847 15.1727 66.0366 14.9443C66.3923 14.7122 66.6225 14.3866 66.7273 13.9673C66.776 13.7689 66.8003 13.5106 66.8003 13.1924V8.02075H67.7437C67.7437 9.22241 67.7437 10.2051 67.7437 10.9688C67.7474 11.7324 67.7493 12.2228 67.7493 12.4399C67.7493 12.6533 67.7493 12.8255 67.7493 12.9565C67.753 13.0838 67.7549 13.1905 67.7549 13.2766C67.7549 13.4488 67.7511 13.6004 67.7437 13.7314C67.7362 13.8587 67.71 14.0272 67.665 14.2368C67.6239 14.4465 67.5658 14.6299 67.491 14.7871C67.4161 14.9406 67.3019 15.1053 67.1484 15.2812C66.9987 15.4572 66.819 15.6032 66.6094 15.7192C66.4035 15.8315 66.1377 15.9251 65.812 16C65.4901 16.0749 65.1251 16.1123 64.717 16.1123C64.2791 16.1123 63.886 16.0674 63.5378 15.9775C63.1897 15.884 62.9164 15.7735 62.718 15.6462C62.5196 15.519 62.3474 15.3655 62.2014 15.1858C62.0592 15.0061 61.96 14.8526 61.9038 14.7253C61.8514 14.5943 61.8083 14.4577 61.7747 14.3154C61.711 14.0684 61.6792 13.7183 61.6792 13.2654V8.02075ZM70.9421 8.75073V11.4292C71.0132 11.4255 71.1368 11.4236 71.3127 11.4236C71.4886 11.4198 71.6253 11.418 71.7226 11.418C71.8199 11.4142 71.9566 11.4067 72.1325 11.3955C72.3085 11.3805 72.4488 11.3656 72.5537 11.3506C72.6622 11.3319 72.7914 11.3057 72.9411 11.272C73.0946 11.2345 73.2181 11.1934 73.3117 11.1484C73.409 11.0998 73.5101 11.0399 73.6149 10.9688C73.7235 10.8939 73.8077 10.8115 73.8676 10.7217C73.9275 10.6318 73.9762 10.5251 74.0136 10.4016C74.0548 10.2743 74.0754 10.1358 74.0754 9.98608C74.0754 9.87378 74.0642 9.76709 74.0417 9.66602C74.0192 9.56494 73.9724 9.45638 73.9013 9.34033C73.8302 9.22428 73.7385 9.12508 73.6262 9.04272C73.5139 8.96037 73.3585 8.89111 73.1601 8.83496C72.9654 8.77881 72.739 8.75073 72.4807 8.75073H70.9421ZM70.9421 12.1704V15.1577H72.4301C72.5649 15.1577 72.6772 15.1577 72.767 15.1577C72.8606 15.154 72.9935 15.1427 73.1657 15.124C73.3379 15.1016 73.4839 15.0735 73.6037 15.0398C73.7272 15.0024 73.8639 14.9481 74.0136 14.877C74.1634 14.8021 74.2832 14.7141 74.373 14.613C74.4666 14.512 74.5452 14.3828 74.6088 14.2256C74.6725 14.0646 74.7043 13.8831 74.7043 13.6809C74.7043 13.183 74.5115 12.7937 74.1259 12.5129C73.7403 12.2322 73.2219 12.0918 72.5705 12.0918C72.4994 12.0918 71.9566 12.118 70.9421 12.1704ZM69.9875 8.02075H72.8007C73.074 8.02075 73.3229 8.0507 73.5476 8.1106C73.7759 8.16675 73.9631 8.23975 74.1091 8.32959C74.2588 8.41943 74.3898 8.52612 74.5021 8.64966C74.6182 8.77319 74.7062 8.89299 74.7661 9.00903C74.826 9.12508 74.8746 9.24862 74.9121 9.37964C74.9495 9.51066 74.972 9.61922 74.9794 9.70532C74.9907 9.78768 74.9963 9.86629 74.9963 9.94116C74.9963 10.2668 74.8859 10.5925 74.665 10.9182C74.4441 11.2402 74.2102 11.4479 73.9631 11.5415C74.4572 11.6313 74.8615 11.8709 75.176 12.2603C75.4942 12.6458 75.6533 13.0857 75.6533 13.5798C75.6533 13.6959 75.642 13.8175 75.6196 13.9448C75.6009 14.0721 75.5616 14.2162 75.5017 14.3772C75.4418 14.5382 75.365 14.6917 75.2714 14.8376C75.1778 14.9836 75.0506 15.1296 74.8896 15.2756C74.7286 15.4179 74.5433 15.5414 74.3337 15.6462C74.1278 15.7511 73.8732 15.8372 73.57 15.9045C73.2705 15.9682 72.9411 16 72.5817 16H69.9875V8.02075Z" fill="#62A0EA"/>
<path d="M13.8047 4.0191C13.6758 4.04645 13.5547 4.09332 13.4453 4.16754L7.44531 8.16754C7.16797 8.35114 7 8.66364 7 8.99957V14.9996C7 15.3355 7.16797 15.648 7.44531 15.8316L13.4453 19.8316C13.7813 20.0543 14.2188 20.0543 14.5547 19.8316L20.5547 15.8316C20.832 15.648 21 15.3355 21 14.9996V8.99957C21 8.66364 20.832 8.35114 20.5547 8.16754L14.5547 4.16754C14.3359 4.0191 14.0664 3.96832 13.8047 4.0191ZM14 6.19879V12.9996L19 9.66754V14.4644L14 17.8004V12.9996L9 9.66754V9.53473L14 6.19879Z" fill="#62A0EA"/>
</svg>
