<svg width="300" height="100" viewBox="0 0 300 100" fill="none" xmlns="http://www.w3.org/2000/svg">
<g clip-path="url(#clip0_18_2)">
<path d="M282.343 0.942993H16.943C8.10644 0.942993 0.942993 8.10644 0.942993 16.943V82.82C0.942993 91.6565 8.10644 98.82 16.943 98.82H282.343C291.18 98.82 298.343 91.6565 298.343 82.82V16.943C298.343 8.10644 291.18 0.942993 282.343 0.942993Z" fill="white" stroke="black" stroke-width="1.88527"/>
<path d="M112.358 37V24.6364H120.11V26.2422H114.224V30.0092H119.705V31.609H114.224V35.3942H120.182V37H112.358ZM126.346 27.7273L128.393 31.3374L130.457 27.7273H132.432L129.54 32.3636L132.456 37H130.482L128.393 33.5348L126.31 37H124.33L127.216 32.3636L124.366 27.7273H126.346ZM141.078 27.7273V29.1761H136.013V27.7273H141.078ZM137.372 25.5057H139.177V34.2773C139.177 34.6275 139.229 34.8911 139.334 35.0682C139.438 35.2412 139.573 35.36 139.738 35.4244C139.907 35.4847 140.09 35.5149 140.288 35.5149C140.432 35.5149 140.559 35.5049 140.668 35.4847C140.777 35.4646 140.861 35.4485 140.921 35.4364L141.247 36.9276C141.143 36.9678 140.994 37.008 140.801 37.0483C140.607 37.0926 140.366 37.1167 140.076 37.1207C139.601 37.1288 139.159 37.0443 138.748 36.8672C138.338 36.6901 138.006 36.4164 137.752 36.0462C137.498 35.6759 137.372 35.2111 137.372 34.6516V25.5057ZM149.437 37.1871C148.523 37.1871 147.737 36.992 147.076 36.6016C146.42 36.2071 145.913 35.6538 145.555 34.9414C145.201 34.225 145.024 33.3859 145.024 32.424C145.024 31.4742 145.201 30.6371 145.555 29.9126C145.913 29.1882 146.412 28.6228 147.052 28.2163C147.696 27.8098 148.449 27.6065 149.31 27.6065C149.833 27.6065 150.34 27.6931 150.831 27.8661C151.322 28.0392 151.763 28.3108 152.154 28.6811C152.544 29.0514 152.852 29.5323 153.077 30.1239C153.303 30.7115 153.415 31.4259 153.415 32.267V32.907H146.044V31.5547H151.646C151.646 31.0798 151.55 30.6592 151.357 30.293C151.163 29.9227 150.892 29.6309 150.542 29.4176C150.196 29.2043 149.789 29.0977 149.322 29.0977C148.815 29.0977 148.372 29.2224 147.994 29.4719C147.62 29.7174 147.33 30.0394 147.125 30.4379C146.924 30.8323 146.823 31.2609 146.823 31.7237V32.7802C146.823 33.4 146.932 33.9272 147.149 34.3619C147.37 34.7965 147.678 35.1286 148.073 35.358C148.467 35.5833 148.928 35.696 149.455 35.696C149.797 35.696 150.109 35.6477 150.391 35.5511C150.672 35.4505 150.916 35.3016 151.121 35.1044C151.326 34.9072 151.483 34.6637 151.592 34.3739L153.301 34.6818C153.164 35.1849 152.918 35.6256 152.564 36.0039C152.214 36.3782 151.773 36.67 151.242 36.8793C150.715 37.0845 150.113 37.1871 149.437 37.1871ZM159.688 31.4943V37H157.883V27.7273H159.616V29.2365H159.73C159.944 28.7455 160.278 28.3511 160.732 28.0533C161.191 27.7554 161.769 27.6065 162.465 27.6065C163.097 27.6065 163.65 27.7393 164.125 28.005C164.6 28.2666 164.968 28.657 165.23 29.1761C165.492 29.6953 165.622 30.3372 165.622 31.1019V37H163.817V31.3192C163.817 30.6471 163.642 30.1219 163.292 29.7436C162.942 29.3613 162.461 29.1701 161.849 29.1701C161.431 29.1701 161.058 29.2607 160.732 29.4418C160.41 29.6229 160.155 29.8885 159.966 30.2386C159.781 30.5848 159.688 31.0033 159.688 31.4943ZM177.457 29.9911L175.821 30.2809C175.752 30.0716 175.644 29.8724 175.495 29.6832C175.35 29.4941 175.153 29.3391 174.903 29.2184C174.654 29.0977 174.342 29.0373 173.967 29.0373C173.456 29.0373 173.03 29.152 172.687 29.3814C172.345 29.6068 172.174 29.8986 172.174 30.2567C172.174 30.5666 172.289 30.8162 172.518 31.0053C172.748 31.1945 173.118 31.3494 173.629 31.4702L175.102 31.8082C175.955 32.0054 176.591 32.3093 177.01 32.7198C177.428 33.1303 177.638 33.6636 177.638 34.3196C177.638 34.875 177.477 35.37 177.155 35.8047C176.837 36.2353 176.392 36.5734 175.821 36.8189C175.253 37.0644 174.595 37.1871 173.847 37.1871C172.808 37.1871 171.961 36.9658 171.305 36.5231C170.649 36.0763 170.247 35.4425 170.098 34.6214L171.842 34.3558C171.951 34.8106 172.174 35.1547 172.512 35.3881C172.85 35.6175 173.291 35.7322 173.835 35.7322C174.426 35.7322 174.899 35.6095 175.253 35.364C175.607 35.1145 175.784 34.8106 175.784 34.4524C175.784 34.1626 175.676 33.9192 175.458 33.7219C175.245 33.5247 174.917 33.3758 174.474 33.2752L172.905 32.9311C172.04 32.7339 171.4 32.42 170.985 31.9893C170.575 31.5587 170.369 31.0134 170.369 30.3533C170.369 29.806 170.522 29.3271 170.828 28.9165C171.134 28.506 171.557 28.1861 172.096 27.9567C172.635 27.7232 173.253 27.6065 173.949 27.6065C174.951 27.6065 175.74 27.8239 176.316 28.2585C176.891 28.6892 177.272 29.2667 177.457 29.9911ZM182.087 37V27.7273H183.892V37H182.087ZM182.999 26.2965C182.685 26.2965 182.415 26.1919 182.19 25.9826C181.969 25.7693 181.858 25.5157 181.858 25.2219C181.858 24.9241 181.969 24.6706 182.19 24.4613C182.415 24.248 182.685 24.1413 182.999 24.1413C183.313 24.1413 183.581 24.248 183.802 24.4613C184.027 24.6706 184.14 24.9241 184.14 25.2219C184.14 25.5157 184.027 25.7693 183.802 25.9826C183.581 26.1919 183.313 26.2965 182.999 26.2965ZM192.692 37.1871C191.822 37.1871 191.064 36.9879 190.416 36.5895C189.768 36.1911 189.265 35.6336 188.907 34.9173C188.548 34.2009 188.369 33.3638 188.369 32.4059C188.369 31.444 188.548 30.6029 188.907 29.8825C189.265 29.162 189.768 28.6026 190.416 28.2042C191.064 27.8058 191.822 27.6065 192.692 27.6065C193.561 27.6065 194.32 27.8058 194.968 28.2042C195.616 28.6026 196.119 29.162 196.477 29.8825C196.835 30.6029 197.014 31.444 197.014 32.4059C197.014 33.3638 196.835 34.2009 196.477 34.9173C196.119 35.6336 195.616 36.1911 194.968 36.5895C194.32 36.9879 193.561 37.1871 192.692 37.1871ZM192.698 35.6719C193.261 35.6719 193.728 35.523 194.098 35.2251C194.469 34.9273 194.742 34.5309 194.919 34.0359C195.1 33.5408 195.191 32.9955 195.191 32.3999C195.191 31.8082 195.1 31.2649 194.919 30.7699C194.742 30.2708 194.469 29.8704 194.098 29.5685C193.728 29.2667 193.261 29.1158 192.698 29.1158C192.13 29.1158 191.659 29.2667 191.285 29.5685C190.915 29.8704 190.639 30.2708 190.458 30.7699C190.281 31.2649 190.192 31.8082 190.192 32.3999C190.192 32.9955 190.281 33.5408 190.458 34.0359C190.639 34.5309 190.915 34.9273 191.285 35.2251C191.659 35.523 192.13 35.6719 192.698 35.6719ZM203.299 31.4943V37H201.494V27.7273H203.227V29.2365H203.341C203.555 28.7455 203.889 28.3511 204.343 28.0533C204.802 27.7554 205.38 27.6065 206.076 27.6065C206.708 27.6065 207.261 27.7393 207.736 28.005C208.211 28.2666 208.579 28.657 208.841 29.1761C209.103 29.6953 209.233 30.3372 209.233 31.1019V37H207.428V31.3192C207.428 30.6471 207.253 30.1219 206.903 29.7436C206.553 29.3613 206.072 29.1701 205.46 29.1701C205.042 29.1701 204.669 29.2607 204.343 29.4418C204.021 29.6229 203.766 29.8885 203.577 30.2386C203.392 30.5848 203.299 31.0033 203.299 31.4943ZM225.496 27.7273V29.1761H220.256V27.7273H225.496ZM221.693 37V26.6527C221.693 26.0732 221.82 25.5922 222.073 25.2099C222.327 24.8235 222.663 24.5357 223.081 24.3466C223.5 24.1534 223.955 24.0568 224.446 24.0568C224.808 24.0568 225.118 24.087 225.375 24.1474C225.633 24.2037 225.824 24.256 225.949 24.3043L225.526 25.7653C225.442 25.7411 225.333 25.7129 225.2 25.6808C225.068 25.6445 224.907 25.6264 224.717 25.6264C224.279 25.6264 223.965 25.7351 223.776 25.9524C223.59 26.1697 223.498 26.4837 223.498 26.8942V37H221.693ZM233.364 37.1871C232.495 37.1871 231.736 36.9879 231.088 36.5895C230.44 36.1911 229.937 35.6336 229.579 34.9173C229.221 34.2009 229.042 33.3638 229.042 32.4059C229.042 31.444 229.221 30.6029 229.579 29.8825C229.937 29.162 230.44 28.6026 231.088 28.2042C231.736 27.8058 232.495 27.6065 233.364 27.6065C234.234 27.6065 234.992 27.8058 235.64 28.2042C236.288 28.6026 236.791 29.162 237.149 29.8825C237.508 30.6029 237.687 31.444 237.687 32.4059C237.687 33.3638 237.508 34.2009 237.149 34.9173C236.791 35.6336 236.288 36.1911 235.64 36.5895C234.992 36.9879 234.234 37.1871 233.364 37.1871ZM233.37 35.6719C233.934 35.6719 234.401 35.523 234.771 35.2251C235.141 34.9273 235.415 34.5309 235.592 34.0359C235.773 33.5408 235.863 32.9955 235.863 32.3999C235.863 31.8082 235.773 31.2649 235.592 30.7699C235.415 30.2708 235.141 29.8704 234.771 29.5685C234.401 29.2667 233.934 29.1158 233.37 29.1158C232.803 29.1158 232.332 29.2667 231.958 29.5685C231.587 29.8704 231.312 30.2708 231.131 30.7699C230.953 31.2649 230.865 31.8082 230.865 32.3999C230.865 32.9955 230.953 33.5408 231.131 34.0359C231.312 34.5309 231.587 34.9273 231.958 35.2251C232.332 35.523 232.803 35.6719 233.37 35.6719ZM242.166 37V27.7273H243.911V29.2003H244.008C244.177 28.7012 244.475 28.3088 244.901 28.0231C245.332 27.7333 245.819 27.5884 246.362 27.5884C246.475 27.5884 246.608 27.5924 246.761 27.6005C246.918 27.6085 247.04 27.6186 247.129 27.6307V29.3572C247.056 29.3371 246.928 29.315 246.742 29.2908C246.557 29.2627 246.372 29.2486 246.187 29.2486C245.76 29.2486 245.38 29.3391 245.046 29.5202C244.716 29.6973 244.454 29.9448 244.261 30.2628C244.068 30.5767 243.972 30.9349 243.972 31.3374V37H242.166Z" fill="black"/>
<path d="M134.175 44.8182V71H129.393L118.003 54.5213H117.811V71H112.276V44.8182H117.134L128.435 61.2841H128.665V44.8182H134.175ZM147.595 71.3835C145.575 71.3835 143.836 70.9744 142.379 70.1562C140.93 69.3295 139.814 68.1619 139.029 66.6534C138.245 65.1364 137.853 63.3423 137.853 61.2713C137.853 59.2514 138.245 57.4787 139.029 55.9531C139.814 54.4276 140.917 53.2386 142.341 52.3864C143.772 51.5341 145.451 51.108 147.377 51.108C148.673 51.108 149.879 51.3168 150.995 51.7344C152.12 52.1435 153.1 52.7614 153.936 53.5881C154.779 54.4148 155.436 55.4545 155.904 56.7074C156.373 57.9517 156.608 59.4091 156.608 61.0795V62.5753H140.027V59.2003H151.481C151.481 58.4162 151.311 57.7216 150.97 57.1165C150.629 56.5114 150.156 56.0384 149.551 55.6974C148.954 55.348 148.26 55.1733 147.467 55.1733C146.64 55.1733 145.907 55.3651 145.268 55.7486C144.637 56.1236 144.143 56.6307 143.785 57.2699C143.427 57.9006 143.244 58.6037 143.235 59.3793V62.5881C143.235 63.5597 143.414 64.3991 143.772 65.1065C144.139 65.8139 144.654 66.3594 145.319 66.7429C145.984 67.1264 146.772 67.3182 147.684 67.3182C148.289 67.3182 148.843 67.233 149.346 67.0625C149.849 66.892 150.279 66.6364 150.637 66.2955C150.995 65.9545 151.268 65.5369 151.456 65.0426L156.493 65.375C156.237 66.5852 155.713 67.642 154.92 68.5455C154.136 69.4403 153.122 70.1392 151.877 70.642C150.642 71.1364 149.214 71.3835 147.595 71.3835ZM163.895 71L158.551 51.3636H164.061L167.103 64.5568H167.282L170.453 51.3636H175.86L179.082 64.4801H179.248L182.24 51.3636H187.737L182.406 71H176.64L173.265 58.6506H173.022L169.647 71H163.895ZM199.099 71.3835C197.079 71.3835 195.34 70.9744 193.883 70.1562C192.434 69.3295 191.317 68.1619 190.533 66.6534C189.749 65.1364 189.357 63.3423 189.357 61.2713C189.357 59.2514 189.749 57.4787 190.533 55.9531C191.317 54.4276 192.421 53.2386 193.844 52.3864C195.276 51.5341 196.955 51.108 198.881 51.108C200.177 51.108 201.383 51.3168 202.499 51.7344C203.624 52.1435 204.604 52.7614 205.44 53.5881C206.283 54.4148 206.94 55.4545 207.408 56.7074C207.877 57.9517 208.112 59.4091 208.112 61.0795V62.5753H191.531V59.2003H202.985C202.985 58.4162 202.815 57.7216 202.474 57.1165C202.133 56.5114 201.66 56.0384 201.055 55.6974C200.458 55.348 199.763 55.1733 198.971 55.1733C198.144 55.1733 197.411 55.3651 196.772 55.7486C196.141 56.1236 195.647 56.6307 195.289 57.2699C194.931 57.9006 194.748 58.6037 194.739 59.3793V62.5881C194.739 63.5597 194.918 64.3991 195.276 65.1065C195.643 65.8139 196.158 66.3594 196.823 66.7429C197.488 67.1264 198.276 67.3182 199.188 67.3182C199.793 67.3182 200.347 67.233 200.85 67.0625C201.353 66.892 201.783 66.6364 202.141 66.2955C202.499 65.9545 202.772 65.5369 202.96 65.0426L207.996 65.375C207.741 66.5852 207.217 67.642 206.424 68.5455C205.64 69.4403 204.626 70.1392 203.381 70.642C202.146 71.1364 200.718 71.3835 199.099 71.3835ZM217.112 44.8182V71H211.665V44.8182H217.112ZM226.92 44.8182V71H221.474V44.8182H226.92ZM240.232 71.3835C238.212 71.3835 236.473 70.9744 235.016 70.1562C233.567 69.3295 232.45 68.1619 231.666 66.6534C230.882 65.1364 230.49 63.3423 230.49 61.2713C230.49 59.2514 230.882 57.4787 231.666 55.9531C232.45 54.4276 233.554 53.2386 234.977 52.3864C236.409 51.5341 238.088 51.108 240.014 51.108C241.31 51.108 242.516 51.3168 243.632 51.7344C244.757 52.1435 245.737 52.7614 246.572 53.5881C247.416 54.4148 248.072 55.4545 248.541 56.7074C249.01 57.9517 249.244 59.4091 249.244 61.0795V62.5753H232.663V59.2003H244.118C244.118 58.4162 243.947 57.7216 243.607 57.1165C243.266 56.5114 242.793 56.0384 242.188 55.6974C241.591 55.348 240.896 55.1733 240.104 55.1733C239.277 55.1733 238.544 55.3651 237.905 55.7486C237.274 56.1236 236.78 56.6307 236.422 57.2699C236.064 57.9006 235.881 58.6037 235.872 59.3793V62.5881C235.872 63.5597 236.051 64.3991 236.409 65.1065C236.776 65.8139 237.291 66.3594 237.956 66.7429C238.621 67.1264 239.409 67.3182 240.321 67.3182C240.926 67.3182 241.48 67.233 241.983 67.0625C242.486 66.892 242.916 66.6364 243.274 66.2955C243.632 65.9545 243.905 65.5369 244.092 65.0426L249.129 65.375C248.874 66.5852 248.349 67.642 247.557 68.5455C246.773 69.4403 245.759 70.1392 244.514 70.642C243.278 71.1364 241.851 71.3835 240.232 71.3835Z" fill="black"/>
<path d="M96.5024 48.5245C95.7794 46.7484 92.1648 43.8622 90.6633 43.8622C89.8848 43.8622 88.3277 44.6947 87.1043 45.8048C84.6575 48.025 84.2126 48.136 82.9892 46.7484C82.2107 45.9158 82.0438 44.4172 82.0438 37.8677V29.9861L74.3697 29.9861C68.3639 29.9861 66.4731 29.8196 65.4722 29.0981C63.8039 27.988 63.9151 26.8779 65.8614 25.2128C68.8643 22.7151 68.4751 19.5513 64.8048 16.4431C63.3034 15.222 62.5248 15 59.5219 15C56.519 15 55.7405 15.222 54.1834 16.4986C53.238 17.3312 52.0702 18.8298 51.6253 19.8289C51.0136 21.4385 51.0136 21.8825 51.7366 23.2701C52.1814 24.1582 53.238 25.3793 54.0722 26.0453L55.6292 27.2109L54.0722 28.5985C52.5707 29.9306 52.2371 29.9861 44.7297 29.9861H37V37.9232C37 46.5819 37.3893 47.8585 40.281 48.913C41.56 49.4126 41.8937 49.3016 43.1171 47.8585C45.4527 45.1388 46.7317 44.7502 48.9005 46.0268C51.1805 47.4699 52.0146 49.2461 52.0146 52.7983C52.0146 55.296 51.7922 55.8511 50.1239 57.5162C47.6214 60.0139 45.9532 59.9584 43.7288 57.4607C41.6712 55.074 40.281 55.0185 38.4459 57.2387C37.0556 58.9038 37 59.1258 37 66.9519L37 75L45.3971 74.8335L53.7941 74.667L55.1288 73.1129C56.9083 71.0592 56.797 70.2821 54.517 68.2285C52.0146 65.8973 51.959 64.0657 54.3502 61.79C56.1297 60.0694 57.7424 59.6809 61.5795 59.9029C63.5258 59.9584 66.4731 62.9556 66.4731 64.8427C66.4731 65.7863 65.7502 67.0629 64.4156 68.395C62.4136 70.4487 62.358 70.6152 63.1365 72.0583C64.5824 74.556 66.0839 74.9445 74.4253 74.9445H82.0438V67.1184C82.0438 62.8446 82.2663 58.9038 82.5999 58.3488C83.6009 56.4616 84.8243 56.5171 86.7151 58.5708C88.1053 60.0139 89.0507 60.5134 90.3853 60.5134C92.4985 60.5134 95.1121 58.7928 96.2243 56.6281C97.1141 54.9075 97.2809 50.4117 96.5024 48.5245Z" fill="black"/>
</g>
<defs>
<clipPath id="clip0_18_2">
<rect width="300" height="100" fill="white"/>
</clipPath>
</defs>
</svg>
