<svg width="300" height="100" viewBox="0 0 300 100" fill="none" xmlns="http://www.w3.org/2000/svg">
<mask id="mask0_1_10" style="mask-type:luminance" maskUnits="userSpaceOnUse" x="0" y="0" width="300" height="100">
<path d="M300 0H0V100H300V0Z" fill="white"/>
</mask>
<g mask="url(#mask0_1_10)">
<path d="M282.343 0.942993H16.943C8.10644 0.942993 0.942993 8.10644 0.942993 16.943V82.82C0.942993 91.6565 8.10644 98.82 16.943 98.82H282.343C291.18 98.82 298.343 91.6565 298.343 82.82V16.943C298.343 8.10644 291.18 0.942993 282.343 0.942993Z" fill="white" stroke="black" stroke-width="1.88527"/>
<path d="M134.175 44.8182V71H129.393L118.003 54.5213H117.811V71H112.276V44.8182H117.134L128.435 61.2841H128.665V44.8182H134.175ZM147.595 71.3835C145.575 71.3835 143.836 70.9744 142.379 70.1562C140.93 69.3295 139.814 68.1619 139.029 66.6534C138.245 65.1364 137.853 63.3423 137.853 61.2713C137.853 59.2514 138.245 57.4787 139.029 55.9531C139.814 54.4276 140.917 53.2386 142.341 52.3864C143.772 51.5341 145.451 51.108 147.377 51.108C148.673 51.108 149.879 51.3168 150.995 51.7344C152.12 52.1435 153.1 52.7614 153.936 53.5881C154.779 54.4148 155.436 55.4545 155.904 56.7074C156.373 57.9517 156.608 59.4091 156.608 61.0795V62.5753H140.027V59.2003H151.481C151.481 58.4162 151.311 57.7216 150.97 57.1165C150.629 56.5114 150.156 56.0384 149.551 55.6974C148.954 55.348 148.26 55.1733 147.467 55.1733C146.64 55.1733 145.907 55.3651 145.268 55.7486C144.637 56.1236 144.143 56.6307 143.785 57.2699C143.427 57.9006 143.244 58.6037 143.235 59.3793V62.5881C143.235 63.5597 143.414 64.3991 143.772 65.1065C144.139 65.8139 144.654 66.3594 145.319 66.7429C145.984 67.1264 146.772 67.3182 147.684 67.3182C148.289 67.3182 148.843 67.233 149.346 67.0625C149.849 66.892 150.279 66.6364 150.637 66.2955C150.995 65.9545 151.268 65.5369 151.456 65.0426L156.493 65.375C156.237 66.5852 155.713 67.642 154.92 68.5455C154.136 69.4403 153.122 70.1392 151.877 70.642C150.642 71.1364 149.214 71.3835 147.595 71.3835ZM163.895 71L158.551 51.3636H164.061L167.103 64.5568H167.282L170.453 51.3636H175.86L179.082 64.4801H179.248L182.24 51.3636H187.737L182.406 71H176.64L173.265 58.6506H173.022L169.647 71H163.895ZM199.099 71.3835C197.079 71.3835 195.34 70.9744 193.883 70.1562C192.434 69.3295 191.317 68.1619 190.533 66.6534C189.749 65.1364 189.357 63.3423 189.357 61.2713C189.357 59.2514 189.749 57.4787 190.533 55.9531C191.317 54.4276 192.421 53.2386 193.844 52.3864C195.276 51.5341 196.955 51.108 198.881 51.108C200.177 51.108 201.383 51.3168 202.499 51.7344C203.624 52.1435 204.604 52.7614 205.44 53.5881C206.283 54.4148 206.94 55.4545 207.408 56.7074C207.877 57.9517 208.112 59.4091 208.112 61.0795V62.5753H191.531V59.2003H202.985C202.985 58.4162 202.815 57.7216 202.474 57.1165C202.133 56.5114 201.66 56.0384 201.055 55.6974C200.458 55.348 199.763 55.1733 198.971 55.1733C198.144 55.1733 197.411 55.3651 196.772 55.7486C196.141 56.1236 195.647 56.6307 195.289 57.2699C194.931 57.9006 194.748 58.6037 194.739 59.3793V62.5881C194.739 63.5597 194.918 64.3991 195.276 65.1065C195.643 65.8139 196.158 66.3594 196.823 66.7429C197.488 67.1264 198.276 67.3182 199.188 67.3182C199.793 67.3182 200.347 67.233 200.85 67.0625C201.353 66.892 201.783 66.6364 202.141 66.2955C202.499 65.9545 202.772 65.5369 202.96 65.0426L207.996 65.375C207.741 66.5852 207.217 67.642 206.424 68.5455C205.64 69.4403 204.626 70.1392 203.381 70.642C202.146 71.1364 200.718 71.3835 199.099 71.3835ZM217.112 44.8182V71H211.665V44.8182H217.112ZM226.92 44.8182V71H221.474V44.8182H226.92ZM240.232 71.3835C238.212 71.3835 236.473 70.9744 235.016 70.1562C233.567 69.3295 232.45 68.1619 231.666 66.6534C230.882 65.1364 230.49 63.3423 230.49 61.2713C230.49 59.2514 230.882 57.4787 231.666 55.9531C232.45 54.4276 233.554 53.2386 234.977 52.3864C236.409 51.5341 238.088 51.108 240.014 51.108C241.31 51.108 242.516 51.3168 243.632 51.7344C244.757 52.1435 245.737 52.7614 246.572 53.5881C247.416 54.4148 248.072 55.4545 248.541 56.7074C249.01 57.9517 249.244 59.4091 249.244 61.0795V62.5753H232.663V59.2003H244.118C244.118 58.4162 243.947 57.7216 243.607 57.1165C243.266 56.5114 242.793 56.0384 242.188 55.6974C241.591 55.348 240.896 55.1733 240.104 55.1733C239.277 55.1733 238.544 55.3651 237.905 55.7486C237.274 56.1236 236.78 56.6307 236.422 57.2699C236.064 57.9006 235.881 58.6037 235.872 59.3793V62.5881C235.872 63.5597 236.051 64.3991 236.409 65.1065C236.776 65.8139 237.291 66.3594 237.956 66.7429C238.621 67.1264 239.409 67.3182 240.321 67.3182C240.926 67.3182 241.48 67.233 241.983 67.0625C242.486 66.892 242.916 66.6364 243.274 66.2955C243.632 65.9545 243.905 65.5369 244.092 65.0426L249.129 65.375C248.874 66.5852 248.349 67.642 247.557 68.5455C246.773 69.4403 245.759 70.1392 244.514 70.642C243.278 71.1364 241.851 71.3835 240.232 71.3835Z" fill="black"/>
<path d="M58.3667 49.05C57.6667 49.15 57.1834 49.7834 57.2834 50.4667C57.3501 50.9667 57.7167 51.3834 58.2001 51.5167C58.2001 51.5167 61.2834 52.5334 66.5334 52.9667C70.7501 53.3167 75.5334 52.6667 75.5334 52.6667C76.2334 52.65 76.7834 52.0667 76.7667 51.3667C76.7501 50.6667 76.1667 50.1167 75.4667 50.1334C75.3834 50.1334 75.3001 50.15 75.2167 50.1667C75.2167 50.1667 70.5334 50.75 66.7334 50.4334C61.7167 50.0334 58.9834 49.1167 58.9834 49.1167C58.7834 49.05 58.5667 49.0167 58.3667 49.05ZM58.3667 42.7667C57.6667 42.8667 57.1834 43.5 57.2834 44.1834C57.3501 44.6834 57.7167 45.1 58.2001 45.2334C58.2001 45.2334 61.2834 46.25 66.5334 46.6834C70.7501 47.0334 75.5334 46.3834 75.5334 46.3834C76.2334 46.3667 76.7834 45.7834 76.7667 45.0834C76.7501 44.3834 76.1667 43.8334 75.4667 43.85C75.3834 43.85 75.3001 43.8667 75.2167 43.8834C75.2167 43.8834 70.5334 44.4667 66.7334 44.15C61.7167 43.75 58.9834 42.8334 58.9834 42.8334C58.7834 42.7667 58.5667 42.7334 58.3667 42.7667ZM58.3667 36.4834C57.6667 36.5834 57.1834 37.2167 57.2834 37.9C57.3501 38.4 57.7167 38.8167 58.2001 38.95C58.2001 38.95 61.2834 39.9667 66.5334 40.4C70.7501 40.75 75.5334 40.1 75.5334 40.1C76.2334 40.0834 76.7834 39.5 76.7667 38.8C76.7501 38.1 76.1667 37.55 75.4667 37.5667C75.3834 37.5667 75.3001 37.5834 75.2167 37.6C75.2167 37.6 70.5334 38.1834 66.7334 37.8667C61.7167 37.4667 58.9834 36.55 58.9834 36.55C58.7834 36.4834 58.5667 36.4667 58.3667 36.4834ZM58.3667 30.2167C57.6667 30.3167 57.1834 30.95 57.2834 31.6334C57.3501 32.1334 57.7167 32.55 58.2001 32.6834C58.2001 32.6834 61.2834 33.7 66.5334 34.1334C70.7501 34.4834 75.5334 33.8334 75.5334 33.8334C76.2334 33.8167 76.7834 33.2334 76.7667 32.5334C76.7501 31.8334 76.1667 31.2834 75.4667 31.3C75.3834 31.3 75.3001 31.3167 75.2167 31.3334C75.2167 31.3334 70.5334 31.9167 66.7334 31.6C61.7167 31.2 58.9834 30.2834 58.9834 30.2834C58.7834 30.2 58.5667 30.1834 58.3667 30.2167ZM49.5667 23.5834C42.9667 23.6334 40.5167 25.6667 40.5167 25.6667V74.95C40.5167 74.95 42.9167 72.8834 50.6501 73.2C58.3834 73.5167 59.9667 76.2334 69.4667 76.4167C78.9667 76.6 81.3501 74.95 81.3501 74.95L81.4834 24.7167C81.4834 24.7167 77.2167 25.9334 68.8834 26C60.5667 26.0667 58.5667 23.8834 50.9334 23.6334C50.4667 23.6 50.0167 23.5834 49.5667 23.5834ZM55.0834 26.8C55.0834 26.8 59.0834 28.1167 66.4667 28.4834C72.7167 28.8 78.9667 27.8667 78.9667 27.8667V72.5167C78.9667 72.5167 75.8001 74.1834 67.8834 73.6167C61.7501 73.1834 55.0001 70.85 55.0001 70.85L55.0834 26.8ZM51.2334 27.9667C51.9334 27.9667 52.5167 28.5334 52.5167 29.25C52.5167 29.95 51.9501 30.5334 51.2334 30.5334C51.2334 30.5334 49.1667 30.55 47.9001 30.6667C45.7834 30.8834 44.3334 31.65 44.3334 31.65C43.7167 31.9834 42.9334 31.7334 42.6167 31.1167C42.2834 30.5 42.5334 29.7167 43.1501 29.4C43.1501 29.4 45.0334 28.4 47.6501 28.15C49.1667 27.9834 51.2334 27.9667 51.2334 27.9667ZM50.0001 34.2667C50.7001 34.25 51.2334 34.2667 51.2334 34.2667C51.9334 34.35 52.4334 34.9834 52.3501 35.6834C52.2834 36.2667 51.8167 36.7334 51.2334 36.8C51.2334 36.8 49.1667 36.8167 47.9001 36.9334C45.7834 37.15 44.3334 37.9167 44.3334 37.9167C43.7167 38.25 42.9334 38 42.6167 37.3834C42.2834 36.7667 42.5334 35.9834 43.1501 35.6667C43.1501 35.6667 45.0334 34.6667 47.6501 34.4167C48.4167 34.3167 49.3001 34.2834 50.0001 34.2667ZM51.2334 40.5334C51.9334 40.5334 52.5167 41.1 52.5167 41.8167C52.5167 42.5334 51.9501 43.1 51.2334 43.1C51.2334 43.1 49.1667 43.0834 47.9001 43.2167C45.7834 43.4334 44.3334 44.2 44.3334 44.2C43.7167 44.5334 42.9334 44.2834 42.6167 43.6667C42.2834 43.05 42.5334 42.2667 43.1501 41.95C43.1501 41.95 45.0334 40.95 47.6501 40.7C49.1667 40.5167 51.2334 40.5334 51.2334 40.5334Z" fill="black"/>
<path d="M114.743 37L111.362 24.6364H112.884L115.467 34.706H115.588L118.22 24.6364H119.911L122.543 34.706H122.663L125.247 24.6364H126.768L123.388 37H121.842L119.114 27.1477H119.017L116.288 37H114.743ZM131.059 37V27.7273H132.483V37H131.059ZM131.783 26.1818C131.505 26.1818 131.266 26.0872 131.065 25.8981C130.868 25.7089 130.769 25.4815 130.769 25.2159C130.769 24.9503 130.868 24.7229 131.065 24.5337C131.266 24.3446 131.505 24.25 131.783 24.25C132.061 24.25 132.298 24.3446 132.495 24.5337C132.697 24.7229 132.797 24.9503 132.797 25.2159C132.797 25.4815 132.697 25.7089 132.495 25.8981C132.298 26.0872 132.061 26.1818 131.783 26.1818ZM139.039 33.6193L139.015 31.8565H139.305L143.361 27.7273H145.124L140.802 32.098H140.681L139.039 33.6193ZM137.711 37V24.6364H139.136V37H137.711ZM143.603 37L139.981 32.4119L140.995 31.4219L145.414 37H143.603ZM149.576 37V27.7273H151.001V37H149.576ZM150.3 26.1818C150.023 26.1818 149.783 26.0872 149.582 25.8981C149.385 25.7089 149.286 25.4815 149.286 25.2159C149.286 24.9503 149.385 24.7229 149.582 24.5337C149.783 24.3446 150.023 24.25 150.3 24.25C150.578 24.25 150.816 24.3446 151.013 24.5337C151.214 24.7229 151.315 24.9503 151.315 25.2159C151.315 25.4815 151.214 25.7089 151.013 25.8981C150.816 26.0872 150.578 26.1818 150.3 26.1818ZM167.757 27.7273V28.9347H162.758V27.7273H167.757ZM164.255 37V26.4474C164.255 25.9162 164.38 25.4735 164.63 25.1193C164.879 24.7652 165.203 24.4995 165.601 24.3224C166 24.1454 166.42 24.0568 166.863 24.0568C167.213 24.0568 167.499 24.085 167.72 24.1413C167.942 24.1977 168.107 24.25 168.215 24.2983L167.805 25.5298C167.732 25.5057 167.632 25.4755 167.503 25.4393C167.378 25.4031 167.213 25.3849 167.008 25.3849C166.537 25.3849 166.197 25.5037 165.988 25.7411C165.783 25.9786 165.68 26.3267 165.68 26.7855V37H164.255ZM175.757 37.1932C174.919 37.1932 174.185 36.994 173.553 36.5955C172.925 36.1971 172.434 35.6397 172.08 34.9233C171.73 34.2069 171.555 33.3698 171.555 32.4119C171.555 31.446 171.73 30.6029 172.08 29.8825C172.434 29.162 172.925 28.6026 173.553 28.2042C174.185 27.8058 174.919 27.6065 175.757 27.6065C176.594 27.6065 177.326 27.8058 177.954 28.2042C178.586 28.6026 179.077 29.162 179.427 29.8825C179.781 30.6029 179.958 31.446 179.958 32.4119C179.958 33.3698 179.781 34.2069 179.427 34.9233C179.077 35.6397 178.586 36.1971 177.954 36.5955C177.326 36.994 176.594 37.1932 175.757 37.1932ZM175.757 35.9134C176.392 35.9134 176.916 35.7504 177.326 35.4244C177.737 35.0984 178.041 34.6697 178.238 34.1385C178.435 33.6072 178.534 33.0317 178.534 32.4119C178.534 31.7921 178.435 31.2146 178.238 30.6793C178.041 30.1441 177.737 29.7114 177.326 29.3814C176.916 29.0514 176.392 28.8864 175.757 28.8864C175.121 28.8864 174.597 29.0514 174.187 29.3814C173.776 29.7114 173.473 30.1441 173.275 30.6793C173.078 31.2146 172.98 31.7921 172.98 32.4119C172.98 33.0317 173.078 33.6072 173.275 34.1385C173.473 34.6697 173.776 35.0984 174.187 35.4244C174.597 35.7504 175.121 35.9134 175.757 35.9134ZM184.751 37V27.7273H186.127V29.1278H186.224C186.393 28.669 186.699 28.2968 187.142 28.011C187.584 27.7253 188.083 27.5824 188.639 27.5824C188.743 27.5824 188.874 27.5844 189.031 27.5884C189.188 27.5924 189.307 27.5985 189.387 27.6065V29.0554C189.339 29.0433 189.228 29.0252 189.055 29.0011C188.886 28.9729 188.707 28.9588 188.518 28.9588C188.067 28.9588 187.665 29.0534 187.311 29.2425C186.961 29.4277 186.683 29.6853 186.478 30.0153C186.276 30.3413 186.176 30.7135 186.176 31.1321V37H184.751Z" fill="black"/>
</g>
</svg>
