<svg width="73" height="24" viewBox="0 0 73 24" fill="none" xmlns="http://www.w3.org/2000/svg">
<rect width="73" height="24" rx="12" fill="#99C1F1"/>
<path d="M27.6284 8.02075H28.8357L33.1819 14.6973V8.02075H34.1365V16H32.9292L28.583 9.31226V16H27.6284V8.02075ZM38.1435 10.3455C38.413 10.3455 38.6545 10.3792 38.8679 10.4465C39.085 10.5102 39.2647 10.5925 39.4069 10.6936C39.5492 10.7947 39.6708 10.9276 39.7719 11.0923C39.8767 11.2533 39.9554 11.4105 40.0078 11.564C40.0639 11.7137 40.107 11.8953 40.1369 12.1086C40.1669 12.322 40.1856 12.5073 40.1931 12.6646C40.2006 12.8218 40.2043 13.0071 40.2043 13.2205V13.6584H36.3916C36.3916 13.8606 36.4365 14.0627 36.5263 14.2649C36.6199 14.4633 36.7491 14.6467 36.9138 14.8152C37.0822 14.9799 37.3012 15.1147 37.5708 15.2195C37.844 15.3243 38.1454 15.3767 38.4748 15.3767C38.8641 15.3767 39.2853 15.3093 39.7382 15.1746L39.9011 15.8035C39.2984 16.0094 38.7069 16.1123 38.1267 16.1123C37.7186 16.1123 37.3555 16.058 37.0373 15.9495C36.7229 15.8409 36.4683 15.7005 36.2736 15.5283C36.0827 15.3524 35.9255 15.1427 35.802 14.8994C35.6784 14.6561 35.5923 14.4146 35.5437 14.175C35.4987 13.9317 35.4763 13.6753 35.4763 13.4058C35.4763 12.9902 35.5268 12.6103 35.6279 12.2659C35.729 11.9215 35.8656 11.6332 36.0378 11.4011C36.21 11.1653 36.4103 10.9669 36.6386 10.8059C36.8707 10.6449 37.1122 10.5289 37.363 10.4578C37.6175 10.3829 37.8777 10.3455 38.1435 10.3455ZM37.947 11.1428C37.6175 11.1428 37.333 11.2345 37.0935 11.418C36.8576 11.5977 36.6854 11.8223 36.5769 12.0918C36.4683 12.3613 36.414 12.6514 36.414 12.9622H39.3115C39.3115 11.7493 38.8566 11.1428 37.947 11.1428ZM40.6962 10.4521H41.6789L43.1837 15.1072L44.61 10.4521H45.5141L46.9965 15.1016L48.5014 10.4521H49.484L47.4569 16H46.5304L45.0536 11.5022L43.5937 16H42.6671L40.6962 10.4521ZM52.6488 10.3455C52.9183 10.3455 53.1598 10.3792 53.3731 10.4465C53.5903 10.5102 53.77 10.5925 53.9122 10.6936C54.0545 10.7947 54.1761 10.9276 54.2772 11.0923C54.382 11.2533 54.4606 11.4105 54.513 11.564C54.5692 11.7137 54.6122 11.8953 54.6422 12.1086C54.6721 12.322 54.6909 12.5073 54.6983 12.6646C54.7058 12.8218 54.7096 13.0071 54.7096 13.2205V13.6584H50.8968C50.8968 13.8606 50.9417 14.0627 51.0316 14.2649C51.1252 14.4633 51.2543 14.6467 51.419 14.8152C51.5875 14.9799 51.8065 15.1147 52.076 15.2195C52.3493 15.3243 52.6507 15.3767 52.9801 15.3767C53.3694 15.3767 53.7905 15.3093 54.2435 15.1746L54.4063 15.8035C53.8036 16.0094 53.2122 16.1123 52.6319 16.1123C52.2239 16.1123 51.8608 16.058 51.5426 15.9495C51.2281 15.8409 50.9736 15.7005 50.7789 15.5283C50.588 15.3524 50.4308 15.1427 50.3072 14.8994C50.1837 14.6561 50.0976 14.4146 50.0489 14.175C50.004 13.9317 49.9815 13.6753 49.9815 13.4058C49.9815 12.9902 50.0321 12.6103 50.1332 12.2659C50.2342 11.9215 50.3709 11.6332 50.5431 11.4011C50.7153 11.1653 50.9155 10.9669 51.1439 10.8059C51.376 10.6449 51.6174 10.5289 51.8683 10.4578C52.1228 10.3829 52.383 10.3455 52.6488 10.3455ZM52.4522 11.1428C52.1228 11.1428 51.8383 11.2345 51.5987 11.418C51.3629 11.5977 51.1907 11.8223 51.0821 12.0918C50.9736 12.3613 50.9193 12.6514 50.9193 12.9622H53.8167C53.8167 11.7493 53.3619 11.1428 52.4522 11.1428ZM55.9876 7.51538H56.9085V16H55.9876V7.51538ZM58.5796 7.51538H59.5005V16H58.5796V7.51538ZM63.4458 10.3455C63.7153 10.3455 63.9567 10.3792 64.1701 10.4465C64.3872 10.5102 64.5669 10.5925 64.7092 10.6936C64.8514 10.7947 64.9731 10.9276 65.0742 11.0923C65.179 11.2533 65.2576 11.4105 65.31 11.564C65.3662 11.7137 65.4092 11.8953 65.4392 12.1086C65.4691 12.322 65.4878 12.5073 65.4953 12.6646C65.5028 12.8218 65.5065 13.0071 65.5065 13.2205V13.6584H61.6938C61.6938 13.8606 61.7387 14.0627 61.8286 14.2649C61.9222 14.4633 62.0513 14.6467 62.216 14.8152C62.3845 14.9799 62.6035 15.1147 62.873 15.2195C63.1463 15.3243 63.4476 15.3767 63.7771 15.3767C64.1664 15.3767 64.5875 15.3093 65.0405 15.1746L65.2033 15.8035C64.6006 16.0094 64.0091 16.1123 63.4289 16.1123C63.0209 16.1123 62.6577 16.058 62.3396 15.9495C62.0251 15.8409 61.7705 15.7005 61.5759 15.5283C61.385 15.3524 61.2277 15.1427 61.1042 14.8994C60.9807 14.6561 60.8946 14.4146 60.8459 14.175C60.801 13.9317 60.7785 13.6753 60.7785 13.4058C60.7785 12.9902 60.8291 12.6103 60.9301 12.2659C61.0312 11.9215 61.1678 11.6332 61.34 11.4011C61.5122 11.1653 61.7125 10.9669 61.9409 10.8059C62.173 10.6449 62.4144 10.5289 62.6652 10.4578C62.9198 10.3829 63.18 10.3455 63.4458 10.3455ZM63.2492 11.1428C62.9198 11.1428 62.6353 11.2345 62.3957 11.418C62.1599 11.5977 61.9877 11.8223 61.8791 12.0918C61.7705 12.3613 61.7163 12.6514 61.7163 12.9622H64.6137C64.6137 11.7493 64.1589 11.1428 63.2492 11.1428Z" fill="#003D81"/>
<path fill-rule="evenodd" clip-rule="evenodd" d="M5.99997 7.40426C5.99997 5.52414 7.52411 4 9.40422 4H14.3404C16.2205 4 17.7446 5.52414 17.7446 7.40426V9.10638H18.5957C20.4758 9.10638 22 10.6305 22 12.5106V20H13.7447C11.8645 20 10.3404 18.4758 10.3404 16.5957V14.8936H5.99997V7.40426ZM10.5547 11.3191C10.4162 11.69 10.3404 12.0915 10.3404 12.5106V12.6809H8.04252C7.6665 12.6809 7.36167 12.376 7.36167 12C7.36167 11.624 7.6665 11.3191 8.04252 11.3191H10.5547ZM16.1738 15.1272C16.9105 14.7466 16.9105 13.6931 16.1738 13.3125L13.121 11.7355C12.7869 11.5629 12.3761 11.6939 12.2036 12.0279C12.031 12.362 12.1619 12.7728 12.496 12.9454L14.9633 14.2199L12.496 15.4945C12.1619 15.667 12.031 16.0777 12.2036 16.4118C12.3761 16.7459 12.7869 16.8769 13.121 16.7043L16.1738 15.1272ZM16.2127 16.5957C15.8367 16.5957 15.5319 16.9006 15.5319 17.2766C15.5319 17.6526 15.8367 17.9574 16.2127 17.9574H19.617C19.993 17.9574 20.2978 17.6526 20.2978 17.2766C20.2978 16.9006 19.993 16.5957 19.617 16.5957H16.2127Z" fill="#003D81"/>
</svg>
