<svg width="50" height="24" viewBox="0 0 50 24" fill="none" xmlns="http://www.w3.org/2000/svg">
<rect width="50" height="24" rx="12" fill="#C1DCF0"/>
<path d="M27.6284 8.02075H28.8357L33.1819 14.6973V8.02075H34.1365V16H32.9292L28.583 9.31226V16H27.6284V8.02075ZM35.6728 8.02075H36.7622V9.08203H35.6728V8.02075ZM35.757 10.4521H36.6779V16H35.757V10.4521ZM37.4787 10.4521H38.5456L40.1122 12.6533L41.6227 10.4521H42.6054L40.5614 13.2822L42.4987 16H41.4318L39.9438 13.9167L38.5287 16H37.546L39.4889 13.2766L37.4787 10.4521Z" fill="#5277C3"/>
<path fill-rule="evenodd" clip-rule="evenodd" d="M12.125 8.94687L7.86438 16.85L6.86875 15.0437L8.01812 12.9269L5.73625 12.9206L5.25 12.0181L5.75 11.095L9 11.1062L10.1675 8.95187L12.125 8.94687Z" fill="#5277C3"/>
<path fill-rule="evenodd" clip-rule="evenodd" d="M12.4544 15.2644H20.9794L20.0163 17.0906L17.73 17.0837L18.8656 19.2019L18.3788 20.1075H17.3831L15.7681 17.0919L13.4419 17.0869L12.4544 15.2644Z" fill="#5277C3"/>
<path fill-rule="evenodd" clip-rule="evenodd" d="M17.4169 11.8012L13.1544 3.89811L15.1131 3.87811L16.25 5.99999L17.3963 3.88811H18.3694L18.8663 4.81249L17.2338 7.81686L18.3925 9.97624L17.4169 11.8012Z" fill="#5277C3"/>
<path fill-rule="evenodd" clip-rule="evenodd" d="M10.5888 12.2025L14.8519 20.1056L12.8931 20.125L11.755 18L10.6088 20.1125H9.63501L9.13501 19.19L10.7694 16.1875L9.61001 14.0269L10.5888 12.2025Z" fill="#5277C3"/>
<path fill-rule="evenodd" clip-rule="evenodd" d="M15.54 8.71938H7.01437L7.97812 6.89312L10.2644 6.9L9.12937 4.78188L9.61625 3.875H10.6112L12.2262 6.89062L14.5525 6.89563L15.54 8.71938Z" fill="#5277C3"/>
<path fill-rule="evenodd" clip-rule="evenodd" d="M15.875 15.055L20.1356 7.1525L21.1312 8.95875L19.9819 11.075L22.2638 11.0812L22.75 11.9869L22.25 12.91L19 12.8987L17.8325 15.0531L15.875 15.055Z" fill="#5277C3"/>
</svg>
