<svg width="114" height="24" viewBox="0 0 114 24" fill="none" xmlns="http://www.w3.org/2000/svg">
<rect width="114" height="24" rx="12" fill="#3D4959"/>
<path d="M27.6284 8.02075H28.8357L33.1819 14.6973V8.02075H34.1365V16H32.9292L28.583 9.31226V16H27.6284V8.02075ZM35.0271 10.4521H36.0378L37.8122 15.1577L39.4631 10.4521H40.4177L37.217 18.9817H36.2343L37.3461 16.2751L35.0271 10.4521ZM42.9704 10.3455C43.3821 10.3455 43.7303 10.3941 44.0148 10.4915C44.303 10.585 44.5239 10.7236 44.6774 10.907C44.8346 11.0904 44.9469 11.2944 45.0143 11.519C45.0817 11.7437 45.1154 12.002 45.1154 12.2939V16H44.464L44.2506 15.4946C43.7977 15.9064 43.2773 16.1123 42.6896 16.1123C42.1655 16.1123 41.7219 15.9551 41.3588 15.6406C40.9957 15.3224 40.8141 14.9518 40.8141 14.5288C40.8141 14.3042 40.8553 14.1021 40.9376 13.9224C41.02 13.7427 41.1379 13.5929 41.2914 13.4731C41.4486 13.3534 41.6264 13.2523 41.8249 13.1699C42.0233 13.0838 42.2535 13.0183 42.5155 12.9734C42.7813 12.9285 43.0471 12.8966 43.3129 12.8779C43.5787 12.8592 43.8707 12.8499 44.1889 12.8499V12.4119C44.1889 12.2846 44.1833 12.1742 44.172 12.0806C44.1645 11.987 44.1346 11.8747 44.0822 11.7437C44.0298 11.6126 43.9586 11.5059 43.8688 11.4236C43.779 11.3375 43.6442 11.2645 43.4645 11.2046C43.2848 11.141 43.0714 11.1091 42.8244 11.1091C42.4425 11.1091 41.9484 11.1934 41.3419 11.3618L41.1679 10.688C41.7818 10.4596 42.3826 10.3455 42.9704 10.3455ZM44.1889 13.5461H43.8463C43.633 13.5461 43.4477 13.5499 43.2904 13.5574C43.1332 13.5649 42.9479 13.5873 42.7345 13.6248C42.5249 13.6584 42.3527 13.7071 42.2179 13.7708C42.0832 13.8344 41.9671 13.928 41.8698 14.0515C41.7762 14.1713 41.7294 14.3154 41.7294 14.4839C41.7294 14.7197 41.8473 14.9294 42.0832 15.1128C42.3227 15.2962 42.6072 15.3879 42.9367 15.3879C43.4196 15.3879 43.837 15.1989 44.1889 14.8208V13.5461ZM47.3873 10.8677C47.8552 10.5195 48.3718 10.3455 48.9371 10.3455C49.3264 10.3455 49.6802 10.4185 49.9984 10.5645L49.7176 11.3C49.4256 11.1877 49.1224 11.1316 48.808 11.1316C48.34 11.1316 47.9002 11.2607 47.4884 11.519V16H46.5675V10.4521H47.2132L47.3873 10.8677ZM50.2151 13.3552C50.2151 12.9172 50.2675 12.5242 50.3724 12.176C50.4772 11.8241 50.6157 11.5378 50.7879 11.3169C50.9638 11.0923 51.1697 10.907 51.4056 10.761C51.6414 10.6112 51.8829 10.5064 52.1299 10.4465C52.377 10.3829 52.6353 10.3511 52.9048 10.3511C53.4364 10.3511 53.9549 10.4615 54.4603 10.6824L54.2356 11.3562C53.8201 11.2139 53.4139 11.1428 53.0171 11.1428C52.8225 11.1428 52.639 11.1615 52.4668 11.199C52.2946 11.2327 52.1224 11.2963 51.9502 11.3899C51.7818 11.4835 51.6358 11.6051 51.5123 11.7549C51.3925 11.9009 51.2951 12.0937 51.2203 12.3333C51.1454 12.5728 51.108 12.848 51.108 13.1587C51.108 13.4993 51.1473 13.8007 51.2259 14.0627C51.3045 14.321 51.4074 14.5307 51.5347 14.6917C51.662 14.8526 51.8136 14.9836 51.9896 15.0847C52.1692 15.1858 52.3489 15.2569 52.5286 15.2981C52.712 15.3355 52.9086 15.3542 53.1182 15.3542C53.4701 15.3542 53.822 15.2925 54.1739 15.1689L54.3985 15.8035C53.8669 16.0094 53.3335 16.1123 52.7981 16.1123C52.5511 16.1123 52.3134 16.088 52.085 16.0393C51.8604 15.9906 51.6302 15.9027 51.3943 15.7754C51.1622 15.6444 50.9601 15.4797 50.7879 15.2812C50.6194 15.0828 50.4809 14.8189 50.3724 14.4895C50.2675 14.1563 50.2151 13.7782 50.2151 13.3552ZM58.0068 11.1709C57.5688 11.1709 57.0747 11.315 56.5244 11.6033V16H55.6035V7.51538H56.5244V10.8733C57.1795 10.5251 57.7935 10.3511 58.3662 10.3511C58.6133 10.3511 58.8341 10.3829 59.0288 10.4465C59.2272 10.5102 59.3901 10.5907 59.5173 10.688C59.6446 10.7816 59.7532 10.9051 59.843 11.0586C59.9366 11.2083 60.0059 11.3506 60.0508 11.4854C60.0994 11.6164 60.135 11.7736 60.1575 11.957C60.1837 12.1405 60.1986 12.2902 60.2024 12.4062C60.2099 12.5223 60.2136 12.6589 60.2136 12.8162V16H59.2703V12.6477C59.2703 11.6632 58.8491 11.1709 58.0068 11.1709ZM66.7902 8.02075H67.8739L70.7096 16H69.7438L68.9352 13.6809H65.6447L64.8361 16H63.9545L66.7902 8.02075ZM67.2899 8.95288L65.9311 12.8442H68.6432L67.2899 8.95288ZM73.734 10.3455C73.8126 10.3455 73.8856 10.3473 73.953 10.3511C74.0241 10.3511 74.0915 10.3548 74.1551 10.3623C74.2225 10.3698 74.2787 10.3754 74.3236 10.3792C74.3723 10.3829 74.4265 10.3904 74.4864 10.4016C74.5501 10.4128 74.595 10.4222 74.6212 10.4297C74.6511 10.4334 74.6979 10.4447 74.7616 10.4634C74.829 10.4784 74.8701 10.4877 74.8851 10.4915C74.9001 10.4952 74.9431 10.5083 75.0143 10.5308C75.0891 10.5532 75.1322 10.5663 75.1434 10.5701L74.9076 11.272C74.4059 11.1335 73.9642 11.0642 73.5824 11.0642C73.3615 11.0642 73.165 11.0867 72.9928 11.1316C72.8243 11.1765 72.6933 11.2308 72.5997 11.2944C72.5099 11.3581 72.435 11.4329 72.3751 11.519C72.3189 11.6014 72.2815 11.6744 72.2628 11.738C72.2478 11.8017 72.2403 11.8634 72.2403 11.9233C72.2403 12.0768 72.3189 12.2135 72.4762 12.3333C72.6371 12.453 72.8355 12.5504 73.0714 12.6252C73.311 12.7001 73.5693 12.79 73.8463 12.8948C74.1233 12.9958 74.3797 13.1044 74.6156 13.2205C74.8552 13.3328 75.0536 13.4919 75.2108 13.6978C75.3718 13.9036 75.4522 14.1414 75.4522 14.4109C75.4522 14.5644 75.4317 14.7141 75.3905 14.8601C75.353 15.0024 75.2782 15.1521 75.1659 15.3093C75.0573 15.4666 74.9151 15.6032 74.7391 15.7192C74.5669 15.8315 74.3348 15.9251 74.0428 16C73.7508 16.0749 73.4158 16.1123 73.0377 16.1123C72.4649 16.1123 71.836 15.9719 71.151 15.6912L71.4093 14.9949C71.7949 15.1371 72.1093 15.2382 72.3526 15.2981C72.5997 15.358 72.8412 15.3879 73.077 15.3879C73.9904 15.3879 74.4471 15.0978 74.4471 14.5176C74.4471 14.3903 74.4022 14.278 74.3124 14.1807C74.2225 14.0833 74.1027 14.0047 73.953 13.9448C73.8032 13.8812 73.6329 13.8175 73.442 13.7539C73.2548 13.6865 73.062 13.6248 72.8636 13.5686C72.669 13.5125 72.4762 13.4395 72.2853 13.3496C72.0981 13.256 71.9296 13.1549 71.7799 13.0464C71.6301 12.9341 71.5104 12.79 71.4205 12.614C71.3307 12.4381 71.2857 12.2397 71.2857 12.0188C71.2857 11.884 71.3063 11.7474 71.3475 11.6089C71.3924 11.4666 71.4729 11.3188 71.589 11.1653C71.7088 11.0081 71.8566 10.8714 72.0326 10.7554C72.2085 10.6356 72.4425 10.5382 72.7345 10.4634C73.0302 10.3848 73.3634 10.3455 73.734 10.3455ZM78.8641 10.3455C78.9427 10.3455 79.0157 10.3473 79.0831 10.3511C79.1542 10.3511 79.2216 10.3548 79.2852 10.3623C79.3526 10.3698 79.4087 10.3754 79.4537 10.3792C79.5023 10.3829 79.5566 10.3904 79.6165 10.4016C79.6801 10.4128 79.7251 10.4222 79.7513 10.4297C79.7812 10.4334 79.828 10.4447 79.8917 10.4634C79.959 10.4784 80.0002 10.4877 80.0152 10.4915C80.0302 10.4952 80.0732 10.5083 80.1443 10.5308C80.2192 10.5532 80.2623 10.5663 80.2735 10.5701L80.0376 11.272C79.536 11.1335 79.0943 11.0642 78.7125 11.0642C78.4916 11.0642 78.2951 11.0867 78.1229 11.1316C77.9544 11.1765 77.8234 11.2308 77.7298 11.2944C77.6399 11.3581 77.5651 11.4329 77.5052 11.519C77.449 11.6014 77.4116 11.6744 77.3929 11.738C77.3779 11.8017 77.3704 11.8634 77.3704 11.9233C77.3704 12.0768 77.449 12.2135 77.6063 12.3333C77.7672 12.453 77.9656 12.5504 78.2015 12.6252C78.441 12.7001 78.6993 12.79 78.9764 12.8948C79.2534 12.9958 79.5098 13.1044 79.7457 13.2205C79.9852 13.3328 80.1836 13.4919 80.3409 13.6978C80.5018 13.9036 80.5823 14.1414 80.5823 14.4109C80.5823 14.5644 80.5617 14.7141 80.5206 14.8601C80.4831 15.0024 80.4083 15.1521 80.2959 15.3093C80.1874 15.4666 80.0451 15.6032 79.8692 15.7192C79.697 15.8315 79.4649 15.9251 79.1729 16C78.8809 16.0749 78.5459 16.1123 78.1678 16.1123C77.595 16.1123 76.9661 15.9719 76.2811 15.6912L76.5394 14.9949C76.9249 15.1371 77.2394 15.2382 77.4827 15.2981C77.7298 15.358 77.9712 15.3879 78.2071 15.3879C79.1205 15.3879 79.5772 15.0978 79.5772 14.5176C79.5772 14.3903 79.5323 14.278 79.4424 14.1807C79.3526 14.0833 79.2328 14.0047 79.0831 13.9448C78.9333 13.8812 78.763 13.8175 78.5721 13.7539C78.3849 13.6865 78.1921 13.6248 77.9937 13.5686C77.799 13.5125 77.6063 13.4395 77.4153 13.3496C77.2282 13.256 77.0597 13.1549 76.91 13.0464C76.7602 12.9341 76.6404 12.79 76.5506 12.614C76.4607 12.4381 76.4158 12.2397 76.4158 12.0188C76.4158 11.884 76.4364 11.7474 76.4776 11.6089C76.5225 11.4666 76.603 11.3188 76.719 11.1653C76.8388 11.0081 76.9867 10.8714 77.1626 10.7554C77.3386 10.6356 77.5726 10.5382 77.8646 10.4634C78.1603 10.3848 78.4935 10.3455 78.8641 10.3455ZM81.6077 8.02075H82.697V9.08203H81.6077V8.02075ZM81.6919 10.4521H82.6128V16H81.6919V10.4521ZM86.3615 10.3455C86.4401 10.3455 86.5131 10.3473 86.5805 10.3511C86.6516 10.3511 86.719 10.3548 86.7827 10.3623C86.85 10.3698 86.9062 10.3754 86.9511 10.3792C86.9998 10.3829 87.0541 10.3904 87.114 10.4016C87.1776 10.4128 87.2225 10.4222 87.2487 10.4297C87.2787 10.4334 87.3255 10.4447 87.3891 10.4634C87.4565 10.4784 87.4977 10.4877 87.5126 10.4915C87.5276 10.4952 87.5707 10.5083 87.6418 10.5308C87.7167 10.5532 87.7597 10.5663 87.7709 10.5701L87.5351 11.272C87.0335 11.1335 86.5917 11.0642 86.2099 11.0642C85.989 11.0642 85.7925 11.0867 85.6203 11.1316C85.4519 11.1765 85.3208 11.2308 85.2272 11.2944C85.1374 11.3581 85.0625 11.4329 85.0026 11.519C84.9465 11.6014 84.909 11.6744 84.8903 11.738C84.8754 11.8017 84.8679 11.8634 84.8679 11.9233C84.8679 12.0768 84.9465 12.2135 85.1037 12.3333C85.2647 12.453 85.4631 12.5504 85.6989 12.6252C85.9385 12.7001 86.1968 12.79 86.4738 12.8948C86.7508 12.9958 87.0073 13.1044 87.2431 13.2205C87.4827 13.3328 87.6811 13.4919 87.8383 13.6978C87.9993 13.9036 88.0798 14.1414 88.0798 14.4109C88.0798 14.5644 88.0592 14.7141 88.018 14.8601C87.9806 15.0024 87.9057 15.1521 87.7934 15.3093C87.6848 15.4666 87.5426 15.6032 87.3666 15.7192C87.1944 15.8315 86.9624 15.9251 86.6704 16C86.3784 16.0749 86.0433 16.1123 85.6652 16.1123C85.0925 16.1123 84.4636 15.9719 83.7785 15.6912L84.0368 14.9949C84.4224 15.1371 84.7368 15.2382 84.9802 15.2981C85.2272 15.358 85.4687 15.3879 85.7045 15.3879C86.618 15.3879 87.0747 15.0978 87.0747 14.5176C87.0747 14.3903 87.0297 14.278 86.9399 14.1807C86.85 14.0833 86.7303 14.0047 86.5805 13.9448C86.4308 13.8812 86.2604 13.8175 86.0695 13.7539C85.8824 13.6865 85.6896 13.6248 85.4912 13.5686C85.2965 13.5125 85.1037 13.4395 84.9128 13.3496C84.7256 13.256 84.5572 13.1549 84.4074 13.0464C84.2577 12.9341 84.1379 12.79 84.048 12.614C83.9582 12.4381 83.9133 12.2397 83.9133 12.0188C83.9133 11.884 83.9339 11.7474 83.975 11.6089C84.02 11.4666 84.1005 11.3188 84.2165 11.1653C84.3363 11.0081 84.4842 10.8714 84.6601 10.7554C84.8361 10.6356 85.07 10.5382 85.362 10.4634C85.6577 10.3848 85.9909 10.3455 86.3615 10.3455ZM92.1374 15.9045C91.5945 16.0431 91.1715 16.1123 90.8683 16.1123C90.5651 16.1123 90.3087 16.0636 90.099 15.9663C89.8894 15.869 89.7303 15.7305 89.6217 15.5508C89.5132 15.3711 89.4346 15.1783 89.3859 14.9724C89.341 14.7628 89.3185 14.5232 89.3185 14.2537V11.1765H88.5717V10.4521H89.3185V8.86304H90.2394V10.4521H91.9296V11.1765H90.2394V14.2424C90.2394 15.0098 90.5426 15.3936 91.1491 15.3936C91.2576 15.3936 91.544 15.3542 92.0082 15.2756L92.1374 15.9045ZM94.808 10.3455C95.2197 10.3455 95.5679 10.3941 95.8524 10.4915C96.1406 10.585 96.3615 10.7236 96.515 10.907C96.6722 11.0904 96.7845 11.2944 96.8519 11.519C96.9193 11.7437 96.953 12.002 96.953 12.2939V16H96.3016L96.0882 15.4946C95.6353 15.9064 95.1149 16.1123 94.5272 16.1123C94.0031 16.1123 93.5595 15.9551 93.1964 15.6406C92.8333 15.3224 92.6517 14.9518 92.6517 14.5288C92.6517 14.3042 92.6929 14.1021 92.7752 13.9224C92.8576 13.7427 92.9755 13.5929 93.129 13.4731C93.2862 13.3534 93.464 13.2523 93.6625 13.1699C93.8609 13.0838 94.0911 13.0183 94.3531 12.9734C94.6189 12.9285 94.8847 12.8966 95.1505 12.8779C95.4163 12.8592 95.7083 12.8499 96.0265 12.8499V12.4119C96.0265 12.2846 96.0209 12.1742 96.0096 12.0806C96.0021 11.987 95.9722 11.8747 95.9198 11.7437C95.8674 11.6126 95.7962 11.5059 95.7064 11.4236C95.6166 11.3375 95.4818 11.2645 95.3021 11.2046C95.1224 11.141 94.909 11.1091 94.662 11.1091C94.2801 11.1091 93.786 11.1934 93.1795 11.3618L93.0055 10.688C93.6194 10.4596 94.2202 10.3455 94.808 10.3455ZM96.0265 13.5461H95.6839C95.4706 13.5461 95.2853 13.5499 95.128 13.5574C94.9708 13.5649 94.7855 13.5873 94.5721 13.6248C94.3625 13.6584 94.1903 13.7071 94.0555 13.7708C93.9208 13.8344 93.8047 13.928 93.7074 14.0515C93.6138 14.1713 93.567 14.3154 93.567 14.4839C93.567 14.7197 93.6849 14.9294 93.9208 15.1128C94.1603 15.2962 94.4448 15.3879 94.7743 15.3879C95.2572 15.3879 95.6746 15.1989 96.0265 14.8208V13.5461ZM98.4051 10.4521H99.0508L99.253 10.9238C99.968 10.5345 100.619 10.3398 101.207 10.3398C101.51 10.3398 101.774 10.3885 101.999 10.4858C102.223 10.5794 102.398 10.6992 102.521 10.8452C102.645 10.9875 102.742 11.169 102.813 11.3899C102.888 11.607 102.935 11.8148 102.953 12.0132C102.976 12.2116 102.987 12.4381 102.987 12.6926V16H102.066V12.6309C102.066 11.6576 101.647 11.1709 100.808 11.1709C100.374 11.1709 99.88 11.315 99.326 11.6033V16H98.4051V10.4521ZM107.382 15.9045C106.839 16.0431 106.416 16.1123 106.113 16.1123C105.809 16.1123 105.553 16.0636 105.343 15.9663C105.134 15.869 104.975 15.7305 104.866 15.5508C104.757 15.3711 104.679 15.1783 104.63 14.9724C104.585 14.7628 104.563 14.5232 104.563 14.2537V11.1765H103.816V10.4521H104.563V8.86304H105.484V10.4521H107.174V11.1765H105.484V14.2424C105.484 15.0098 105.787 15.3936 106.393 15.3936C106.502 15.3936 106.788 15.3542 107.252 15.2756L107.382 15.9045Z" fill="#C7E1E0"/>
<g clip-path="url(#clip0_5_28)">
<path d="M14.3324 4.18654C14.3793 4.1873 14.4263 4.18791 14.4732 4.18851C15.9899 4.21163 17.5601 4.81882 18.7489 5.74805C18.7886 5.77877 18.8287 5.80875 18.8691 5.83849C19.0617 5.98131 19.2343 6.14097 19.4077 6.30614C19.4585 6.35385 19.511 6.39954 19.5637 6.4451C19.6409 6.51309 19.7084 6.58482 19.7746 6.66334C19.8217 6.71775 19.8706 6.77012 19.9199 6.82242C20.0777 6.99031 20.2229 7.1649 20.3602 7.34993C20.3728 7.36692 20.3854 7.38392 20.3984 7.40143C21.2487 8.55694 21.7293 9.93167 21.8595 11.3558C21.8611 11.3737 21.8628 11.3917 21.8645 11.4102C22.0302 13.3232 21.4117 15.2918 20.2196 16.7906C20.1939 16.8231 20.1939 16.8231 20.1676 16.8562C20.0664 16.9817 19.9615 17.1031 19.8527 17.2221C19.8083 17.2712 19.7649 17.3209 19.7216 17.371C19.6318 17.4738 19.5373 17.5712 19.4407 17.6676C19.4232 17.6851 19.4057 17.7026 19.3877 17.7206C19.2573 17.8496 19.1229 17.9664 18.9781 18.0791C18.9385 18.1122 18.899 18.1454 18.8595 18.1786C18.5435 18.4359 18.2114 18.6576 17.8536 18.8521C17.8322 18.8638 17.8107 18.8755 17.7887 18.8876C16.7636 19.4434 15.5884 19.8124 14.4137 19.8174C14.3877 19.8175 14.3616 19.8177 14.3348 19.8179C14.251 19.8183 14.1672 19.8184 14.0835 19.8185C14.0406 19.8185 14.0406 19.8185 13.9969 19.8185C13.591 19.8181 13.1946 19.8104 12.7936 19.7423C12.7682 19.7383 12.7427 19.7343 12.7165 19.7301C11.4985 19.5359 10.2762 19.059 9.30309 18.2899C9.2828 18.2742 9.2625 18.2586 9.2416 18.2424C9.18322 18.1967 9.12598 18.1498 9.06883 18.1025C9.04685 18.0849 9.02486 18.0672 9.00221 18.0491C8.80376 17.8868 8.62219 17.7078 8.44072 17.5271C8.4219 17.5084 8.4219 17.5085 8.4027 17.4894C8.23884 17.3268 8.08782 17.1593 7.94438 16.978C7.92095 16.9497 7.89744 16.9215 7.87383 16.8933C6.99674 15.8324 6.43746 14.4857 6.21524 13.1332C6.21262 13.1175 6.21 13.1017 6.2073 13.0855C6.15692 12.7501 6.15963 12.4085 6.15966 12.0701C6.15961 11.9977 6.15918 11.9252 6.15874 11.8528C6.15758 11.4478 6.1783 11.0432 6.25185 10.6442C6.25581 10.6223 6.25977 10.6003 6.26386 10.5777C6.3822 9.94507 6.57776 9.34115 6.84335 8.75549C6.85159 8.73694 6.85982 8.7184 6.8683 8.69928C7.31864 7.68619 8.05969 6.67866 8.93788 5.99195C9.0048 5.93947 9.0688 5.88417 9.13325 5.8287C9.29085 5.69753 9.45812 5.58568 9.63106 5.47584C9.64996 5.46378 9.66886 5.45172 9.68833 5.43929C9.95945 5.26684 10.2327 5.1022 10.5212 4.96047C10.5381 4.95216 10.5549 4.94385 10.5722 4.93528C11.1123 4.67205 11.6914 4.47727 12.2782 4.35139C12.2988 4.34691 12.3193 4.34243 12.3405 4.3378C12.4831 4.30718 12.6262 4.28135 12.7701 4.25769C12.8007 4.25238 12.8007 4.25238 12.8318 4.24697C13.3283 4.16333 13.8308 4.1784 14.3324 4.18654ZM13.1918 6.08492C13.0462 6.43443 12.9199 6.78926 12.7989 7.14797C12.7711 7.23005 12.7428 7.31197 12.7144 7.39385C12.6974 7.44363 12.6803 7.49341 12.6633 7.54319C12.6515 7.57682 12.6515 7.57682 12.6395 7.61112C12.5946 7.74393 12.5697 7.86592 12.5593 8.00586C12.6294 7.98771 12.6294 7.98771 12.6999 7.95901C12.7076 7.93582 12.7153 7.91262 12.7233 7.88873C12.7707 7.85588 12.82 7.82932 12.8705 7.80161C12.8838 7.79171 12.897 7.7818 12.9107 7.7716C12.9107 7.74841 12.9107 7.72522 12.9107 7.70132C12.9455 7.72451 12.9455 7.72451 12.981 7.74817C13.0595 7.75487 13.137 7.75788 13.2157 7.75938C13.3542 7.76467 13.4287 7.79765 13.5256 7.89459C13.5766 7.97459 13.5884 8.02827 13.5901 8.12299C13.5564 8.20352 13.5564 8.20352 13.5198 8.26355C13.5236 8.24905 13.5275 8.23456 13.5315 8.21962C13.545 8.17076 13.545 8.17076 13.5432 8.12299C13.5251 8.12806 13.5251 8.12806 13.5066 8.13324C13.4335 8.15012 13.3599 8.15983 13.2855 8.16984C13.286 8.14375 13.2865 8.11766 13.287 8.09078C13.2917 8.00979 13.2917 8.00979 13.2621 7.95901C13.2041 7.9822 13.2041 7.9822 13.145 8.00586C13.1372 8.09863 13.1295 8.19139 13.1215 8.28697C13.0683 8.1606 13.0699 8.04658 13.0747 7.91216C12.9846 7.91216 12.9703 7.93613 12.9078 7.99854C12.883 8.02259 12.883 8.02259 12.8578 8.04713C12.8128 8.10496 12.8019 8.14468 12.7936 8.21669C12.7539 8.19915 12.7143 8.18162 12.6746 8.16408C12.6289 8.14613 12.5838 8.1339 12.5359 8.12299C12.5706 8.63157 12.8003 9.21671 13.1791 9.56834C13.3004 9.67062 13.4427 9.7513 13.5868 9.81662C13.6369 9.85652 13.6369 9.85652 13.6492 9.92707C13.648 9.95549 13.6469 9.9839 13.6457 10.0132C13.6449 10.0363 13.6449 10.0363 13.6441 10.0599C13.6428 10.0926 13.6413 10.1253 13.6395 10.1579C13.637 10.2071 13.6356 10.2562 13.6345 10.3054C13.6211 10.7425 13.6211 10.7425 13.4789 10.8799C13.4138 10.9178 13.353 10.9335 13.2797 10.9502C13.2418 10.9591 13.2418 10.9591 13.2032 10.9681C13.1744 10.9745 13.1744 10.9745 13.145 10.981C13.1824 11.073 13.2454 11.1363 13.3148 11.205C13.3272 11.2173 13.3395 11.2296 13.3523 11.2423C13.4671 11.3541 13.5906 11.4519 13.7179 11.549C13.8174 11.6252 13.912 11.7072 14.0056 11.7906C14.0912 11.8696 14.0912 11.8696 14.1991 11.8946C14.2528 11.8697 14.2989 11.8442 14.3485 11.8126C14.3709 11.7987 14.3709 11.7987 14.3937 11.7846C14.5364 11.6951 14.6761 11.601 14.8155 11.5066C14.8368 11.4922 14.858 11.4779 14.8799 11.4631C15.0512 11.3457 15.226 11.225 15.3704 11.0747C15.3627 11.0515 15.355 11.0283 15.347 11.0044C15.3023 10.9889 15.3023 10.9889 15.2489 10.9824C15.1203 10.9575 15.0404 10.9037 14.9429 10.817C14.8147 10.5972 14.8451 10.2955 14.8534 10.0487C14.8548 10.0066 14.855 9.96444 14.855 9.92231C14.86 9.85655 14.8674 9.81922 14.9019 9.76281C14.9612 9.71462 15.0209 9.67333 15.0855 9.63272C15.3473 9.46678 15.5537 9.14284 15.6516 8.8492C15.5897 8.8492 15.5279 8.8492 15.4641 8.8492C15.4564 8.83374 15.4487 8.81828 15.4407 8.80235C15.4547 8.80056 15.4687 8.79878 15.4832 8.79695C15.588 8.76009 15.6283 8.63908 15.675 8.54466C15.7409 8.38669 15.7819 8.2476 15.7687 8.07614C15.6469 8.10803 15.579 8.15736 15.4876 8.24012C15.492 8.22538 15.4964 8.21065 15.5009 8.19546C15.5157 8.12627 15.5221 8.07608 15.511 8.00586C15.4431 7.92769 15.3652 7.87177 15.2767 7.81845C15.269 7.81845 15.2613 7.81845 15.2533 7.81845C15.2527 7.8405 15.2521 7.86254 15.2515 7.88525C15.2383 8.17499 15.2383 8.17499 15.1362 8.28697C15.148 8.23617 15.1596 8.19328 15.183 8.14642C15.184 8.09957 15.1841 8.0527 15.183 8.00586C15.0857 8.03635 15.0857 8.03635 14.9942 8.08053C14.9332 8.10611 14.8941 8.09349 14.8316 8.07614C14.8239 8.12252 14.8162 8.1689 14.8082 8.21669C14.7928 8.21669 14.7773 8.21669 14.7614 8.21669C14.7565 8.06662 14.7577 7.93723 14.8082 7.79502C14.7827 7.7924 14.7827 7.7924 14.7566 7.78972C14.475 7.75289 14.2224 7.63967 14.0409 7.41655C14.0068 7.37153 13.9736 7.3261 13.9415 7.27965C13.9114 7.34581 13.9114 7.34581 13.9339 7.39468C14.0487 7.60135 14.1925 7.78695 14.41 7.88873C14.183 7.87907 13.9941 7.82167 13.8134 7.68155C13.7739 7.65037 13.7739 7.65037 13.7101 7.61787C13.6937 7.60675 13.6773 7.59564 13.6603 7.58419C13.6576 7.56936 13.6549 7.55454 13.6521 7.53926C13.6408 7.48671 13.6408 7.48671 13.5923 7.45571C13.3439 7.33451 13.0836 7.3542 12.817 7.39678C12.817 7.38132 12.817 7.36586 12.817 7.34993C13.0184 7.29339 13.2694 7.26243 13.4729 7.3265C13.4664 7.31038 13.4599 7.29425 13.4532 7.27764C13.4237 7.20345 13.3952 7.12903 13.3675 7.05418C13.3576 7.02778 13.3477 7.00139 13.3375 6.9742C13.2693 6.76902 13.2525 6.5525 13.2357 6.33822C13.2337 6.31368 13.2317 6.28915 13.2296 6.26387C13.2247 6.20423 13.2199 6.14458 13.2152 6.08492C13.2075 6.08492 13.1998 6.08492 13.1918 6.08492ZM11.489 6.33529C11.4731 6.34238 11.4572 6.34946 11.4408 6.35676C11.0558 6.53174 10.6752 6.72415 10.3338 6.97511C10.3178 6.98683 10.3017 6.99854 10.2852 7.01061C10.0848 7.15787 9.89378 7.31118 9.71341 7.48252C9.65448 7.53734 9.65448 7.53734 9.5929 7.5862C9.54305 7.62644 9.50373 7.66564 9.46268 7.7145C9.39823 7.7902 9.33159 7.86308 9.26356 7.93558C8.234 9.06966 7.69271 10.7167 7.76283 12.2378C7.83739 13.477 8.24458 14.8116 9.08329 15.7557C9.11474 15.789 9.11474 15.789 9.164 15.7804C9.21761 15.761 9.21761 15.761 9.25624 15.6896C9.25939 15.5227 9.18387 15.3993 9.10388 15.2577C9.06429 15.1634 9.04946 15.0868 9.06883 14.9868C9.09641 14.9195 9.13327 14.8604 9.17278 14.7994C9.19441 14.7643 9.216 14.7292 9.23757 14.6941C9.24855 14.6765 9.25952 14.6589 9.27083 14.6408C9.49248 14.2823 9.65177 13.9107 9.79943 13.5168C9.97792 13.0409 10.1594 12.5625 10.4275 12.1288C10.4414 12.1061 10.4414 12.1061 10.4555 12.0829C10.5228 11.9723 10.5919 11.8629 10.6618 11.754C10.6765 11.7309 10.6765 11.7309 10.6916 11.7072C10.9901 11.2389 10.9901 11.2389 11.1575 11.1378C11.2217 11.0786 11.2253 11.0081 11.2372 10.9253C11.2541 10.8139 11.2726 10.722 11.3412 10.6296C11.4158 10.5754 11.4158 10.5754 11.4817 10.5359C11.4624 10.5136 11.4431 10.4914 11.4231 10.4685C11.3958 10.4364 11.3684 10.4042 11.3412 10.3719C11.3265 10.3546 11.3118 10.3373 11.2967 10.3195C11.0666 10.0412 10.9165 9.80618 10.9429 9.43485C10.9609 9.30547 10.9878 9.17865 11.0161 9.05125C11.0221 9.02358 11.0221 9.02358 11.0282 8.99535C11.2158 8.13112 11.4293 7.27087 11.7049 6.4303C11.7309 6.35291 11.7309 6.35291 11.7394 6.27233C11.6404 6.27233 11.577 6.29584 11.489 6.33529ZM16.6823 6.36604C16.7138 6.54585 16.7612 6.72007 16.8114 6.89539C16.9294 7.30884 17.0381 7.72473 17.1457 8.14095C17.158 8.18821 17.1703 8.23546 17.1825 8.28271C17.5832 9.82334 17.5832 9.82334 17.3996 10.1692C17.2872 10.3532 17.1659 10.5296 17.0337 10.6999C17.0464 10.7098 17.0591 10.7197 17.0722 10.73C17.1759 10.815 17.2655 10.8909 17.2914 11.0278C17.2914 11.0771 17.2914 11.1264 17.2914 11.1757C17.3018 11.3744 17.3936 11.5008 17.5002 11.664C17.9221 12.3128 18.1909 13.0952 18.4588 13.8166C18.5678 14.1087 18.6802 14.3758 18.8726 14.6237C19.1581 15.0049 19.1581 15.0049 19.1527 15.206C19.1299 15.3385 19.0616 15.4563 19.0015 15.5754C18.9748 15.6285 18.9485 15.6818 18.9224 15.7352C18.9106 15.7585 18.8989 15.7818 18.8867 15.8058C18.8569 15.888 18.8564 15.9542 18.8609 16.041C18.9471 16.0065 18.9849 15.962 19.0375 15.8865C19.0529 15.8645 19.0684 15.8426 19.0842 15.8199C19.1004 15.7962 19.1166 15.7726 19.1333 15.7482C19.1584 15.7116 19.1584 15.7116 19.1841 15.6742C19.3245 15.4672 19.4509 15.2569 19.5637 15.0337C19.5743 15.0128 19.5849 14.9919 19.5958 14.9704C20.0009 14.164 20.2872 13.2605 20.2955 12.3509C20.2957 12.3301 20.296 12.3093 20.2962 12.2879C20.3003 11.8129 20.2921 11.3544 20.1962 10.8873C20.1913 10.8629 20.1864 10.8385 20.1814 10.8134C19.9492 9.6901 19.4514 8.67541 18.6779 7.82806C18.6282 7.77334 18.5799 7.71764 18.5315 7.66179C18.4596 7.58077 18.3841 7.50883 18.3014 7.43897C18.2469 7.39258 18.1946 7.34425 18.142 7.29576C17.8177 7.00409 17.4572 6.76877 17.0791 6.55344C17.0559 6.54022 17.0328 6.527 17.0089 6.51338C16.9022 6.45347 16.8013 6.39814 16.6823 6.36604ZM14.5974 6.95169C14.6208 6.99854 14.6208 6.99854 14.6208 6.99854L14.5974 6.95169ZM14.6208 6.99854C14.6314 7.03276 14.6421 7.06691 14.653 7.10103C14.659 7.12005 14.665 7.13908 14.6711 7.15868C14.6887 7.21323 14.6887 7.21323 14.7379 7.25623C14.7985 7.26013 14.7985 7.26013 14.8551 7.25623C14.7889 7.14677 14.7221 7.07678 14.6208 6.99854ZM14.7848 7.34993C14.8189 7.44672 14.8611 7.52727 14.9253 7.60762C14.9982 7.64106 14.9982 7.64106 15.0659 7.65447C15.0814 7.63901 15.0968 7.62355 15.1128 7.60762C15.087 7.57335 15.0611 7.53921 15.0352 7.50513C15.0208 7.4861 15.0063 7.46708 14.9915 7.44748C14.9489 7.39215 14.9489 7.39215 14.8785 7.34993C14.8476 7.34993 14.8166 7.34993 14.7848 7.34993ZM15.2299 7.39678C15.2348 7.48723 15.2448 7.56936 15.2767 7.65447C15.3411 7.70997 15.4083 7.74207 15.4876 7.7716C15.4548 7.62966 15.3721 7.52699 15.2767 7.42021C15.2613 7.41248 15.2458 7.40475 15.2299 7.39678ZM15.6281 7.74817C15.6099 7.80209 15.6099 7.80209 15.6047 7.8653C15.6327 7.92024 15.6327 7.92024 15.675 7.95901C15.6904 7.95901 15.7059 7.95901 15.7218 7.95901C15.7094 7.8695 15.6868 7.81701 15.6281 7.74817ZM14.8316 7.93558C14.8394 7.95877 14.8471 7.98196 14.8551 8.00586C14.9015 7.9904 14.9478 7.97494 14.9956 7.95901C14.9956 7.93582 14.9956 7.91262 14.9956 7.88873C14.9229 7.88873 14.8937 7.90136 14.8316 7.93558ZM12.0908 8.35725C12.0672 8.42788 12.0649 8.47536 12.0659 8.54905C12.0661 8.57016 12.0663 8.59127 12.0665 8.61302C12.0668 8.62911 12.0671 8.64521 12.0674 8.66179C12.0751 8.66179 12.0828 8.66179 12.0908 8.66179C12.0985 8.56129 12.1063 8.46079 12.1142 8.35725C12.1065 8.35725 12.0988 8.35725 12.0908 8.35725ZM16.0966 8.47438C16.0966 8.58261 16.0966 8.69084 16.0966 8.80235C16.0812 8.80235 16.0657 8.80235 16.0498 8.80235C16.0575 8.83327 16.0653 8.86419 16.0732 8.89605C16.0924 8.86687 16.1114 8.83756 16.1303 8.8082C16.1409 8.7919 16.1515 8.77559 16.1624 8.75879C16.1894 8.71029 16.2032 8.66912 16.2138 8.61494C16.1829 8.60721 16.1519 8.59948 16.1201 8.59151C16.1201 8.55286 16.1201 8.5142 16.1201 8.47438C16.1123 8.47438 16.1046 8.47438 16.0966 8.47438ZM12.5593 8.70864C12.5066 8.74166 12.5066 8.74166 12.4656 8.80235C12.4571 8.90111 12.4712 8.98488 12.5242 9.06882C12.6082 9.12342 12.6976 9.1501 12.7936 9.17716C12.7845 9.09631 12.7845 9.09631 12.7467 9.01318C12.6988 8.98608 12.654 8.97138 12.6009 8.95709C12.5593 8.9429 12.5593 8.9429 12.5359 8.89605C12.5745 8.88832 12.6132 8.88059 12.653 8.87262C12.6453 8.82624 12.6376 8.77986 12.6296 8.73207C12.6064 8.72434 12.5832 8.71661 12.5593 8.70864ZM15.8858 8.82577C15.8781 8.85669 15.8704 8.88762 15.8624 8.91948C15.8392 8.91948 15.816 8.91948 15.7921 8.91948C15.7844 8.89628 15.7766 8.87309 15.7687 8.8492C15.6892 8.92243 15.6374 8.97957 15.6047 9.08346C15.6202 9.09892 15.6356 9.11438 15.6516 9.13031C15.7507 9.12844 15.8035 9.11556 15.8843 9.0571C15.9439 8.97407 15.9425 8.92578 15.9327 8.82577C15.9172 8.82577 15.9017 8.82577 15.8858 8.82577ZM13.4729 11.7775C13.4253 11.8251 13.4454 11.9244 13.4451 11.9899C13.4449 12.0097 13.4447 12.0295 13.4445 12.0499C13.4441 12.0931 13.4437 12.1362 13.4434 12.1794C13.4429 12.2476 13.4423 12.3158 13.4416 12.384C13.4402 12.5288 13.439 12.6736 13.4378 12.8185C13.4364 12.9861 13.4349 13.1538 13.4333 13.3215C13.4327 13.3888 13.4322 13.4562 13.4317 13.5235C13.4313 13.5646 13.4309 13.6058 13.4305 13.6469C13.4304 13.6752 13.4304 13.6752 13.4302 13.704C13.4287 13.8336 13.4287 13.8336 13.4027 13.8858C13.4047 13.922 13.4083 13.9582 13.4129 13.9941C13.4153 14.0133 13.4177 14.0324 13.4201 14.0522C13.4221 14.0668 13.4241 14.0815 13.4261 14.0966C13.4003 14.0964 13.3745 14.0961 13.3479 14.0958C13.1045 14.0935 12.8612 14.0917 12.6178 14.0906C12.4927 14.09 12.3676 14.0891 12.2425 14.0878C12.1218 14.0865 12.001 14.0858 11.8803 14.0855C11.8342 14.0853 11.7882 14.0849 11.7421 14.0843C11.6776 14.0834 11.6131 14.0833 11.5485 14.0833C11.5295 14.0829 11.5105 14.0825 11.491 14.0821C11.3947 14.0829 11.3355 14.0916 11.2594 14.1531C11.1588 14.2569 11.1727 14.3343 11.1739 14.4743C11.1798 14.6388 11.1988 14.8016 11.2173 14.965C11.2215 15.0029 11.2257 15.0407 11.2298 15.0785C11.2406 15.1772 11.2516 15.2759 11.2627 15.3746C11.2761 15.4943 11.2892 15.6139 11.3024 15.7336C11.3127 15.8267 11.3229 15.9199 11.3334 16.013C11.3535 16.194 11.3726 16.3749 11.388 16.5564C11.3711 16.5221 11.3711 16.5221 11.3538 16.4871C11.3388 16.457 11.3239 16.4269 11.3089 16.3968C11.3015 16.3817 11.2941 16.3667 11.2864 16.3512C11.253 16.2839 11.2189 16.2208 11.1772 16.1581C11.1617 16.1581 11.1463 16.1581 11.1303 16.1581C11.1303 16.1427 11.1303 16.1272 11.1303 16.1113C11.0849 16.1177 11.0849 16.1177 11.0366 16.1347C10.9735 16.2294 10.9767 16.3046 10.9898 16.4158C11.0213 16.4967 11.0213 16.4967 11.06 16.5564C10.9621 16.4753 10.9352 16.3928 10.8961 16.2753C10.818 16.2655 10.818 16.2655 10.7321 16.2753C10.6827 16.3306 10.6827 16.3306 10.6384 16.3924C10.5652 16.4202 10.5652 16.4202 10.4978 16.4392C10.4465 16.4906 10.4394 16.5159 10.4202 16.5842C10.3958 16.6626 10.3677 16.721 10.3177 16.7862C10.2544 16.8582 10.2544 16.8582 10.2636 16.9546C9.97753 16.9623 9.69149 16.9701 9.39679 16.978C9.39679 17.0322 9.39679 17.0863 9.39679 17.142C9.6548 17.1426 9.9128 17.143 10.1708 17.1432C10.2906 17.1434 10.4104 17.1435 10.5302 17.1438C10.6458 17.144 10.7614 17.1442 10.877 17.1442C10.9211 17.1443 10.9652 17.1444 11.0093 17.1445C11.0711 17.1447 11.1328 17.1447 11.1946 17.1447C11.222 17.1448 11.222 17.1448 11.25 17.1449C11.3313 17.1448 11.4035 17.1404 11.4817 17.1186C11.4817 17.1031 11.4817 17.0877 11.4817 17.0717C11.3232 17.034 11.176 17.0187 11.0132 17.0249C11.0287 17.0017 11.0441 16.9785 11.06 16.9546C11.1201 16.9488 11.1201 16.9488 11.1772 16.9546C11.1849 16.9623 11.1926 16.9701 11.2006 16.978C11.2474 16.979 11.2943 16.979 11.3412 16.978C11.3637 16.9105 11.3671 16.868 11.366 16.798C11.3658 16.779 11.3656 16.7601 11.3654 16.7406C11.3651 16.7262 11.3649 16.7118 11.3646 16.6969C11.38 16.6969 11.3955 16.6969 11.4114 16.6969C11.4114 16.7588 11.4114 16.8206 11.4114 16.8843C11.4477 16.8843 11.4477 16.8843 11.4848 16.8843C12.0753 16.8837 12.6659 16.8834 13.2564 16.8831C13.542 16.883 13.8276 16.8828 14.1132 16.8826C14.3624 16.8823 14.6115 16.8822 14.8606 16.8821C14.9923 16.8821 15.124 16.882 15.2558 16.8819C15.3801 16.8817 15.5045 16.8817 15.6289 16.8817C15.6742 16.8817 15.7194 16.8816 15.7647 16.8815C16.0635 16.881 16.3606 16.8901 16.6589 16.9078C16.6666 16.931 16.6743 16.9541 16.6823 16.978C16.7377 16.9693 16.7681 16.9632 16.8067 16.9212C16.9491 16.6929 16.9491 16.6929 17.0103 16.4392C17.0257 16.4392 17.0412 16.4392 17.0571 16.4392C17.0467 16.4649 17.0363 16.4906 17.0255 16.5171C17.0121 16.5512 16.9988 16.5853 16.9854 16.6193C16.9785 16.6362 16.9716 16.6531 16.9645 16.6705C16.9274 16.766 16.905 16.83 16.94 16.9312C17.0173 16.9312 17.0946 16.9312 17.1742 16.9312C17.1897 16.9621 17.2052 16.993 17.2211 17.0249C17.2015 17.0194 17.2015 17.0194 17.1816 17.0138C16.9745 16.961 16.8307 16.9915 16.6354 17.0717C16.6354 17.0872 16.6354 17.1027 16.6354 17.1186C16.9299 17.1441 17.2229 17.1451 17.5182 17.1443C17.5687 17.1443 17.6191 17.1442 17.6696 17.1442C17.8011 17.1441 17.9327 17.1439 18.0643 17.1436C18.1991 17.1434 18.3338 17.1433 18.4686 17.1432C18.7321 17.1429 18.9956 17.1425 19.2592 17.142C19.2592 17.0879 19.2592 17.0338 19.2592 16.978C18.7721 16.978 18.2851 16.978 17.7833 16.978C17.7988 16.9085 17.8142 16.8389 17.8302 16.7672C17.8251 16.6265 17.7798 16.4926 17.713 16.369C17.6579 16.3202 17.6579 16.3202 17.5959 16.2987C17.5187 16.2673 17.503 16.2532 17.4568 16.1786C17.4293 16.1385 17.4293 16.1385 17.3851 16.1113C17.2826 16.0988 17.1833 16.1032 17.0805 16.1113C17.0697 16.0837 17.0697 16.0837 17.0586 16.0556C17.0354 15.9959 17.0354 15.9959 17.0103 15.9473C16.899 15.9395 16.8452 15.9575 16.7526 16.0176C16.7749 15.7562 16.7991 15.4952 16.8296 15.2346C16.8322 15.2127 16.8347 15.1909 16.8374 15.1683C16.8478 15.0793 16.8584 14.9902 16.8691 14.9012C16.877 14.8347 16.8848 14.7682 16.8926 14.7017C16.895 14.682 16.8974 14.6622 16.8999 14.6419C16.9065 14.5851 16.9118 14.5284 16.9166 14.4715C16.9187 14.4512 16.9208 14.4309 16.923 14.41C16.9242 14.3898 16.9255 14.3695 16.9268 14.3487C16.929 14.3217 16.929 14.3217 16.9311 14.2941C16.9078 14.203 16.853 14.1488 16.776 14.0966C16.7092 14.0833 16.6628 14.0786 16.5966 14.0807C16.5792 14.0807 16.5618 14.0806 16.5439 14.0806C16.4869 14.0807 16.4299 14.0818 16.3728 14.0829C16.3331 14.0832 16.2934 14.0834 16.2537 14.0835C16.1494 14.084 16.0453 14.0854 15.941 14.087C15.8346 14.0884 15.7281 14.0891 15.6216 14.0898C15.4129 14.0913 15.2043 14.0937 14.9956 14.0966C15.0034 14.0812 15.0111 14.0657 15.019 14.0498C15.0488 13.7989 15.0471 13.5451 15.0469 13.2928C15.0469 13.273 15.0469 13.2532 15.0469 13.2328C15.0469 12.7625 15.0232 12.2936 14.9956 11.8243C14.9724 11.8243 14.9492 11.8243 14.9253 11.8243C14.8937 11.9191 14.9048 12.0071 14.9107 12.1054C14.9131 12.1502 14.9154 12.195 14.9177 12.2398C14.919 12.2636 14.9203 12.2874 14.9216 12.312C14.9389 12.6524 14.9508 12.9929 14.9517 13.3338C14.9518 13.3569 14.9519 13.3801 14.952 13.4039C14.9516 13.5932 14.9435 13.7826 14.9107 13.9693C14.897 14.0294 14.897 14.0294 14.9253 14.0966C14.4538 14.0966 13.9822 14.0966 13.4964 14.0966C13.5041 14.0657 13.5118 14.0348 13.5198 14.0029C13.5233 13.9464 13.5256 13.8899 13.5272 13.8333C13.5277 13.816 13.5282 13.7988 13.5287 13.781C13.5302 13.7232 13.5316 13.6654 13.533 13.6076C13.5337 13.5777 13.5337 13.5777 13.5345 13.5473C13.5487 12.9653 13.5454 12.383 13.5432 11.8009C13.52 11.7932 13.4968 11.7854 13.4729 11.7775ZM11.5051 16.9546C11.5283 17.0087 11.5515 17.0628 11.5754 17.1186C13.2143 17.1186 14.8532 17.1186 16.5417 17.1186C16.5495 17.0799 16.5572 17.0413 16.5652 17.0015C16.4767 16.9683 16.4262 16.9899 16.3398 17.0226C16.1401 17.0871 15.9508 17.0852 15.7431 17.0845C15.7013 17.0847 15.6595 17.085 15.6177 17.0853C15.5051 17.0859 15.3925 17.086 15.2798 17.086C15.1618 17.086 15.0438 17.0867 14.9258 17.0872C14.7027 17.0881 14.4796 17.0886 14.2565 17.0889C14.0024 17.0893 13.7482 17.0902 13.4941 17.0911C12.9717 17.0931 12.4492 17.0943 11.9268 17.0952C11.9268 17.0565 11.9268 17.0179 11.9268 16.978C11.8495 16.9935 11.7722 17.009 11.6925 17.0249C11.6925 17.0094 11.6925 16.994 11.6925 16.978C11.6307 16.9703 11.5689 16.9626 11.5051 16.9546Z" fill="#C7E1E0"/>
<path d="M10.6852 16.7204C10.7331 16.7582 10.7799 16.7973 10.8258 16.8375C10.8258 16.8529 10.8258 16.8684 10.8258 16.8843C10.8403 16.8896 10.8548 16.895 10.8697 16.9004C10.9339 16.9401 10.9441 16.9779 10.9664 17.0483C10.9417 17.0382 10.9417 17.0382 10.9166 17.0278C10.8479 17.001 10.7787 16.9774 10.7087 16.9546C10.7009 16.8773 10.6932 16.8 10.6852 16.7204Z" fill="#C7E1E0"/>
<path d="M16.7292 16.1581C16.776 16.205 16.776 16.205 16.7771 16.2474C16.736 16.5504 16.736 16.5504 16.7057 16.6501C16.6903 16.6578 16.6748 16.6655 16.6589 16.6735C16.6523 16.5051 16.6649 16.3456 16.7057 16.1816C16.7135 16.1738 16.7212 16.1661 16.7292 16.1581Z" fill="#C7E1E0"/>
<path d="M17.3851 16.4392C17.4006 16.4392 17.416 16.4392 17.4319 16.4392C17.4189 16.5462 17.373 16.6252 17.3163 16.7145C17.3078 16.7283 17.2994 16.7421 17.2907 16.7563C17.2274 16.8578 17.2274 16.8578 17.1743 16.8843C17.1884 16.7795 17.2288 16.7012 17.2797 16.6091C17.2944 16.5821 17.3091 16.5552 17.3243 16.5275C17.3617 16.4627 17.3617 16.4627 17.3851 16.4392Z" fill="#C7E1E0"/>
<path d="M17.5725 16.7438C17.5802 16.7592 17.5879 16.7747 17.5959 16.7906C17.574 16.8382 17.5506 16.8852 17.5256 16.9312C17.5479 16.9302 17.5701 16.9293 17.593 16.9283C17.6662 16.9312 17.6662 16.9312 17.713 16.978C17.6048 16.978 17.4966 16.978 17.3851 16.978C17.4409 16.8904 17.4962 16.8146 17.5725 16.7438Z" fill="#C7E1E0"/>
<path d="M11.0366 16.5798C11.1069 16.6032 11.1069 16.6032 11.1347 16.6545C11.1555 16.7263 11.1572 16.7865 11.1538 16.8609C11.1306 16.8532 11.1074 16.8454 11.0835 16.8375C11.0455 16.7494 11.031 16.6753 11.0366 16.5798Z" fill="#C7E1E0"/>
<path d="M10.4041 16.8141C10.4196 16.8141 10.435 16.8141 10.451 16.8141C10.4852 16.8761 10.4978 16.9053 10.4978 16.978C10.4669 16.978 10.436 16.978 10.4041 16.978C10.4041 16.9239 10.4041 16.8698 10.4041 16.8141Z" fill="#C7E1E0"/>
<path d="M12.7701 8.26355C12.8155 8.28258 12.8155 8.28258 12.8638 8.3104C12.8716 8.33359 12.8793 8.35679 12.8873 8.38068C12.8563 8.37295 12.8254 8.36522 12.7936 8.35725C12.7858 8.32633 12.7781 8.29541 12.7701 8.26355Z" fill="#C7E1E0"/>
<path d="M14.7145 9.83308C14.7377 9.83308 14.7608 9.83308 14.7847 9.83308C14.777 9.85628 14.7693 9.87947 14.7613 9.90336C14.7381 9.90336 14.7149 9.90336 14.691 9.90336C14.6988 9.88017 14.7065 9.85698 14.7145 9.83308Z" fill="#C7E1E0"/>
<path d="M13.3324 7.67789C13.3633 7.67789 13.3942 7.67789 13.4261 7.67789C13.4261 7.69335 13.4261 7.70881 13.4261 7.72474C13.3874 7.72474 13.3488 7.72474 13.309 7.72474C13.3167 7.70928 13.3244 7.69382 13.3324 7.67789Z" fill="#C7E1E0"/>
</g>
<defs>
<clipPath id="clip0_5_28">
<rect width="16" height="16" fill="white" transform="translate(6 4)"/>
</clipPath>
</defs>
</svg>
